<ttFont>
    <TTGlyph name="A" xMin="-45" yMin="-10" xMax="542" yMax="649">
      <contour>
        <pt x="456" y="111" on="1"/>
        <pt x="463" y="73" on="0"/>
        <pt x="499" y="43" on="0"/>
        <pt x="540" y="39" on="1"/>
        <pt x="542" y="36" on="1"/>
        <pt x="531" y="-3" on="1"/>
        <pt x="510" y="-3" on="0"/>
        <pt x="492" y="-2" on="1"/>
        <pt x="476" y="-1" on="0"/>
        <pt x="442" y="0" on="0"/>
        <pt x="430" y="0" on="1"/>
        <pt x="402" y="0" on="0"/>
        <pt x="351" y="-3" on="0"/>
        <pt x="331" y="-5" on="1"/>
        <pt x="307" y="-8" on="0"/>
        <pt x="287" y="-10" on="1"/>
        <pt x="285" y="-3" on="1"/>
        <pt x="293" y="33" on="1"/>
        <pt x="348" y="37" on="0"/>
        <pt x="385" y="57" on="0"/>
        <pt x="385" y="83" on="1"/>
        <pt x="385" y="91" on="0"/>
        <pt x="383" y="111" on="0"/>
        <pt x="381" y="121" on="1"/>
        <pt x="363" y="234" on="1"/>
        <pt x="354" y="234" on="0"/>
        <pt x="328" y="235" on="0"/>
        <pt x="300" y="235" on="0"/>
        <pt x="273" y="235" on="0"/>
        <pt x="263" y="235" on="1"/>
        <pt x="234" y="235" on="0"/>
        <pt x="174" y="229" on="0"/>
        <pt x="156" y="227" on="1"/>
        <pt x="107" y="119" on="1"/>
        <pt x="93" y="90" on="0"/>
        <pt x="93" y="73" on="1"/>
        <pt x="93" y="37" on="0"/>
        <pt x="146" y="37" on="1"/>
        <pt x="202" y="37" on="1"/>
        <pt x="202" y="34" on="1"/>
        <pt x="192" y="-7" on="1"/>
        <pt x="172" y="-6" on="0"/>
        <pt x="150" y="-4" on="1"/>
        <pt x="131" y="-2" on="0"/>
        <pt x="84" y="0" on="0"/>
        <pt x="60" y="0" on="1"/>
        <pt x="43" y="0" on="0"/>
        <pt x="7" y="-1" on="0"/>
        <pt x="-9" y="-2" on="1"/>
        <pt x="-27" y="-3" on="0"/>
        <pt x="-45" y="-3" on="1"/>
        <pt x="-32" y="42" on="1"/>
        <pt x="-18" y="43" on="0"/>
        <pt x="4" y="52" on="0"/>
        <pt x="24" y="70" on="0"/>
        <pt x="43" y="98" on="0"/>
        <pt x="54" y="120" on="1"/>
        <pt x="302" y="631" on="1"/>
        <pt x="358" y="648" on="1"/>
        <pt x="366" y="649" on="1"/>
        <pt x="379" y="560" on="0"/>
        <pt x="394" y="467" on="1"/>
        <pt x="407" y="387" on="0"/>
        <pt x="439" y="198" on="0"/>
      </contour>
      <contour>
        <pt x="179" y="271" on="1"/>
        <pt x="264" y="271" on="1"/>
        <pt x="284" y="271" on="0"/>
        <pt x="338" y="275" on="0"/>
        <pt x="355" y="277" on="1"/>
        <pt x="311" y="544" on="1"/>
        <pt x="304" y="544" on="1"/>
      </contour>
    </TTGlyph>
    <TTGlyph name="AE" xMin="-33" yMin="-10" xMax="747" yMax="649">
      <contour>
        <pt x="266" y="35" on="1"/>
        <pt x="314" y="38" on="0"/>
        <pt x="367" y="82" on="0"/>
        <pt x="367" y="117" on="1"/>
        <pt x="367" y="153" on="1"/>
        <pt x="365" y="277" on="1"/>
        <pt x="269" y="269" on="1"/>
        <pt x="180" y="260" on="1"/>
        <pt x="96" y="120" on="1"/>
        <pt x="83" y="99" on="0"/>
        <pt x="75" y="79" on="0"/>
        <pt x="75" y="69" on="1"/>
        <pt x="75" y="52" on="0"/>
        <pt x="97" y="39" on="0"/>
        <pt x="124" y="39" on="1"/>
        <pt x="178" y="39" on="1"/>
        <pt x="167" y="-7" on="1"/>
        <pt x="146" y="-6" on="0"/>
        <pt x="124" y="-4" on="1"/>
        <pt x="105" y="-2" on="0"/>
        <pt x="58" y="0" on="0"/>
        <pt x="35" y="0" on="1"/>
        <pt x="27" y="0" on="0"/>
        <pt x="5" y="-1" on="0"/>
        <pt x="-6" y="-2" on="1"/>
        <pt x="-18" y="-3" on="0"/>
        <pt x="-31" y="-4" on="1"/>
        <pt x="-33" y="30" on="1"/>
        <pt x="-22" y="40" on="0"/>
        <pt x="-11" y="54" on="1"/>
        <pt x="-1" y="66" on="0"/>
        <pt x="24" y="100" on="0"/>
        <pt x="38" y="121" on="1"/>
        <pt x="329" y="579" on="1"/>
        <pt x="326" y="595" on="0"/>
        <pt x="307" y="595" on="1"/>
        <pt x="302" y="595" on="0"/>
        <pt x="291" y="594" on="0"/>
        <pt x="286" y="594" on="1"/>
        <pt x="280" y="593" on="0"/>
        <pt x="274" y="593" on="1"/>
        <pt x="272" y="597" on="1"/>
        <pt x="285" y="640" on="1"/>
        <pt x="285" y="640" on="0"/>
        <pt x="313" y="639" on="0"/>
        <pt x="357" y="638" on="0"/>
        <pt x="411" y="637" on="0"/>
        <pt x="438" y="637" on="1"/>
        <pt x="496" y="637" on="0"/>
        <pt x="585" y="638" on="0"/>
        <pt x="653" y="641" on="0"/>
        <pt x="705" y="646" on="0"/>
        <pt x="726" y="649" on="1"/>
        <pt x="728" y="643" on="1"/>
        <pt x="720" y="621" on="0"/>
        <pt x="713" y="595" on="1"/>
        <pt x="707" y="572" on="0"/>
        <pt x="692" y="513" on="0"/>
        <pt x="686" y="478" on="1"/>
        <pt x="639" y="474" on="1"/>
        <pt x="641" y="485" on="0"/>
        <pt x="643" y="496" on="1"/>
        <pt x="645" y="506" on="0"/>
        <pt x="648" y="527" on="0"/>
        <pt x="648" y="537" on="1"/>
        <pt x="648" y="553" on="0"/>
        <pt x="637" y="574" on="0"/>
        <pt x="606" y="584" on="0"/>
        <pt x="548" y="588" on="0"/>
        <pt x="502" y="588" on="1"/>
        <pt x="458" y="588" on="0"/>
        <pt x="433" y="574" on="0"/>
        <pt x="433" y="557" on="1"/>
        <pt x="435" y="327" on="1"/>
        <pt x="551" y="338" on="1"/>
        <pt x="641" y="351" on="1"/>
        <pt x="645" y="346" on="1"/>
        <pt x="626" y="294" on="1"/>
        <pt x="543" y="292" on="1"/>
        <pt x="435" y="283" on="1"/>
        <pt x="441" y="112" on="1"/>
        <pt x="442" y="74" on="0"/>
        <pt x="475" y="44" on="0"/>
        <pt x="515" y="44" on="1"/>
        <pt x="567" y="44" on="0"/>
        <pt x="629" y="51" on="0"/>
        <pt x="667" y="76" on="0"/>
        <pt x="689" y="125" on="0"/>
        <pt x="700" y="166" on="1"/>
        <pt x="744" y="171" on="1"/>
        <pt x="747" y="166" on="1"/>
        <pt x="739" y="141" on="0"/>
        <pt x="731" y="114" on="1"/>
        <pt x="724" y="91" on="0"/>
        <pt x="707" y="31" on="0"/>
        <pt x="700" y="-1" on="1"/>
        <pt x="695" y="-7" on="1"/>
        <pt x="696" y="-6" on="0"/>
        <pt x="633" y="-4" on="0"/>
        <pt x="542" y="-2" on="0"/>
        <pt x="441" y="0" on="0"/>
        <pt x="404" y="0" on="1"/>
        <pt x="376" y="0" on="0"/>
        <pt x="325" y="-3" on="0"/>
        <pt x="305" y="-5" on="1"/>
        <pt x="281" y="-8" on="0"/>
        <pt x="261" y="-10" on="1"/>
        <pt x="260" y="-3" on="1"/>
      </contour>
      <contour>
        <pt x="293" y="315" on="1"/>
        <pt x="364" y="321" on="1"/>
        <pt x="363" y="540" on="1"/>
        <pt x="354" y="540" on="1"/>
        <pt x="213" y="310" on="1"/>
      </contour>
    </TTGlyph>
    <TTGlyph name="AEacute" xMin="-33" yMin="-10" xMax="747" yMax="841">
      <component glyphName="AE" x="0" y="0" flags="0x4"/>
      <component glyphName="acute.cap" x="236" y="0" flags="0x4"/>
    </TTGlyph>
    <TTGlyph name="Aacute" xMin="-45" yMin="-10" xMax="542" yMax="841">
      <component glyphName="A" x="0" y="0" flags="0x4"/>
      <component glyphName="acute.cap" x="106" y="0" flags="0x4"/>
    </TTGlyph>
    <TTGlyph name="Abreve" xMin="-45" yMin="-10" xMax="542" yMax="818">
      <component glyphName="A" x="0" y="0" flags="0x4"/>
      <component glyphName="breve.cap" x="95" y="0" flags="0x4"/>
    </TTGlyph>
    <TTGlyph name="Acircumflex" xMin="-45" yMin="-10" xMax="542" yMax="846">
      <component glyphName="A" x="0" y="0" flags="0x4"/>
      <component glyphName="circumflex.cap" x="96" y="0" flags="0x4"/>
    </TTGlyph>
    <TTGlyph name="Adieresis" xMin="-45" yMin="-10" xMax="542" yMax="818">
      <component glyphName="A" x="0" y="0" flags="0x4"/>
      <component glyphName="dieresis.cap" x="96" y="0" flags="0x4"/>
    </TTGlyph>
    <TTGlyph name="Agrave" xMin="-45" yMin="-10" xMax="542" yMax="841">
      <component glyphName="A" x="0" y="0" flags="0x4"/>
      <component glyphName="grave.cap" x="93" y="0" flags="0x4"/>
    </TTGlyph>
    <TTGlyph name="Amacron" xMin="-45" yMin="-10" xMax="542" yMax="788">
      <component glyphName="A" x="0" y="0" flags="0x4"/>
      <component glyphName="macron.cap" x="95" y="0" flags="0x4"/>
    </TTGlyph>
    <TTGlyph name="Aogonek" xMin="-45" yMin="-242" xMax="542" yMax="649">
      <contour>
        <pt x="529" y="-179" on="1"/>
        <pt x="514" y="-192" on="0"/>
        <pt x="496" y="-204" on="1"/>
        <pt x="481" y="-215" on="0"/>
        <pt x="444" y="-236" on="0"/>
        <pt x="425" y="-242" on="1"/>
        <pt x="382" y="-242" on="0"/>
        <pt x="329" y="-199" on="0"/>
        <pt x="329" y="-159" on="1"/>
        <pt x="329" y="-120" on="0"/>
        <pt x="391" y="-43" on="0"/>
        <pt x="439" y="0" on="1"/>
        <pt x="430" y="0" on="1"/>
        <pt x="402" y="0" on="0"/>
        <pt x="351" y="-3" on="0"/>
        <pt x="331" y="-5" on="1"/>
        <pt x="307" y="-8" on="0"/>
        <pt x="287" y="-10" on="1"/>
        <pt x="285" y="-3" on="1"/>
        <pt x="293" y="33" on="1"/>
        <pt x="348" y="37" on="0"/>
        <pt x="385" y="57" on="0"/>
        <pt x="385" y="83" on="1"/>
        <pt x="385" y="91" on="0"/>
        <pt x="383" y="111" on="0"/>
        <pt x="381" y="121" on="1"/>
        <pt x="363" y="234" on="1"/>
        <pt x="354" y="234" on="0"/>
        <pt x="328" y="235" on="0"/>
        <pt x="300" y="235" on="0"/>
        <pt x="273" y="235" on="0"/>
        <pt x="263" y="235" on="1"/>
        <pt x="234" y="235" on="0"/>
        <pt x="174" y="229" on="0"/>
        <pt x="156" y="227" on="1"/>
        <pt x="107" y="119" on="1"/>
        <pt x="93" y="90" on="0"/>
        <pt x="93" y="73" on="1"/>
        <pt x="93" y="37" on="0"/>
        <pt x="146" y="37" on="1"/>
        <pt x="202" y="37" on="1"/>
        <pt x="202" y="34" on="1"/>
        <pt x="192" y="-7" on="1"/>
        <pt x="172" y="-6" on="0"/>
        <pt x="150" y="-4" on="1"/>
        <pt x="131" y="-2" on="0"/>
        <pt x="84" y="0" on="0"/>
        <pt x="60" y="0" on="1"/>
        <pt x="43" y="0" on="0"/>
        <pt x="7" y="-1" on="0"/>
        <pt x="-9" y="-2" on="1"/>
        <pt x="-27" y="-3" on="0"/>
        <pt x="-45" y="-3" on="1"/>
        <pt x="-32" y="42" on="1"/>
        <pt x="-18" y="43" on="0"/>
        <pt x="4" y="52" on="0"/>
        <pt x="24" y="70" on="0"/>
        <pt x="43" y="98" on="0"/>
        <pt x="54" y="120" on="1"/>
        <pt x="302" y="631" on="1"/>
        <pt x="358" y="648" on="1"/>
        <pt x="366" y="649" on="1"/>
        <pt x="379" y="560" on="0"/>
        <pt x="394" y="467" on="1"/>
        <pt x="407" y="387" on="0"/>
        <pt x="439" y="198" on="0"/>
        <pt x="456" y="111" on="1"/>
        <pt x="463" y="73" on="0"/>
        <pt x="499" y="43" on="0"/>
        <pt x="540" y="39" on="1"/>
        <pt x="542" y="36" on="1"/>
        <pt x="531" y="-3" on="1"/>
        <pt x="481" y="-1" on="1"/>
        <pt x="457" y="-24" on="0"/>
        <pt x="423" y="-60" on="0"/>
        <pt x="402" y="-91" on="0"/>
        <pt x="393" y="-119" on="0"/>
        <pt x="393" y="-135" on="1"/>
        <pt x="393" y="-156" on="0"/>
        <pt x="419" y="-183" on="0"/>
        <pt x="442" y="-183" on="1"/>
        <pt x="456" y="-183" on="0"/>
        <pt x="483" y="-177" on="0"/>
        <pt x="494" y="-172" on="1"/>
        <pt x="507" y="-167" on="0"/>
        <pt x="519" y="-160" on="1"/>
      </contour>
      <contour>
        <pt x="179" y="271" on="1"/>
        <pt x="264" y="271" on="1"/>
        <pt x="284" y="271" on="0"/>
        <pt x="338" y="275" on="0"/>
        <pt x="355" y="277" on="1"/>
        <pt x="311" y="544" on="1"/>
        <pt x="304" y="544" on="1"/>
      </contour>
    </TTGlyph>
    <TTGlyph name="Aring" xMin="-45" yMin="-10" xMax="542" yMax="838">
      <component glyphName="A" x="0" y="0" flags="0x4"/>
      <component glyphName="ring.cap" x="96" y="0" flags="0x4"/>
    </TTGlyph>
    <TTGlyph name="Aringacute" xMin="-45" yMin="-10" xMax="542" yMax="942">
      <contour>
        <pt x="456" y="111" on="1"/>
        <pt x="463" y="73" on="0"/>
        <pt x="499" y="43" on="0"/>
        <pt x="540" y="39" on="1"/>
        <pt x="542" y="36" on="1"/>
        <pt x="531" y="-3" on="1"/>
        <pt x="510" y="-3" on="0"/>
        <pt x="492" y="-2" on="1"/>
        <pt x="476" y="-1" on="0"/>
        <pt x="442" y="0" on="0"/>
        <pt x="430" y="0" on="1"/>
        <pt x="402" y="0" on="0"/>
        <pt x="351" y="-3" on="0"/>
        <pt x="331" y="-5" on="1"/>
        <pt x="307" y="-8" on="0"/>
        <pt x="287" y="-10" on="1"/>
        <pt x="285" y="-3" on="1"/>
        <pt x="293" y="33" on="1"/>
        <pt x="348" y="37" on="0"/>
        <pt x="385" y="57" on="0"/>
        <pt x="385" y="83" on="1"/>
        <pt x="385" y="91" on="0"/>
        <pt x="383" y="111" on="0"/>
        <pt x="381" y="121" on="1"/>
        <pt x="363" y="234" on="1"/>
        <pt x="354" y="234" on="0"/>
        <pt x="328" y="235" on="0"/>
        <pt x="300" y="235" on="0"/>
        <pt x="273" y="235" on="0"/>
        <pt x="263" y="235" on="1"/>
        <pt x="234" y="235" on="0"/>
        <pt x="174" y="229" on="0"/>
        <pt x="156" y="227" on="1"/>
        <pt x="107" y="119" on="1"/>
        <pt x="93" y="90" on="0"/>
        <pt x="93" y="73" on="1"/>
        <pt x="93" y="37" on="0"/>
        <pt x="146" y="37" on="1"/>
        <pt x="202" y="37" on="1"/>
        <pt x="202" y="34" on="1"/>
        <pt x="192" y="-7" on="1"/>
        <pt x="172" y="-6" on="0"/>
        <pt x="150" y="-4" on="1"/>
        <pt x="131" y="-2" on="0"/>
        <pt x="84" y="0" on="0"/>
        <pt x="60" y="0" on="1"/>
        <pt x="43" y="0" on="0"/>
        <pt x="7" y="-1" on="0"/>
        <pt x="-9" y="-2" on="1"/>
        <pt x="-27" y="-3" on="0"/>
        <pt x="-45" y="-3" on="1"/>
        <pt x="-32" y="42" on="1"/>
        <pt x="-18" y="43" on="0"/>
        <pt x="4" y="52" on="0"/>
        <pt x="24" y="70" on="0"/>
        <pt x="43" y="98" on="0"/>
        <pt x="54" y="120" on="1"/>
        <pt x="302" y="631" on="1"/>
        <pt x="358" y="648" on="1"/>
        <pt x="366" y="649" on="1"/>
        <pt x="379" y="560" on="0"/>
        <pt x="394" y="467" on="1"/>
        <pt x="407" y="387" on="0"/>
        <pt x="439" y="198" on="0"/>
      </contour>
      <contour>
        <pt x="179" y="271" on="1"/>
        <pt x="264" y="271" on="1"/>
        <pt x="284" y="271" on="0"/>
        <pt x="338" y="275" on="0"/>
        <pt x="355" y="277" on="1"/>
        <pt x="311" y="544" on="1"/>
        <pt x="304" y="544" on="1"/>
      </contour>
      <contour>
        <pt x="355" y="704" on="1"/>
        <pt x="361" y="704" on="0"/>
        <pt x="375" y="706" on="0"/>
        <pt x="389" y="715" on="0"/>
        <pt x="398" y="730" on="0"/>
        <pt x="398" y="744" on="1"/>
        <pt x="398" y="761" on="0"/>
        <pt x="378" y="782" on="0"/>
        <pt x="358" y="782" on="1"/>
        <pt x="338" y="782" on="0"/>
        <pt x="316" y="760" on="0"/>
        <pt x="316" y="741" on="1"/>
        <pt x="316" y="721" on="0"/>
        <pt x="343" y="704" on="0"/>
      </contour>
      <contour>
        <pt x="345" y="669" on="1"/>
        <pt x="316" y="669" on="0"/>
        <pt x="286" y="704" on="0"/>
        <pt x="286" y="731" on="1"/>
        <pt x="286" y="768" on="0"/>
        <pt x="334" y="817" on="0"/>
        <pt x="370" y="817" on="1"/>
        <pt x="402" y="817" on="0"/>
        <pt x="430" y="781" on="0"/>
        <pt x="430" y="758" on="1"/>
        <pt x="430" y="741" on="0"/>
        <pt x="418" y="709" on="0"/>
        <pt x="395" y="684" on="0"/>
        <pt x="364" y="669" on="0"/>
      </contour>
      <contour>
        <pt x="471" y="884" on="1"/>
        <pt x="445" y="875" on="0"/>
        <pt x="414" y="864" on="1"/>
        <pt x="388" y="855" on="0"/>
        <pt x="320" y="832" on="0"/>
        <pt x="285" y="818" on="1"/>
        <pt x="278" y="822" on="1"/>
        <pt x="273" y="844" on="1"/>
        <pt x="305" y="861" on="0"/>
        <pt x="368" y="895" on="0"/>
        <pt x="394" y="909" on="1"/>
        <pt x="424" y="926" on="0"/>
        <pt x="452" y="942" on="1"/>
        <pt x="460" y="936" on="1"/>
        <pt x="474" y="893" on="1"/>
      </contour>
    </TTGlyph>
    <TTGlyph name="Atilde" xMin="-45" yMin="-10" xMax="542" yMax="820">
      <component glyphName="A" x="0" y="0" flags="0x4"/>
      <component glyphName="tilde.cap" x="96" y="0" flags="0x4"/>
    </TTGlyph>
    <TTGlyph name="B" xMin="29" yMin="-12" xMax="514" yMax="640">
      <contour>
        <pt x="138" y="0" on="1"/>
        <pt x="119" y="0" on="0"/>
        <pt x="81" y="-4" on="0"/>
        <pt x="65" y="-6" on="1"/>
        <pt x="47" y="-9" on="0"/>
        <pt x="29" y="-12" on="1"/>
        <pt x="39" y="31" on="1"/>
        <pt x="62" y="35" on="0"/>
        <pt x="93" y="48" on="0"/>
        <pt x="113" y="67" on="0"/>
        <pt x="123" y="97" on="0"/>
        <pt x="126" y="118" on="1"/>
        <pt x="178" y="542" on="1"/>
        <pt x="182" y="574" on="0"/>
        <pt x="171" y="596" on="0"/>
        <pt x="149" y="596" on="1"/>
        <pt x="144" y="596" on="0"/>
        <pt x="134" y="595" on="0"/>
        <pt x="129" y="595" on="1"/>
        <pt x="123" y="594" on="0"/>
        <pt x="117" y="594" on="1"/>
        <pt x="115" y="598" on="1"/>
        <pt x="127" y="639" on="1"/>
        <pt x="146" y="638" on="0"/>
        <pt x="165" y="637" on="1"/>
        <pt x="181" y="636" on="0"/>
        <pt x="217" y="636" on="0"/>
        <pt x="231" y="636" on="1"/>
        <pt x="244" y="636" on="0"/>
        <pt x="279" y="637" on="0"/>
        <pt x="295" y="638" on="1"/>
        <pt x="313" y="639" on="0"/>
        <pt x="333" y="640" on="1"/>
        <pt x="417" y="640" on="0"/>
        <pt x="514" y="572" on="0"/>
        <pt x="514" y="508" on="1"/>
        <pt x="514" y="450" on="0"/>
        <pt x="443" y="361" on="0"/>
        <pt x="381" y="335" on="1"/>
        <pt x="444" y="321" on="0"/>
        <pt x="514" y="247" on="0"/>
        <pt x="514" y="196" on="1"/>
        <pt x="514" y="155" on="0"/>
        <pt x="475" y="81" on="0"/>
        <pt x="409" y="24" on="0"/>
        <pt x="322" y="-10" on="0"/>
        <pt x="275" y="-10" on="1"/>
        <pt x="243" y="-10" on="0"/>
        <pt x="175" y="0" on="0"/>
      </contour>
      <contour>
        <pt x="216" y="300" on="1"/>
        <pt x="188" y="108" on="1"/>
        <pt x="183" y="69" on="0"/>
        <pt x="230" y="37" on="0"/>
        <pt x="291" y="37" on="1"/>
        <pt x="356" y="37" on="0"/>
        <pt x="433" y="115" on="0"/>
        <pt x="433" y="180" on="1"/>
        <pt x="433" y="229" on="0"/>
        <pt x="375" y="291" on="0"/>
        <pt x="316" y="302" on="1"/>
      </contour>
      <contour>
        <pt x="223" y="349" on="1"/>
        <pt x="249" y="347" on="0"/>
        <pt x="271" y="345" on="1"/>
        <pt x="290" y="343" on="0"/>
        <pt x="323" y="341" on="0"/>
        <pt x="328" y="341" on="1"/>
        <pt x="358" y="350" on="0"/>
        <pt x="382" y="369" on="1"/>
        <pt x="402" y="386" on="0"/>
        <pt x="437" y="443" on="0"/>
        <pt x="437" y="491" on="1"/>
        <pt x="437" y="548" on="0"/>
        <pt x="361" y="602" on="0"/>
        <pt x="281" y="602" on="1"/>
        <pt x="270" y="602" on="0"/>
        <pt x="263" y="593" on="0"/>
        <pt x="260" y="579" on="1"/>
        <pt x="252" y="528" on="0"/>
        <pt x="233" y="415" on="0"/>
      </contour>
    </TTGlyph>
    <TTGlyph name="C" xMin="45" yMin="-12" xMax="593" yMax="648">
      <contour>
        <pt x="307" y="-12" on="1"/>
        <pt x="248" y="-12" on="0"/>
        <pt x="152" y="25" on="0"/>
        <pt x="83" y="94" on="0"/>
        <pt x="45" y="192" on="0"/>
        <pt x="45" y="253" on="1"/>
        <pt x="45" y="337" on="0"/>
        <pt x="102" y="481" on="0"/>
        <pt x="202" y="588" on="0"/>
        <pt x="338" y="648" on="0"/>
        <pt x="417" y="648" on="1"/>
        <pt x="446" y="648" on="0"/>
        <pt x="508" y="641" on="0"/>
        <pt x="533" y="636" on="1"/>
        <pt x="562" y="631" on="0"/>
        <pt x="590" y="625" on="1"/>
        <pt x="593" y="619" on="1"/>
        <pt x="585" y="597" on="0"/>
        <pt x="577" y="571" on="1"/>
        <pt x="570" y="548" on="0"/>
        <pt x="554" y="489" on="0"/>
        <pt x="548" y="455" on="1"/>
        <pt x="505" y="451" on="1"/>
        <pt x="507" y="462" on="0"/>
        <pt x="509" y="473" on="1"/>
        <pt x="511" y="482" on="0"/>
        <pt x="514" y="502" on="0"/>
        <pt x="514" y="510" on="1"/>
        <pt x="514" y="594" on="0"/>
        <pt x="383" y="594" on="1"/>
        <pt x="328" y="594" on="0"/>
        <pt x="236" y="549" on="0"/>
        <pt x="169" y="467" on="0"/>
        <pt x="132" y="352" on="0"/>
        <pt x="132" y="282" on="1"/>
        <pt x="132" y="226" on="0"/>
        <pt x="158" y="134" on="0"/>
        <pt x="207" y="69" on="0"/>
        <pt x="277" y="33" on="0"/>
        <pt x="322" y="33" on="1"/>
        <pt x="388" y="33" on="0"/>
        <pt x="479" y="111" on="0"/>
        <pt x="508" y="193" on="1"/>
        <pt x="551" y="197" on="1"/>
        <pt x="543" y="170" on="0"/>
        <pt x="534" y="143" on="1"/>
        <pt x="526" y="120" on="0"/>
        <pt x="510" y="63" on="0"/>
        <pt x="505" y="37" on="1"/>
        <pt x="499" y="28" on="1"/>
        <pt x="476" y="17" on="0"/>
        <pt x="446" y="8" on="1"/>
        <pt x="420" y="0" on="0"/>
        <pt x="350" y="-12" on="0"/>
      </contour>
    </TTGlyph>
    <TTGlyph name="Cacute" xMin="45" yMin="-12" xMax="593" yMax="841">
      <component glyphName="C" x="0" y="0" flags="0x4"/>
      <component glyphName="acute.cap" x="150" y="0" flags="0x4"/>
    </TTGlyph>
    <TTGlyph name="Ccaron" xMin="45" yMin="-12" xMax="593" yMax="838">
      <component glyphName="C" x="0" y="0" flags="0x4"/>
      <component glyphName="caron.cap" x="160" y="0" flags="0x4"/>
    </TTGlyph>
    <TTGlyph name="Ccedilla" xMin="45" yMin="-233" xMax="593" yMax="648">
      <contour>
        <pt x="284" y="-11" on="1"/>
        <pt x="230" y="-8" on="0"/>
        <pt x="142" y="32" on="0"/>
        <pt x="79" y="101" on="0"/>
        <pt x="45" y="195" on="0"/>
        <pt x="45" y="253" on="1"/>
        <pt x="45" y="337" on="0"/>
        <pt x="102" y="481" on="0"/>
        <pt x="202" y="588" on="0"/>
        <pt x="338" y="648" on="0"/>
        <pt x="417" y="648" on="1"/>
        <pt x="446" y="648" on="0"/>
        <pt x="508" y="641" on="0"/>
        <pt x="533" y="636" on="1"/>
        <pt x="562" y="631" on="0"/>
        <pt x="590" y="625" on="1"/>
        <pt x="593" y="619" on="1"/>
        <pt x="585" y="597" on="0"/>
        <pt x="577" y="571" on="1"/>
        <pt x="570" y="548" on="0"/>
        <pt x="554" y="489" on="0"/>
        <pt x="548" y="455" on="1"/>
        <pt x="505" y="451" on="1"/>
        <pt x="507" y="462" on="0"/>
        <pt x="509" y="473" on="1"/>
        <pt x="511" y="482" on="0"/>
        <pt x="514" y="502" on="0"/>
        <pt x="514" y="510" on="1"/>
        <pt x="514" y="594" on="0"/>
        <pt x="383" y="594" on="1"/>
        <pt x="328" y="594" on="0"/>
        <pt x="236" y="549" on="0"/>
        <pt x="169" y="467" on="0"/>
        <pt x="132" y="352" on="0"/>
        <pt x="132" y="282" on="1"/>
        <pt x="132" y="226" on="0"/>
        <pt x="158" y="134" on="0"/>
        <pt x="207" y="69" on="0"/>
        <pt x="277" y="33" on="0"/>
        <pt x="322" y="33" on="1"/>
        <pt x="388" y="33" on="0"/>
        <pt x="479" y="111" on="0"/>
        <pt x="508" y="193" on="1"/>
        <pt x="551" y="197" on="1"/>
        <pt x="543" y="170" on="0"/>
        <pt x="534" y="143" on="1"/>
        <pt x="526" y="120" on="0"/>
        <pt x="510" y="63" on="0"/>
        <pt x="505" y="37" on="1"/>
        <pt x="499" y="28" on="1"/>
        <pt x="477" y="18" on="0"/>
        <pt x="451" y="10" on="1"/>
        <pt x="428" y="3" on="0"/>
        <pt x="364" y="-9" on="0"/>
        <pt x="325" y="-11" on="1"/>
        <pt x="308" y="-50" on="1"/>
        <pt x="318" y="-58" on="0"/>
        <pt x="344" y="-77" on="0"/>
        <pt x="365" y="-98" on="0"/>
        <pt x="380" y="-122" on="0"/>
        <pt x="380" y="-135" on="1"/>
        <pt x="380" y="-155" on="0"/>
        <pt x="356" y="-190" on="0"/>
        <pt x="318" y="-217" on="0"/>
        <pt x="273" y="-233" on="0"/>
        <pt x="252" y="-233" on="1"/>
        <pt x="231" y="-233" on="0"/>
        <pt x="190" y="-216" on="0"/>
        <pt x="190" y="-199" on="1"/>
        <pt x="190" y="-189" on="0"/>
        <pt x="212" y="-154" on="0"/>
        <pt x="222" y="-141" on="1"/>
        <pt x="230" y="-141" on="1"/>
        <pt x="228" y="-169" on="0"/>
        <pt x="253" y="-198" on="0"/>
        <pt x="276" y="-198" on="1"/>
        <pt x="296" y="-198" on="0"/>
        <pt x="327" y="-175" on="0"/>
        <pt x="327" y="-158" on="1"/>
        <pt x="327" y="-149" on="0"/>
        <pt x="314" y="-131" on="0"/>
        <pt x="293" y="-112" on="0"/>
        <pt x="267" y="-93" on="0"/>
        <pt x="254" y="-85" on="1"/>
      </contour>
    </TTGlyph>
    <TTGlyph name="Ccircumflex" xMin="45" yMin="-12" xMax="593" yMax="846">
      <component glyphName="C" x="0" y="0" flags="0x4"/>
      <component glyphName="circumflex.cap" x="147" y="0" flags="0x4"/>
    </TTGlyph>
    <TTGlyph name="Cdotaccent" xMin="45" yMin="-12" xMax="593" yMax="829">
      <component glyphName="C" x="0" y="0" flags="0x4"/>
      <component glyphName="dotaccent.cap" x="159" y="0" flags="0x4"/>
    </TTGlyph>
    <TTGlyph name="D" xMin="28" yMin="-12" xMax="653" yMax="640">
      <contour>
        <pt x="286" y="-12" on="1"/>
        <pt x="257" y="-9" on="0"/>
        <pt x="231" y="-6" on="1"/>
        <pt x="208" y="-4" on="0"/>
        <pt x="158" y="0" on="0"/>
        <pt x="140" y="0" on="1"/>
        <pt x="122" y="0" on="0"/>
        <pt x="83" y="-4" on="0"/>
        <pt x="66" y="-6" on="1"/>
        <pt x="47" y="-9" on="0"/>
        <pt x="28" y="-12" on="1"/>
        <pt x="39" y="31" on="1"/>
        <pt x="85" y="40" on="0"/>
        <pt x="121" y="75" on="0"/>
        <pt x="126" y="117" on="1"/>
        <pt x="178" y="542" on="1"/>
        <pt x="182" y="574" on="0"/>
        <pt x="171" y="596" on="0"/>
        <pt x="150" y="596" on="1"/>
        <pt x="145" y="596" on="0"/>
        <pt x="133" y="595" on="0"/>
        <pt x="128" y="595" on="1"/>
        <pt x="122" y="594" on="0"/>
        <pt x="116" y="594" on="1"/>
        <pt x="115" y="598" on="1"/>
        <pt x="126" y="639" on="1"/>
        <pt x="144" y="638" on="0"/>
        <pt x="162" y="637" on="1"/>
        <pt x="177" y="636" on="0"/>
        <pt x="212" y="636" on="0"/>
        <pt x="226" y="636" on="1"/>
        <pt x="243" y="636" on="0"/>
        <pt x="288" y="637" on="0"/>
        <pt x="310" y="638" on="1"/>
        <pt x="335" y="639" on="0"/>
        <pt x="362" y="640" on="1"/>
        <pt x="426" y="640" on="0"/>
        <pt x="533" y="602" on="0"/>
        <pt x="610" y="532" on="0"/>
        <pt x="653" y="435" on="0"/>
        <pt x="653" y="376" on="1"/>
        <pt x="653" y="297" on="0"/>
        <pt x="595" y="156" on="0"/>
        <pt x="495" y="50" on="0"/>
        <pt x="361" y="-12" on="0"/>
      </contour>
      <contour>
        <pt x="298" y="596" on="1"/>
        <pt x="278" y="596" on="0"/>
        <pt x="264" y="588" on="0"/>
        <pt x="262" y="574" on="1"/>
        <pt x="229" y="366" on="0"/>
        <pt x="191" y="134" on="0"/>
        <pt x="191" y="107" on="1"/>
        <pt x="191" y="86" on="0"/>
        <pt x="202" y="58" on="0"/>
        <pt x="229" y="41" on="0"/>
        <pt x="273" y="35" on="0"/>
        <pt x="305" y="35" on="1"/>
        <pt x="364" y="35" on="0"/>
        <pt x="461" y="82" on="0"/>
        <pt x="530" y="167" on="0"/>
        <pt x="567" y="285" on="0"/>
        <pt x="567" y="356" on="1"/>
        <pt x="567" y="471" on="0"/>
        <pt x="430" y="596" on="0"/>
      </contour>
    </TTGlyph>
    <TTGlyph name="Dcaron" xMin="28" yMin="-12" xMax="653" yMax="838">
      <component glyphName="D" x="0" y="0" flags="0x4"/>
      <component glyphName="caron.cap" x="132" y="0" flags="0x4"/>
    </TTGlyph>
    <TTGlyph name="Dcroat" xMin="20" yMin="-12" xMax="663" yMax="640">
      <contour>
        <pt x="296" y="-12" on="1"/>
        <pt x="267" y="-9" on="0"/>
        <pt x="241" y="-6" on="1"/>
        <pt x="218" y="-4" on="0"/>
        <pt x="168" y="0" on="0"/>
        <pt x="150" y="0" on="1"/>
        <pt x="132" y="0" on="0"/>
        <pt x="93" y="-4" on="0"/>
        <pt x="76" y="-6" on="1"/>
        <pt x="57" y="-9" on="0"/>
        <pt x="38" y="-12" on="1"/>
        <pt x="49" y="31" on="1"/>
        <pt x="95" y="40" on="0"/>
        <pt x="131" y="75" on="0"/>
        <pt x="136" y="117" on="1"/>
        <pt x="159" y="304" on="1"/>
        <pt x="26" y="304" on="1"/>
        <pt x="20" y="311" on="1"/>
        <pt x="31" y="343" on="1"/>
        <pt x="164" y="343" on="1"/>
        <pt x="188" y="542" on="1"/>
        <pt x="192" y="574" on="0"/>
        <pt x="181" y="596" on="0"/>
        <pt x="160" y="596" on="1"/>
        <pt x="155" y="596" on="0"/>
        <pt x="143" y="595" on="0"/>
        <pt x="138" y="595" on="1"/>
        <pt x="132" y="594" on="0"/>
        <pt x="126" y="594" on="1"/>
        <pt x="125" y="598" on="1"/>
        <pt x="136" y="639" on="1"/>
        <pt x="154" y="638" on="0"/>
        <pt x="172" y="637" on="1"/>
        <pt x="187" y="636" on="0"/>
        <pt x="222" y="636" on="0"/>
        <pt x="236" y="636" on="1"/>
        <pt x="253" y="636" on="0"/>
        <pt x="298" y="637" on="0"/>
        <pt x="320" y="638" on="1"/>
        <pt x="345" y="639" on="0"/>
        <pt x="372" y="640" on="1"/>
        <pt x="436" y="640" on="0"/>
        <pt x="543" y="602" on="0"/>
        <pt x="620" y="532" on="0"/>
        <pt x="663" y="435" on="0"/>
        <pt x="663" y="376" on="1"/>
        <pt x="663" y="297" on="0"/>
        <pt x="605" y="156" on="0"/>
        <pt x="505" y="50" on="0"/>
        <pt x="371" y="-12" on="0"/>
      </contour>
      <contour>
        <pt x="308" y="596" on="1"/>
        <pt x="288" y="596" on="0"/>
        <pt x="274" y="588" on="0"/>
        <pt x="272" y="574" on="1"/>
        <pt x="234" y="343" on="1"/>
        <pt x="396" y="343" on="1"/>
        <pt x="400" y="336" on="1"/>
        <pt x="390" y="304" on="1"/>
        <pt x="228" y="304" on="1"/>
        <pt x="215" y="222" on="0"/>
        <pt x="201" y="123" on="0"/>
        <pt x="201" y="107" on="1"/>
        <pt x="201" y="86" on="0"/>
        <pt x="212" y="58" on="0"/>
        <pt x="239" y="41" on="0"/>
        <pt x="283" y="35" on="0"/>
        <pt x="315" y="35" on="1"/>
        <pt x="374" y="35" on="0"/>
        <pt x="471" y="82" on="0"/>
        <pt x="540" y="167" on="0"/>
        <pt x="577" y="285" on="0"/>
        <pt x="577" y="356" on="1"/>
        <pt x="577" y="471" on="0"/>
        <pt x="440" y="596" on="0"/>
      </contour>
    </TTGlyph>
    <TTGlyph name="Delta" xMin="-18" yMin="0" xMax="464" yMax="649">
      <contour>
        <pt x="-18" y="13" on="1"/>
        <pt x="281" y="632" on="1"/>
        <pt x="349" y="649" on="1"/>
        <pt x="357" y="649" on="1"/>
        <pt x="376" y="528" on="0"/>
        <pt x="394" y="412" on="1"/>
        <pt x="402" y="362" on="0"/>
        <pt x="419" y="255" on="0"/>
        <pt x="437" y="149" on="0"/>
        <pt x="455" y="49" on="0"/>
        <pt x="464" y="7" on="1"/>
        <pt x="456" y="0" on="1"/>
        <pt x="-10" y="0" on="1"/>
      </contour>
      <contour>
        <pt x="290" y="540" on="1"/>
        <pt x="64" y="57" on="1"/>
        <pt x="373" y="57" on="1"/>
        <pt x="297" y="540" on="1"/>
      </contour>
    </TTGlyph>
    <TTGlyph name="E" xMin="29" yMin="-10" xMax="548" yMax="648">
      <contour>
        <pt x="185" y="80" on="1"/>
        <pt x="185" y="54" on="0"/>
        <pt x="215" y="41" on="0"/>
        <pt x="257" y="41" on="1"/>
        <pt x="315" y="41" on="0"/>
        <pt x="384" y="48" on="0"/>
        <pt x="426" y="74" on="0"/>
        <pt x="448" y="122" on="0"/>
        <pt x="459" y="164" on="1"/>
        <pt x="500" y="169" on="1"/>
        <pt x="502" y="164" on="1"/>
        <pt x="494" y="139" on="0"/>
        <pt x="486" y="112" on="1"/>
        <pt x="479" y="89" on="0"/>
        <pt x="462" y="30" on="0"/>
        <pt x="455" y="-2" on="1"/>
        <pt x="450" y="-7" on="1"/>
        <pt x="393" y="-6" on="0"/>
        <pt x="339" y="-4" on="1"/>
        <pt x="293" y="-2" on="0"/>
        <pt x="195" y="0" on="0"/>
        <pt x="161" y="0" on="1"/>
        <pt x="134" y="0" on="0"/>
        <pt x="86" y="-3" on="0"/>
        <pt x="68" y="-5" on="1"/>
        <pt x="47" y="-8" on="0"/>
        <pt x="29" y="-10" on="1"/>
        <pt x="40" y="33" on="1"/>
        <pt x="84" y="39" on="0"/>
        <pt x="120" y="74" on="0"/>
        <pt x="125" y="117" on="1"/>
        <pt x="178" y="542" on="1"/>
        <pt x="182" y="574" on="0"/>
        <pt x="171" y="596" on="0"/>
        <pt x="149" y="596" on="1"/>
        <pt x="144" y="596" on="0"/>
        <pt x="133" y="595" on="0"/>
        <pt x="128" y="595" on="1"/>
        <pt x="122" y="594" on="0"/>
        <pt x="116" y="594" on="1"/>
        <pt x="115" y="597" on="1"/>
        <pt x="126" y="639" on="1"/>
        <pt x="147" y="638" on="0"/>
        <pt x="170" y="637" on="1"/>
        <pt x="190" y="636" on="0"/>
        <pt x="235" y="636" on="0"/>
        <pt x="257" y="636" on="1"/>
        <pt x="315" y="636" on="0"/>
        <pt x="401" y="637" on="0"/>
        <pt x="469" y="640" on="0"/>
        <pt x="522" y="645" on="0"/>
        <pt x="546" y="648" on="1"/>
        <pt x="548" y="643" on="1"/>
        <pt x="540" y="621" on="0"/>
        <pt x="533" y="595" on="1"/>
        <pt x="527" y="572" on="0"/>
        <pt x="512" y="514" on="0"/>
        <pt x="506" y="479" on="1"/>
        <pt x="462" y="475" on="1"/>
        <pt x="464" y="487" on="0"/>
        <pt x="466" y="498" on="1"/>
        <pt x="468" y="508" on="0"/>
        <pt x="471" y="530" on="0"/>
        <pt x="471" y="540" on="1"/>
        <pt x="471" y="557" on="0"/>
        <pt x="460" y="577" on="0"/>
        <pt x="428" y="587" on="0"/>
        <pt x="373" y="590" on="0"/>
        <pt x="329" y="590" on="1"/>
        <pt x="305" y="590" on="0"/>
        <pt x="278" y="588" on="0"/>
        <pt x="264" y="581" on="0"/>
        <pt x="258" y="565" on="0"/>
        <pt x="256" y="551" on="1"/>
        <pt x="225" y="352" on="1"/>
        <pt x="241" y="352" on="0"/>
        <pt x="302" y="351" on="0"/>
        <pt x="324" y="351" on="1"/>
        <pt x="337" y="351" on="0"/>
        <pt x="377" y="354" on="0"/>
        <pt x="396" y="356" on="1"/>
        <pt x="418" y="359" on="0"/>
        <pt x="442" y="362" on="1"/>
        <pt x="445" y="358" on="1"/>
        <pt x="425" y="302" on="1"/>
        <pt x="401" y="302" on="0"/>
        <pt x="377" y="303" on="1"/>
        <pt x="357" y="304" on="0"/>
        <pt x="310" y="305" on="0"/>
        <pt x="290" y="305" on="1"/>
        <pt x="269" y="305" on="0"/>
        <pt x="228" y="300" on="0"/>
        <pt x="216" y="298" on="1"/>
        <pt x="204" y="213" on="0"/>
        <pt x="190" y="134" on="0"/>
        <pt x="188" y="116" on="1"/>
        <pt x="185" y="94" on="0"/>
      </contour>
    </TTGlyph>
    <TTGlyph name="Eacute" xMin="29" yMin="-10" xMax="548" yMax="841">
      <component glyphName="E" x="0" y="0" flags="0x4"/>
      <component glyphName="acute.cap" x="79" y="0" flags="0x4"/>
    </TTGlyph>
    <TTGlyph name="Ebreve" xMin="29" yMin="-10" xMax="548" yMax="818">
      <component glyphName="E" x="0" y="0" flags="0x4"/>
      <component glyphName="breve.cap" x="115" y="0" flags="0x4"/>
    </TTGlyph>
    <TTGlyph name="Ecaron" xMin="29" yMin="-10" xMax="548" yMax="838">
      <component glyphName="E" x="0" y="0" flags="0x4"/>
      <component glyphName="caron.cap" x="111" y="0" flags="0x4"/>
    </TTGlyph>
    <TTGlyph name="Ecircumflex" xMin="29" yMin="-10" xMax="548" yMax="846">
      <component glyphName="E" x="0" y="0" flags="0x4"/>
      <component glyphName="circumflex.cap" x="111" y="0" flags="0x4"/>
    </TTGlyph>
    <TTGlyph name="Edieresis" xMin="29" yMin="-10" xMax="548" yMax="818">
      <component glyphName="E" x="0" y="0" flags="0x4"/>
      <component glyphName="dieresis.cap" x="111" y="0" flags="0x4"/>
    </TTGlyph>
    <TTGlyph name="Edotaccent" xMin="29" yMin="-10" xMax="548" yMax="829">
      <component glyphName="E" x="0" y="0" flags="0x4"/>
      <component glyphName="dotaccent.cap" x="111" y="0" flags="0x4"/>
    </TTGlyph>
    <TTGlyph name="Egrave" xMin="29" yMin="-10" xMax="548" yMax="841">
      <component glyphName="E" x="0" y="0" flags="0x4"/>
      <component glyphName="grave.cap" x="108" y="0" flags="0x4"/>
    </TTGlyph>
    <TTGlyph name="Emacron" xMin="29" yMin="-10" xMax="548" yMax="788">
      <component glyphName="E" x="0" y="0" flags="0x4"/>
      <component glyphName="macron.cap" x="110" y="0" flags="0x4"/>
    </TTGlyph>
    <TTGlyph name="Eng" xMin="32" yMin="-154" xMax="712" yMax="645">
      <contour>
        <pt x="189" y="637" on="1"/>
        <pt x="194" y="637" on="0"/>
        <pt x="218" y="638" on="0"/>
        <pt x="230" y="639" on="1"/>
        <pt x="244" y="640" on="0"/>
        <pt x="260" y="641" on="1"/>
        <pt x="280" y="599" on="0"/>
        <pt x="323" y="513" on="0"/>
        <pt x="367" y="427" on="0"/>
        <pt x="410" y="346" on="0"/>
        <pt x="429" y="310" on="1"/>
        <pt x="474" y="226" on="0"/>
        <pt x="518" y="145" on="1"/>
        <pt x="523" y="145" on="1"/>
        <pt x="573" y="550" on="1"/>
        <pt x="577" y="593" on="0"/>
        <pt x="546" y="593" on="1"/>
        <pt x="539" y="593" on="0"/>
        <pt x="527" y="592" on="0"/>
        <pt x="522" y="592" on="1"/>
        <pt x="510" y="592" on="1"/>
        <pt x="508" y="596" on="1"/>
        <pt x="523" y="641" on="1"/>
        <pt x="540" y="640" on="0"/>
        <pt x="557" y="639" on="1"/>
        <pt x="571" y="638" on="0"/>
        <pt x="603" y="637" on="0"/>
        <pt x="615" y="637" on="1"/>
        <pt x="630" y="637" on="0"/>
        <pt x="665" y="639" on="0"/>
        <pt x="679" y="641" on="1"/>
        <pt x="696" y="643" on="0"/>
        <pt x="712" y="645" on="1"/>
        <pt x="702" y="599" on="1"/>
        <pt x="667" y="594" on="0"/>
        <pt x="634" y="565" on="0"/>
        <pt x="629" y="536" on="1"/>
        <pt x="565" y="86" on="1"/>
        <pt x="557" y="38" on="0"/>
        <pt x="527" y="-38" on="0"/>
        <pt x="480" y="-96" on="0"/>
        <pt x="412" y="-138" on="0"/>
        <pt x="367" y="-154" on="1"/>
        <pt x="354" y="-121" on="1"/>
        <pt x="358" y="-113" on="1"/>
        <pt x="412" y="-91" on="0"/>
        <pt x="473" y="-34" on="0"/>
        <pt x="490" y="8" on="1"/>
        <pt x="437" y="114" on="0"/>
        <pt x="342" y="296" on="0"/>
        <pt x="306" y="365" on="1"/>
        <pt x="264" y="445" on="0"/>
        <pt x="228" y="511" on="1"/>
        <pt x="223" y="511" on="1"/>
        <pt x="166" y="84" on="1"/>
        <pt x="163" y="61" on="0"/>
        <pt x="174" y="44" on="0"/>
        <pt x="191" y="44" on="1"/>
        <pt x="194" y="44" on="0"/>
        <pt x="210" y="44" on="0"/>
        <pt x="218" y="45" on="1"/>
        <pt x="228" y="45" on="0"/>
        <pt x="239" y="46" on="1"/>
        <pt x="241" y="42" on="1"/>
        <pt x="227" y="-4" on="1"/>
        <pt x="208" y="-3" on="0"/>
        <pt x="190" y="-2" on="1"/>
        <pt x="173" y="-1" on="0"/>
        <pt x="135" y="0" on="0"/>
        <pt x="118" y="0" on="1"/>
        <pt x="103" y="0" on="0"/>
        <pt x="73" y="-2" on="0"/>
        <pt x="60" y="-4" on="1"/>
        <pt x="45" y="-6" on="0"/>
        <pt x="32" y="-8" on="1"/>
        <pt x="43" y="38" on="1"/>
        <pt x="76" y="41" on="0"/>
        <pt x="106" y="76" on="0"/>
        <pt x="114" y="124" on="1"/>
        <pt x="176" y="538" on="1"/>
        <pt x="178" y="553" on="0"/>
        <pt x="173" y="573" on="0"/>
        <pt x="156" y="587" on="0"/>
        <pt x="125" y="596" on="0"/>
        <pt x="101" y="600" on="1"/>
        <pt x="98" y="605" on="1"/>
        <pt x="110" y="642" on="1"/>
        <pt x="127" y="640" on="0"/>
        <pt x="142" y="639" on="1"/>
        <pt x="155" y="638" on="0"/>
        <pt x="181" y="637" on="0"/>
      </contour>
    </TTGlyph>
    <TTGlyph name="Eogonek" xMin="29" yMin="-241" xMax="548" yMax="648">
      <contour>
        <pt x="457" y="-178" on="1"/>
        <pt x="442" y="-191" on="0"/>
        <pt x="424" y="-203" on="1"/>
        <pt x="409" y="-214" on="0"/>
        <pt x="372" y="-235" on="0"/>
        <pt x="353" y="-241" on="1"/>
        <pt x="310" y="-241" on="0"/>
        <pt x="257" y="-198" on="0"/>
        <pt x="257" y="-158" on="1"/>
        <pt x="257" y="-120" on="0"/>
        <pt x="316" y="-46" on="0"/>
        <pt x="361" y="-4" on="1"/>
        <pt x="337" y="-3" on="0"/>
        <pt x="282" y="-2" on="0"/>
        <pt x="229" y="-1" on="0"/>
        <pt x="180" y="0" on="0"/>
        <pt x="161" y="0" on="1"/>
        <pt x="134" y="0" on="0"/>
        <pt x="86" y="-3" on="0"/>
        <pt x="68" y="-5" on="1"/>
        <pt x="47" y="-8" on="0"/>
        <pt x="29" y="-10" on="1"/>
        <pt x="40" y="33" on="1"/>
        <pt x="84" y="39" on="0"/>
        <pt x="120" y="74" on="0"/>
        <pt x="125" y="117" on="1"/>
        <pt x="178" y="542" on="1"/>
        <pt x="182" y="574" on="0"/>
        <pt x="171" y="596" on="0"/>
        <pt x="149" y="596" on="1"/>
        <pt x="144" y="596" on="0"/>
        <pt x="133" y="595" on="0"/>
        <pt x="128" y="595" on="1"/>
        <pt x="122" y="594" on="0"/>
        <pt x="116" y="594" on="1"/>
        <pt x="115" y="597" on="1"/>
        <pt x="126" y="639" on="1"/>
        <pt x="147" y="638" on="0"/>
        <pt x="170" y="637" on="1"/>
        <pt x="190" y="636" on="0"/>
        <pt x="235" y="636" on="0"/>
        <pt x="257" y="636" on="1"/>
        <pt x="315" y="636" on="0"/>
        <pt x="401" y="637" on="0"/>
        <pt x="469" y="640" on="0"/>
        <pt x="522" y="645" on="0"/>
        <pt x="546" y="648" on="1"/>
        <pt x="548" y="643" on="1"/>
        <pt x="540" y="621" on="0"/>
        <pt x="533" y="595" on="1"/>
        <pt x="527" y="572" on="0"/>
        <pt x="512" y="514" on="0"/>
        <pt x="506" y="479" on="1"/>
        <pt x="462" y="475" on="1"/>
        <pt x="464" y="487" on="0"/>
        <pt x="466" y="498" on="1"/>
        <pt x="468" y="508" on="0"/>
        <pt x="471" y="530" on="0"/>
        <pt x="471" y="540" on="1"/>
        <pt x="471" y="557" on="0"/>
        <pt x="460" y="577" on="0"/>
        <pt x="428" y="587" on="0"/>
        <pt x="373" y="590" on="0"/>
        <pt x="329" y="590" on="1"/>
        <pt x="305" y="590" on="0"/>
        <pt x="278" y="588" on="0"/>
        <pt x="264" y="581" on="0"/>
        <pt x="258" y="565" on="0"/>
        <pt x="256" y="551" on="1"/>
        <pt x="225" y="352" on="1"/>
        <pt x="241" y="352" on="0"/>
        <pt x="302" y="351" on="0"/>
        <pt x="324" y="351" on="1"/>
        <pt x="337" y="351" on="0"/>
        <pt x="377" y="354" on="0"/>
        <pt x="396" y="356" on="1"/>
        <pt x="418" y="359" on="0"/>
        <pt x="442" y="362" on="1"/>
        <pt x="445" y="358" on="1"/>
        <pt x="425" y="302" on="1"/>
        <pt x="401" y="302" on="0"/>
        <pt x="377" y="303" on="1"/>
        <pt x="357" y="304" on="0"/>
        <pt x="310" y="305" on="0"/>
        <pt x="290" y="305" on="1"/>
        <pt x="269" y="305" on="0"/>
        <pt x="228" y="300" on="0"/>
        <pt x="216" y="298" on="1"/>
        <pt x="204" y="213" on="0"/>
        <pt x="190" y="135" on="0"/>
        <pt x="188" y="116" on="1"/>
        <pt x="185" y="94" on="0"/>
        <pt x="185" y="80" on="1"/>
        <pt x="185" y="54" on="0"/>
        <pt x="215" y="41" on="0"/>
        <pt x="257" y="41" on="1"/>
        <pt x="315" y="41" on="0"/>
        <pt x="384" y="48" on="0"/>
        <pt x="426" y="74" on="0"/>
        <pt x="448" y="122" on="0"/>
        <pt x="459" y="164" on="1"/>
        <pt x="500" y="169" on="1"/>
        <pt x="502" y="164" on="1"/>
        <pt x="494" y="139" on="0"/>
        <pt x="486" y="112" on="1"/>
        <pt x="479" y="89" on="0"/>
        <pt x="462" y="30" on="0"/>
        <pt x="455" y="-2" on="1"/>
        <pt x="450" y="-7" on="1"/>
        <pt x="444" y="-6" on="0"/>
        <pt x="437" y="-6" on="1"/>
        <pt x="431" y="-6" on="0"/>
        <pt x="414" y="-6" on="0"/>
        <pt x="403" y="-5" on="1"/>
        <pt x="380" y="-27" on="0"/>
        <pt x="349" y="-61" on="0"/>
        <pt x="330" y="-91" on="0"/>
        <pt x="321" y="-119" on="0"/>
        <pt x="321" y="-134" on="1"/>
        <pt x="321" y="-155" on="0"/>
        <pt x="347" y="-182" on="0"/>
        <pt x="370" y="-182" on="1"/>
        <pt x="384" y="-182" on="0"/>
        <pt x="411" y="-176" on="0"/>
        <pt x="422" y="-171" on="1"/>
        <pt x="435" y="-166" on="0"/>
        <pt x="447" y="-159" on="1"/>
      </contour>
    </TTGlyph>
    <TTGlyph name="Eth" xMin="20" yMin="-12" xMax="663" yMax="640">
      <contour>
        <pt x="296" y="-12" on="1"/>
        <pt x="267" y="-9" on="0"/>
        <pt x="241" y="-6" on="1"/>
        <pt x="218" y="-4" on="0"/>
        <pt x="168" y="0" on="0"/>
        <pt x="150" y="0" on="1"/>
        <pt x="132" y="0" on="0"/>
        <pt x="93" y="-4" on="0"/>
        <pt x="76" y="-6" on="1"/>
        <pt x="57" y="-9" on="0"/>
        <pt x="38" y="-12" on="1"/>
        <pt x="49" y="31" on="1"/>
        <pt x="95" y="40" on="0"/>
        <pt x="131" y="75" on="0"/>
        <pt x="136" y="117" on="1"/>
        <pt x="159" y="304" on="1"/>
        <pt x="26" y="304" on="1"/>
        <pt x="20" y="311" on="1"/>
        <pt x="31" y="343" on="1"/>
        <pt x="164" y="343" on="1"/>
        <pt x="188" y="542" on="1"/>
        <pt x="192" y="574" on="0"/>
        <pt x="181" y="596" on="0"/>
        <pt x="160" y="596" on="1"/>
        <pt x="155" y="596" on="0"/>
        <pt x="143" y="595" on="0"/>
        <pt x="138" y="595" on="1"/>
        <pt x="132" y="594" on="0"/>
        <pt x="126" y="594" on="1"/>
        <pt x="125" y="598" on="1"/>
        <pt x="136" y="639" on="1"/>
        <pt x="154" y="638" on="0"/>
        <pt x="172" y="637" on="1"/>
        <pt x="187" y="636" on="0"/>
        <pt x="222" y="636" on="0"/>
        <pt x="236" y="636" on="1"/>
        <pt x="253" y="636" on="0"/>
        <pt x="298" y="637" on="0"/>
        <pt x="320" y="638" on="1"/>
        <pt x="345" y="639" on="0"/>
        <pt x="372" y="640" on="1"/>
        <pt x="436" y="640" on="0"/>
        <pt x="543" y="602" on="0"/>
        <pt x="620" y="532" on="0"/>
        <pt x="663" y="435" on="0"/>
        <pt x="663" y="376" on="1"/>
        <pt x="663" y="297" on="0"/>
        <pt x="605" y="156" on="0"/>
        <pt x="505" y="50" on="0"/>
        <pt x="371" y="-12" on="0"/>
      </contour>
      <contour>
        <pt x="308" y="596" on="1"/>
        <pt x="288" y="596" on="0"/>
        <pt x="274" y="588" on="0"/>
        <pt x="272" y="574" on="1"/>
        <pt x="234" y="343" on="1"/>
        <pt x="396" y="343" on="1"/>
        <pt x="400" y="336" on="1"/>
        <pt x="390" y="304" on="1"/>
        <pt x="228" y="304" on="1"/>
        <pt x="215" y="222" on="0"/>
        <pt x="201" y="123" on="0"/>
        <pt x="201" y="107" on="1"/>
        <pt x="201" y="86" on="0"/>
        <pt x="212" y="58" on="0"/>
        <pt x="239" y="41" on="0"/>
        <pt x="283" y="35" on="0"/>
        <pt x="315" y="35" on="1"/>
        <pt x="374" y="35" on="0"/>
        <pt x="471" y="82" on="0"/>
        <pt x="540" y="167" on="0"/>
        <pt x="577" y="285" on="0"/>
        <pt x="577" y="356" on="1"/>
        <pt x="577" y="471" on="0"/>
        <pt x="440" y="596" on="0"/>
      </contour>
    </TTGlyph>
    <TTGlyph name="Euro" xMin="4" yMin="-9" xMax="538" yMax="507">
      <contour>
        <pt x="357" y="201" on="1"/>
        <pt x="350" y="171" on="1"/>
        <pt x="175" y="170" on="1"/>
        <pt x="186" y="107" on="0"/>
        <pt x="258" y="37" on="0"/>
        <pt x="316" y="37" on="1"/>
        <pt x="367" y="37" on="0"/>
        <pt x="436" y="94" on="0"/>
        <pt x="458" y="157" on="1"/>
        <pt x="504" y="161" on="1"/>
        <pt x="496" y="140" on="0"/>
        <pt x="490" y="117" on="1"/>
        <pt x="484" y="97" on="0"/>
        <pt x="473" y="51" on="0"/>
        <pt x="468" y="30" on="1"/>
        <pt x="462" y="22" on="1"/>
        <pt x="443" y="13" on="0"/>
        <pt x="418" y="6" on="1"/>
        <pt x="397" y="0" on="0"/>
        <pt x="337" y="-9" on="0"/>
        <pt x="302" y="-9" on="1"/>
        <pt x="211" y="-9" on="0"/>
        <pt x="97" y="86" on="0"/>
        <pt x="87" y="170" on="1"/>
        <pt x="8" y="170" on="1"/>
        <pt x="4" y="177" on="1"/>
        <pt x="12" y="206" on="1"/>
        <pt x="86" y="206" on="1"/>
        <pt x="86" y="226" on="0"/>
        <pt x="91" y="266" on="0"/>
        <pt x="96" y="285" on="1"/>
        <pt x="22" y="285" on="1"/>
        <pt x="18" y="292" on="1"/>
        <pt x="26" y="321" on="1"/>
        <pt x="108" y="321" on="1"/>
        <pt x="124" y="363" on="0"/>
        <pt x="179" y="432" on="0"/>
        <pt x="251" y="480" on="0"/>
        <pt x="339" y="507" on="0"/>
        <pt x="389" y="507" on="1"/>
        <pt x="413" y="507" on="0"/>
        <pt x="465" y="501" on="0"/>
        <pt x="486" y="497" on="1"/>
        <pt x="511" y="493" on="0"/>
        <pt x="535" y="488" on="1"/>
        <pt x="538" y="482" on="1"/>
        <pt x="531" y="464" on="0"/>
        <pt x="525" y="443" on="1"/>
        <pt x="519" y="425" on="0"/>
        <pt x="506" y="376" on="0"/>
        <pt x="501" y="348" on="1"/>
        <pt x="455" y="344" on="1"/>
        <pt x="456" y="353" on="0"/>
        <pt x="458" y="362" on="1"/>
        <pt x="460" y="370" on="0"/>
        <pt x="462" y="386" on="0"/>
        <pt x="462" y="392" on="1"/>
        <pt x="462" y="455" on="0"/>
        <pt x="361" y="455" on="1"/>
        <pt x="298" y="455" on="0"/>
        <pt x="206" y="384" on="0"/>
        <pt x="186" y="321" on="1"/>
        <pt x="191" y="321" on="1"/>
        <pt x="366" y="325" on="1"/>
        <pt x="371" y="316" on="1"/>
        <pt x="364" y="286" on="1"/>
        <pt x="177" y="285" on="1"/>
        <pt x="171" y="255" on="0"/>
        <pt x="171" y="220" on="1"/>
        <pt x="171" y="206" on="1"/>
        <pt x="177" y="206" on="1"/>
        <pt x="352" y="210" on="1"/>
      </contour>
    </TTGlyph>
    <TTGlyph name="F" xMin="29" yMin="-12" xMax="530" yMax="648">
      <contour>
        <pt x="188" y="108" on="1"/>
        <pt x="183" y="73" on="0"/>
        <pt x="197" y="40" on="0"/>
        <pt x="222" y="40" on="1"/>
        <pt x="230" y="40" on="0"/>
        <pt x="253" y="40" on="0"/>
        <pt x="264" y="41" on="1"/>
        <pt x="277" y="42" on="0"/>
        <pt x="291" y="43" on="1"/>
        <pt x="292" y="39" on="1"/>
        <pt x="279" y="-4" on="1"/>
        <pt x="253" y="-3" on="0"/>
        <pt x="227" y="-2" on="1"/>
        <pt x="205" y="-1" on="0"/>
        <pt x="156" y="0" on="0"/>
        <pt x="137" y="0" on="1"/>
        <pt x="119" y="0" on="0"/>
        <pt x="81" y="-4" on="0"/>
        <pt x="65" y="-6" on="1"/>
        <pt x="47" y="-9" on="0"/>
        <pt x="29" y="-12" on="1"/>
        <pt x="39" y="31" on="1"/>
        <pt x="62" y="35" on="0"/>
        <pt x="93" y="48" on="0"/>
        <pt x="112" y="67" on="0"/>
        <pt x="122" y="96" on="0"/>
        <pt x="125" y="117" on="1"/>
        <pt x="178" y="542" on="1"/>
        <pt x="182" y="574" on="0"/>
        <pt x="171" y="596" on="0"/>
        <pt x="149" y="596" on="1"/>
        <pt x="144" y="596" on="0"/>
        <pt x="133" y="595" on="0"/>
        <pt x="128" y="595" on="1"/>
        <pt x="122" y="594" on="0"/>
        <pt x="116" y="594" on="1"/>
        <pt x="115" y="597" on="1"/>
        <pt x="126" y="639" on="1"/>
        <pt x="147" y="638" on="0"/>
        <pt x="170" y="637" on="1"/>
        <pt x="190" y="636" on="0"/>
        <pt x="235" y="636" on="0"/>
        <pt x="257" y="636" on="1"/>
        <pt x="306" y="636" on="0"/>
        <pt x="386" y="637" on="0"/>
        <pt x="451" y="640" on="0"/>
        <pt x="505" y="645" on="0"/>
        <pt x="528" y="648" on="1"/>
        <pt x="530" y="643" on="1"/>
        <pt x="523" y="620" on="0"/>
        <pt x="515" y="594" on="1"/>
        <pt x="508" y="571" on="0"/>
        <pt x="493" y="511" on="0"/>
        <pt x="487" y="476" on="1"/>
        <pt x="444" y="472" on="1"/>
        <pt x="446" y="484" on="0"/>
        <pt x="448" y="496" on="1"/>
        <pt x="450" y="507" on="0"/>
        <pt x="453" y="530" on="0"/>
        <pt x="453" y="541" on="1"/>
        <pt x="453" y="558" on="0"/>
        <pt x="442" y="577" on="0"/>
        <pt x="415" y="587" on="0"/>
        <pt x="366" y="590" on="0"/>
        <pt x="329" y="590" on="1"/>
        <pt x="305" y="590" on="0"/>
        <pt x="278" y="588" on="0"/>
        <pt x="264" y="581" on="0"/>
        <pt x="258" y="565" on="0"/>
        <pt x="256" y="551" on="1"/>
        <pt x="223" y="335" on="1"/>
        <pt x="322" y="334" on="1"/>
        <pt x="333" y="334" on="0"/>
        <pt x="367" y="337" on="0"/>
        <pt x="384" y="339" on="1"/>
        <pt x="403" y="342" on="0"/>
        <pt x="424" y="345" on="1"/>
        <pt x="426" y="341" on="1"/>
        <pt x="407" y="284" on="1"/>
        <pt x="385" y="284" on="0"/>
        <pt x="364" y="285" on="1"/>
        <pt x="346" y="286" on="0"/>
        <pt x="305" y="287" on="0"/>
        <pt x="288" y="287" on="1"/>
        <pt x="266" y="287" on="0"/>
        <pt x="226" y="282" on="0"/>
        <pt x="213" y="280" on="1"/>
      </contour>
    </TTGlyph>
    <TTGlyph name="G" xMin="45" yMin="-12" xMax="593" yMax="648">
      <contour>
        <pt x="307" y="-12" on="1"/>
        <pt x="248" y="-12" on="0"/>
        <pt x="152" y="25" on="0"/>
        <pt x="83" y="94" on="0"/>
        <pt x="45" y="192" on="0"/>
        <pt x="45" y="253" on="1"/>
        <pt x="45" y="337" on="0"/>
        <pt x="102" y="481" on="0"/>
        <pt x="202" y="588" on="0"/>
        <pt x="338" y="648" on="0"/>
        <pt x="417" y="648" on="1"/>
        <pt x="446" y="648" on="0"/>
        <pt x="508" y="641" on="0"/>
        <pt x="533" y="636" on="1"/>
        <pt x="562" y="631" on="0"/>
        <pt x="590" y="625" on="1"/>
        <pt x="593" y="619" on="1"/>
        <pt x="585" y="597" on="0"/>
        <pt x="577" y="571" on="1"/>
        <pt x="570" y="548" on="0"/>
        <pt x="554" y="489" on="0"/>
        <pt x="548" y="455" on="1"/>
        <pt x="505" y="451" on="1"/>
        <pt x="507" y="462" on="0"/>
        <pt x="509" y="473" on="1"/>
        <pt x="511" y="482" on="0"/>
        <pt x="514" y="502" on="0"/>
        <pt x="514" y="510" on="1"/>
        <pt x="514" y="594" on="0"/>
        <pt x="383" y="594" on="1"/>
        <pt x="328" y="594" on="0"/>
        <pt x="236" y="549" on="0"/>
        <pt x="169" y="467" on="0"/>
        <pt x="132" y="352" on="0"/>
        <pt x="132" y="282" on="1"/>
        <pt x="132" y="226" on="0"/>
        <pt x="158" y="134" on="0"/>
        <pt x="207" y="69" on="0"/>
        <pt x="277" y="33" on="0"/>
        <pt x="322" y="33" on="1"/>
        <pt x="351" y="33" on="0"/>
        <pt x="401" y="44" on="0"/>
        <pt x="419" y="52" on="1"/>
        <pt x="440" y="61" on="0"/>
        <pt x="457" y="72" on="1"/>
        <pt x="472" y="198" on="1"/>
        <pt x="476" y="232" on="0"/>
        <pt x="458" y="252" on="0"/>
        <pt x="425" y="252" on="1"/>
        <pt x="358" y="252" on="1"/>
        <pt x="357" y="256" on="1"/>
        <pt x="371" y="303" on="1"/>
        <pt x="371" y="303" on="0"/>
        <pt x="392" y="302" on="0"/>
        <pt x="427" y="300" on="0"/>
        <pt x="471" y="299" on="0"/>
        <pt x="492" y="299" on="1"/>
        <pt x="507" y="299" on="0"/>
        <pt x="537" y="300" on="0"/>
        <pt x="549" y="301" on="1"/>
        <pt x="563" y="302" on="0"/>
        <pt x="575" y="304" on="1"/>
        <pt x="576" y="284" on="1"/>
        <pt x="546" y="264" on="0"/>
        <pt x="536" y="195" on="1"/>
        <pt x="534" y="181" on="0"/>
        <pt x="529" y="145" on="0"/>
        <pt x="525" y="110" on="0"/>
        <pt x="522" y="80" on="0"/>
        <pt x="522" y="73" on="1"/>
        <pt x="522" y="55" on="1"/>
        <pt x="522" y="50" on="0"/>
        <pt x="523" y="43" on="1"/>
        <pt x="517" y="35" on="1"/>
        <pt x="490" y="22" on="0"/>
        <pt x="457" y="11" on="1"/>
        <pt x="429" y="2" on="0"/>
        <pt x="352" y="-12" on="0"/>
      </contour>
    </TTGlyph>
    <TTGlyph name="Gbreve" xMin="45" yMin="-12" xMax="593" yMax="818">
      <component glyphName="G" x="0" y="0" flags="0x204"/>
      <component glyphName="breve.cap" x="147" y="0" flags="0x4"/>
    </TTGlyph>
    <TTGlyph name="Gcircumflex" xMin="45" yMin="-12" xMax="593" yMax="846">
      <component glyphName="G" x="0" y="0" flags="0x204"/>
      <component glyphName="circumflex.cap" x="134" y="0" flags="0x4"/>
    </TTGlyph>
    <TTGlyph name="Gcommaaccent" xMin="45" yMin="-293" xMax="593" yMax="648">
      <component glyphName="G" x="0" y="0" flags="0x204"/>
      <component glyphName="commaaccent" x="148" y="0" flags="0x4"/>
    </TTGlyph>
    <TTGlyph name="Gdotaccent" xMin="45" yMin="-12" xMax="593" yMax="829">
      <component glyphName="G" x="0" y="0" flags="0x204"/>
      <component glyphName="dotaccent.cap" x="147" y="0" flags="0x4"/>
    </TTGlyph>
    <TTGlyph name="H" xMin="28" yMin="-12" xMax="711" yMax="646">
      <contour>
        <pt x="633" y="546" on="1"/>
        <pt x="622" y="477" on="0"/>
        <pt x="598" y="328" on="0"/>
        <pt x="578" y="197" on="0"/>
        <pt x="572" y="149" on="0"/>
        <pt x="565" y="100" on="0"/>
        <pt x="565" y="84" on="1"/>
        <pt x="565" y="59" on="0"/>
        <pt x="581" y="41" on="0"/>
        <pt x="601" y="41" on="1"/>
        <pt x="608" y="41" on="0"/>
        <pt x="623" y="41" on="0"/>
        <pt x="630" y="42" on="1"/>
        <pt x="638" y="43" on="0"/>
        <pt x="645" y="44" on="1"/>
        <pt x="645" y="43" on="1"/>
        <pt x="645" y="41" on="1"/>
        <pt x="632" y="-3" on="1"/>
        <pt x="609" y="-3" on="0"/>
        <pt x="588" y="-2" on="1"/>
        <pt x="569" y="-1" on="0"/>
        <pt x="529" y="0" on="0"/>
        <pt x="513" y="0" on="1"/>
        <pt x="482" y="0" on="1"/>
        <pt x="455" y="0" on="0"/>
        <pt x="407" y="-3" on="0"/>
        <pt x="407" y="-2" on="1"/>
        <pt x="420" y="41" on="1"/>
        <pt x="442" y="41" on="0"/>
        <pt x="472" y="50" on="0"/>
        <pt x="491" y="73" on="0"/>
        <pt x="503" y="115" on="0"/>
        <pt x="507" y="149" on="1"/>
        <pt x="525" y="303" on="1"/>
        <pt x="468" y="303" on="1"/>
        <pt x="445" y="303" on="0"/>
        <pt x="394" y="304" on="0"/>
        <pt x="377" y="304" on="1"/>
        <pt x="366" y="304" on="0"/>
        <pt x="313" y="300" on="0"/>
        <pt x="285" y="298" on="1"/>
        <pt x="252" y="295" on="0"/>
        <pt x="215" y="293" on="1"/>
        <pt x="198" y="173" on="1"/>
        <pt x="194" y="145" on="0"/>
        <pt x="185" y="84" on="0"/>
        <pt x="188" y="67" on="1"/>
        <pt x="190" y="52" on="0"/>
        <pt x="205" y="42" on="0"/>
        <pt x="223" y="42" on="1"/>
        <pt x="230" y="42" on="0"/>
        <pt x="245" y="42" on="0"/>
        <pt x="252" y="43" on="1"/>
        <pt x="260" y="44" on="0"/>
        <pt x="267" y="45" on="1"/>
        <pt x="267" y="44" on="0"/>
        <pt x="268" y="42" on="0"/>
        <pt x="268" y="41" on="1"/>
        <pt x="254" y="-3" on="1"/>
        <pt x="254" y="-3" on="0"/>
        <pt x="239" y="-2" on="0"/>
        <pt x="216" y="-1" on="0"/>
        <pt x="188" y="0" on="0"/>
        <pt x="176" y="0" on="1"/>
        <pt x="155" y="0" on="0"/>
        <pt x="104" y="-2" on="0"/>
        <pt x="59" y="-6" on="0"/>
        <pt x="29" y="-10" on="0"/>
        <pt x="28" y="-12" on="1"/>
        <pt x="39" y="31" on="1"/>
        <pt x="66" y="37" on="0"/>
        <pt x="99" y="52" on="0"/>
        <pt x="118" y="79" on="0"/>
        <pt x="127" y="120" on="0"/>
        <pt x="130" y="151" on="1"/>
        <pt x="178" y="542" on="1"/>
        <pt x="182" y="574" on="0"/>
        <pt x="171" y="596" on="0"/>
        <pt x="149" y="596" on="1"/>
        <pt x="144" y="596" on="0"/>
        <pt x="134" y="595" on="0"/>
        <pt x="129" y="595" on="1"/>
        <pt x="123" y="594" on="0"/>
        <pt x="117" y="594" on="1"/>
        <pt x="115" y="597" on="1"/>
        <pt x="127" y="640" on="1"/>
        <pt x="147" y="639" on="0"/>
        <pt x="166" y="638" on="1"/>
        <pt x="183" y="637" on="0"/>
        <pt x="219" y="636" on="0"/>
        <pt x="233" y="636" on="1"/>
        <pt x="248" y="636" on="0"/>
        <pt x="283" y="639" on="0"/>
        <pt x="298" y="641" on="1"/>
        <pt x="316" y="643" on="0"/>
        <pt x="333" y="646" on="1"/>
        <pt x="325" y="603" on="1"/>
        <pt x="303" y="600" on="0"/>
        <pt x="277" y="590" on="0"/>
        <pt x="262" y="571" on="0"/>
        <pt x="254" y="538" on="0"/>
        <pt x="250" y="511" on="1"/>
        <pt x="224" y="347" on="1"/>
        <pt x="265" y="347" on="0"/>
        <pt x="346" y="346" on="0"/>
        <pt x="387" y="346" on="1"/>
        <pt x="424" y="346" on="0"/>
        <pt x="488" y="351" on="0"/>
        <pt x="532" y="356" on="1"/>
        <pt x="556" y="542" on="1"/>
        <pt x="561" y="574" on="0"/>
        <pt x="548" y="596" on="0"/>
        <pt x="527" y="596" on="1"/>
        <pt x="522" y="596" on="0"/>
        <pt x="511" y="595" on="0"/>
        <pt x="506" y="595" on="1"/>
        <pt x="500" y="594" on="0"/>
        <pt x="494" y="594" on="1"/>
        <pt x="492" y="597" on="1"/>
        <pt x="505" y="640" on="1"/>
        <pt x="505" y="640" on="0"/>
        <pt x="523" y="638" on="0"/>
        <pt x="551" y="637" on="0"/>
        <pt x="583" y="636" on="0"/>
        <pt x="595" y="636" on="1"/>
        <pt x="612" y="636" on="0"/>
        <pt x="653" y="639" on="0"/>
        <pt x="670" y="641" on="1"/>
        <pt x="690" y="643" on="0"/>
        <pt x="711" y="646" on="1"/>
        <pt x="703" y="603" on="1"/>
        <pt x="666" y="598" on="0"/>
        <pt x="638" y="575" on="0"/>
      </contour>
    </TTGlyph>
    <TTGlyph name="Hbar" xMin="28" yMin="-12" xMax="725" yMax="646">
      <contour>
        <pt x="633" y="546" on="1"/>
        <pt x="631" y="534" on="0"/>
        <pt x="627" y="510" on="0"/>
        <pt x="625" y="497" on="1"/>
        <pt x="644" y="497" on="0"/>
        <pt x="675" y="498" on="0"/>
        <pt x="687" y="499" on="1"/>
        <pt x="700" y="500" on="0"/>
        <pt x="712" y="500" on="1"/>
        <pt x="725" y="487" on="1"/>
        <pt x="721" y="450" on="1"/>
        <pt x="617" y="449" on="1"/>
        <pt x="607" y="389" on="0"/>
        <pt x="589" y="269" on="0"/>
        <pt x="574" y="169" on="0"/>
        <pt x="565" y="97" on="0"/>
        <pt x="565" y="84" on="1"/>
        <pt x="565" y="59" on="0"/>
        <pt x="581" y="41" on="0"/>
        <pt x="601" y="41" on="1"/>
        <pt x="608" y="41" on="0"/>
        <pt x="623" y="41" on="0"/>
        <pt x="630" y="42" on="1"/>
        <pt x="638" y="43" on="0"/>
        <pt x="645" y="44" on="1"/>
        <pt x="645" y="43" on="1"/>
        <pt x="645" y="41" on="1"/>
        <pt x="632" y="-3" on="1"/>
        <pt x="609" y="-3" on="0"/>
        <pt x="588" y="-2" on="1"/>
        <pt x="569" y="-1" on="0"/>
        <pt x="529" y="0" on="0"/>
        <pt x="513" y="0" on="1"/>
        <pt x="482" y="0" on="1"/>
        <pt x="455" y="0" on="0"/>
        <pt x="407" y="-3" on="0"/>
        <pt x="407" y="-2" on="1"/>
        <pt x="420" y="41" on="1"/>
        <pt x="442" y="41" on="0"/>
        <pt x="472" y="50" on="0"/>
        <pt x="491" y="73" on="0"/>
        <pt x="503" y="115" on="0"/>
        <pt x="507" y="149" on="1"/>
        <pt x="525" y="303" on="1"/>
        <pt x="468" y="303" on="1"/>
        <pt x="445" y="303" on="0"/>
        <pt x="394" y="304" on="0"/>
        <pt x="377" y="304" on="1"/>
        <pt x="366" y="304" on="0"/>
        <pt x="313" y="300" on="0"/>
        <pt x="285" y="298" on="1"/>
        <pt x="252" y="295" on="0"/>
        <pt x="215" y="293" on="1"/>
        <pt x="198" y="173" on="1"/>
        <pt x="194" y="145" on="0"/>
        <pt x="185" y="84" on="0"/>
        <pt x="188" y="67" on="1"/>
        <pt x="190" y="52" on="0"/>
        <pt x="205" y="42" on="0"/>
        <pt x="223" y="42" on="1"/>
        <pt x="230" y="42" on="0"/>
        <pt x="245" y="42" on="0"/>
        <pt x="252" y="43" on="1"/>
        <pt x="260" y="44" on="0"/>
        <pt x="267" y="45" on="1"/>
        <pt x="267" y="44" on="0"/>
        <pt x="268" y="42" on="0"/>
        <pt x="268" y="41" on="1"/>
        <pt x="254" y="-3" on="1"/>
        <pt x="254" y="-3" on="0"/>
        <pt x="239" y="-2" on="0"/>
        <pt x="216" y="-1" on="0"/>
        <pt x="188" y="0" on="0"/>
        <pt x="176" y="0" on="1"/>
        <pt x="155" y="0" on="0"/>
        <pt x="104" y="-2" on="0"/>
        <pt x="59" y="-6" on="0"/>
        <pt x="29" y="-10" on="0"/>
        <pt x="28" y="-12" on="1"/>
        <pt x="39" y="31" on="1"/>
        <pt x="66" y="37" on="0"/>
        <pt x="99" y="52" on="0"/>
        <pt x="118" y="79" on="0"/>
        <pt x="127" y="120" on="0"/>
        <pt x="130" y="151" on="1"/>
        <pt x="166" y="448" on="1"/>
        <pt x="69" y="448" on="1"/>
        <pt x="60" y="457" on="1"/>
        <pt x="67" y="496" on="1"/>
        <pt x="80" y="495" on="0"/>
        <pt x="97" y="495" on="1"/>
        <pt x="172" y="495" on="1"/>
        <pt x="178" y="542" on="1"/>
        <pt x="182" y="574" on="0"/>
        <pt x="171" y="596" on="0"/>
        <pt x="149" y="596" on="1"/>
        <pt x="144" y="596" on="0"/>
        <pt x="134" y="595" on="0"/>
        <pt x="129" y="595" on="1"/>
        <pt x="123" y="594" on="0"/>
        <pt x="117" y="594" on="1"/>
        <pt x="115" y="597" on="1"/>
        <pt x="127" y="640" on="1"/>
        <pt x="147" y="639" on="0"/>
        <pt x="166" y="638" on="1"/>
        <pt x="183" y="637" on="0"/>
        <pt x="219" y="636" on="0"/>
        <pt x="233" y="636" on="1"/>
        <pt x="248" y="636" on="0"/>
        <pt x="283" y="639" on="0"/>
        <pt x="298" y="641" on="1"/>
        <pt x="316" y="643" on="0"/>
        <pt x="333" y="646" on="1"/>
        <pt x="325" y="603" on="1"/>
        <pt x="303" y="600" on="0"/>
        <pt x="277" y="590" on="0"/>
        <pt x="262" y="571" on="0"/>
        <pt x="254" y="538" on="0"/>
        <pt x="250" y="511" on="1"/>
        <pt x="247" y="495" on="1"/>
        <pt x="414" y="495" on="1"/>
        <pt x="445" y="495" on="0"/>
        <pt x="515" y="495" on="0"/>
        <pt x="550" y="496" on="1"/>
        <pt x="556" y="542" on="1"/>
        <pt x="561" y="574" on="0"/>
        <pt x="548" y="596" on="0"/>
        <pt x="527" y="596" on="1"/>
        <pt x="522" y="596" on="0"/>
        <pt x="511" y="595" on="0"/>
        <pt x="506" y="595" on="1"/>
        <pt x="500" y="594" on="0"/>
        <pt x="494" y="594" on="1"/>
        <pt x="492" y="597" on="1"/>
        <pt x="505" y="640" on="1"/>
        <pt x="505" y="640" on="0"/>
        <pt x="523" y="638" on="0"/>
        <pt x="551" y="637" on="0"/>
        <pt x="583" y="636" on="0"/>
        <pt x="595" y="636" on="1"/>
        <pt x="612" y="636" on="0"/>
        <pt x="653" y="639" on="0"/>
        <pt x="670" y="641" on="1"/>
        <pt x="690" y="643" on="0"/>
        <pt x="711" y="646" on="1"/>
        <pt x="703" y="603" on="1"/>
        <pt x="666" y="598" on="0"/>
        <pt x="638" y="575" on="0"/>
      </contour>
      <contour>
        <pt x="240" y="449" on="1"/>
        <pt x="224" y="347" on="1"/>
        <pt x="265" y="347" on="0"/>
        <pt x="346" y="346" on="0"/>
        <pt x="387" y="346" on="1"/>
        <pt x="424" y="346" on="0"/>
        <pt x="488" y="351" on="0"/>
        <pt x="532" y="356" on="1"/>
        <pt x="544" y="449" on="1"/>
        <pt x="392" y="449" on="1"/>
      </contour>
    </TTGlyph>
    <TTGlyph name="Hcircumflex" xMin="28" yMin="-12" xMax="711" yMax="846">
      <component glyphName="H" x="0" y="0" flags="0x204"/>
      <component glyphName="circumflex.cap" x="184" y="0" flags="0x4"/>
    </TTGlyph>
    <TTGlyph name="I" xMin="26" yMin="-12" xMax="342" yMax="646">
      <contour>
        <pt x="256" y="546" on="1"/>
        <pt x="244" y="478" on="0"/>
        <pt x="220" y="329" on="0"/>
        <pt x="199" y="198" on="0"/>
        <pt x="190" y="130" on="0"/>
        <pt x="188" y="116" on="1"/>
        <pt x="186" y="95" on="0"/>
        <pt x="186" y="85" on="1"/>
        <pt x="186" y="60" on="0"/>
        <pt x="203" y="42" on="0"/>
        <pt x="223" y="42" on="1"/>
        <pt x="231" y="42" on="0"/>
        <pt x="249" y="42" on="0"/>
        <pt x="257" y="43" on="1"/>
        <pt x="266" y="44" on="0"/>
        <pt x="274" y="45" on="1"/>
        <pt x="276" y="41" on="1"/>
        <pt x="262" y="-3" on="1"/>
        <pt x="239" y="-3" on="0"/>
        <pt x="217" y="-2" on="1"/>
        <pt x="197" y="-1" on="0"/>
        <pt x="154" y="0" on="0"/>
        <pt x="137" y="0" on="1"/>
        <pt x="119" y="0" on="0"/>
        <pt x="80" y="-4" on="0"/>
        <pt x="63" y="-6" on="1"/>
        <pt x="44" y="-9" on="0"/>
        <pt x="26" y="-12" on="1"/>
        <pt x="38" y="31" on="1"/>
        <pt x="61" y="35" on="0"/>
        <pt x="92" y="48" on="0"/>
        <pt x="112" y="68" on="0"/>
        <pt x="123" y="97" on="0"/>
        <pt x="126" y="118" on="1"/>
        <pt x="178" y="542" on="1"/>
        <pt x="182" y="574" on="0"/>
        <pt x="171" y="596" on="0"/>
        <pt x="149" y="596" on="1"/>
        <pt x="144" y="596" on="0"/>
        <pt x="129" y="595" on="0"/>
        <pt x="123" y="595" on="1"/>
        <pt x="115" y="594" on="0"/>
        <pt x="108" y="594" on="1"/>
        <pt x="108" y="595" on="0"/>
        <pt x="107" y="596" on="0"/>
        <pt x="107" y="597" on="1"/>
        <pt x="119" y="640" on="1"/>
        <pt x="118" y="640" on="0"/>
        <pt x="142" y="639" on="0"/>
        <pt x="178" y="637" on="0"/>
        <pt x="217" y="636" on="0"/>
        <pt x="232" y="636" on="1"/>
        <pt x="249" y="636" on="0"/>
        <pt x="286" y="639" on="0"/>
        <pt x="303" y="641" on="1"/>
        <pt x="322" y="643" on="0"/>
        <pt x="342" y="646" on="1"/>
        <pt x="332" y="603" on="1"/>
        <pt x="312" y="600" on="0"/>
        <pt x="285" y="593" on="0"/>
        <pt x="267" y="580" on="0"/>
        <pt x="258" y="560" on="0"/>
      </contour>
    </TTGlyph>
    <TTGlyph name="IJ" xMin="26" yMin="-143" xMax="663" yMax="646">
      <component glyphName="I" x="0" y="0" flags="0x4"/>
      <component glyphName="J" x="347" y="0" flags="0x4"/>
    </TTGlyph>
    <TTGlyph name="Iacute" xMin="26" yMin="-12" xMax="391" yMax="841">
      <component glyphName="I" x="0" y="0" flags="0x4"/>
      <component glyphName="acute.cap" x="-15" y="0" flags="0x4"/>
    </TTGlyph>
    <TTGlyph name="Ibreve" xMin="26" yMin="-12" xMax="362" yMax="818">
      <component glyphName="I" x="0" y="0" flags="0x4"/>
      <component glyphName="breve.cap" x="-18" y="0" flags="0x4"/>
    </TTGlyph>
    <TTGlyph name="Icircumflex" xMin="26" yMin="-12" xMax="381" yMax="846">
      <component glyphName="I" x="0" y="0" flags="0x4"/>
      <component glyphName="circumflex.cap" x="-14" y="0" flags="0x4"/>
    </TTGlyph>
    <TTGlyph name="Idieresis" xMin="26" yMin="-12" xMax="370" yMax="818">
      <component glyphName="I" x="0" y="0" flags="0x4"/>
      <component glyphName="dieresis.cap" x="-14" y="0" flags="0x4"/>
    </TTGlyph>
    <TTGlyph name="Idotaccent" xMin="26" yMin="-12" xMax="342" yMax="829">
      <component glyphName="I" x="0" y="0" flags="0x4"/>
      <component glyphName="dotaccent.cap" x="-14" y="0" flags="0x4"/>
    </TTGlyph>
    <TTGlyph name="Igrave" xMin="26" yMin="-12" xMax="342" yMax="841">
      <component glyphName="I" x="0" y="0" flags="0x4"/>
      <component glyphName="grave.cap" x="-17" y="0" flags="0x4"/>
    </TTGlyph>
    <TTGlyph name="Imacron" xMin="26" yMin="-12" xMax="388" yMax="788">
      <component glyphName="I" x="0" y="0" flags="0x4"/>
      <component glyphName="macron.cap" x="-15" y="0" flags="0x4"/>
    </TTGlyph>
    <TTGlyph name="Iogonek" xMin="26" yMin="-242" xMax="342" yMax="646">
      <contour>
        <pt x="268" y="-179" on="1"/>
        <pt x="253" y="-192" on="0"/>
        <pt x="235" y="-204" on="1"/>
        <pt x="220" y="-215" on="0"/>
        <pt x="183" y="-236" on="0"/>
        <pt x="164" y="-242" on="1"/>
        <pt x="121" y="-242" on="0"/>
        <pt x="68" y="-199" on="0"/>
        <pt x="68" y="-159" on="1"/>
        <pt x="68" y="-120" on="0"/>
        <pt x="130" y="-43" on="0"/>
        <pt x="177" y="0" on="1"/>
        <pt x="137" y="0" on="1"/>
        <pt x="119" y="0" on="0"/>
        <pt x="80" y="-4" on="0"/>
        <pt x="63" y="-6" on="1"/>
        <pt x="44" y="-9" on="0"/>
        <pt x="26" y="-12" on="1"/>
        <pt x="38" y="31" on="1"/>
        <pt x="61" y="35" on="0"/>
        <pt x="92" y="48" on="0"/>
        <pt x="112" y="68" on="0"/>
        <pt x="123" y="97" on="0"/>
        <pt x="126" y="118" on="1"/>
        <pt x="178" y="542" on="1"/>
        <pt x="182" y="574" on="0"/>
        <pt x="171" y="596" on="0"/>
        <pt x="149" y="596" on="1"/>
        <pt x="144" y="596" on="0"/>
        <pt x="129" y="595" on="0"/>
        <pt x="123" y="595" on="1"/>
        <pt x="115" y="594" on="0"/>
        <pt x="108" y="594" on="1"/>
        <pt x="108" y="595" on="0"/>
        <pt x="107" y="596" on="0"/>
        <pt x="107" y="597" on="1"/>
        <pt x="119" y="640" on="1"/>
        <pt x="118" y="640" on="0"/>
        <pt x="142" y="639" on="0"/>
        <pt x="178" y="637" on="0"/>
        <pt x="217" y="636" on="0"/>
        <pt x="232" y="636" on="1"/>
        <pt x="249" y="636" on="0"/>
        <pt x="286" y="639" on="0"/>
        <pt x="303" y="641" on="1"/>
        <pt x="322" y="643" on="0"/>
        <pt x="342" y="646" on="1"/>
        <pt x="332" y="603" on="1"/>
        <pt x="312" y="600" on="0"/>
        <pt x="285" y="593" on="0"/>
        <pt x="267" y="580" on="0"/>
        <pt x="258" y="560" on="0"/>
        <pt x="256" y="546" on="1"/>
        <pt x="244" y="478" on="0"/>
        <pt x="220" y="329" on="0"/>
        <pt x="199" y="198" on="0"/>
        <pt x="186" y="101" on="0"/>
        <pt x="186" y="85" on="1"/>
        <pt x="186" y="60" on="0"/>
        <pt x="203" y="42" on="0"/>
        <pt x="223" y="42" on="1"/>
        <pt x="231" y="42" on="0"/>
        <pt x="249" y="42" on="0"/>
        <pt x="257" y="43" on="1"/>
        <pt x="266" y="44" on="0"/>
        <pt x="274" y="45" on="1"/>
        <pt x="276" y="41" on="1"/>
        <pt x="262" y="-3" on="1"/>
        <pt x="256" y="-2" on="0"/>
        <pt x="249" y="-2" on="1"/>
        <pt x="243" y="-2" on="0"/>
        <pt x="227" y="-2" on="0"/>
        <pt x="219" y="-1" on="1"/>
        <pt x="195" y="-24" on="0"/>
        <pt x="162" y="-60" on="0"/>
        <pt x="141" y="-91" on="0"/>
        <pt x="132" y="-119" on="0"/>
        <pt x="132" y="-135" on="1"/>
        <pt x="132" y="-156" on="0"/>
        <pt x="158" y="-183" on="0"/>
        <pt x="181" y="-183" on="1"/>
        <pt x="195" y="-183" on="0"/>
        <pt x="222" y="-177" on="0"/>
        <pt x="233" y="-172" on="1"/>
        <pt x="246" y="-167" on="0"/>
        <pt x="258" y="-160" on="1"/>
      </contour>
    </TTGlyph>
    <TTGlyph name="Itilde" xMin="26" yMin="-12" xMax="412" yMax="820">
      <component glyphName="I" x="0" y="0" flags="0x4"/>
      <component glyphName="tilde.cap" x="-9" y="0" flags="0x4"/>
    </TTGlyph>
    <TTGlyph name="J" xMin="-16" yMin="-143" xMax="316" yMax="645">
      <contour>
        <pt x="168" y="542" on="1"/>
        <pt x="172" y="574" on="0"/>
        <pt x="160" y="595" on="0"/>
        <pt x="139" y="595" on="1"/>
        <pt x="134" y="595" on="0"/>
        <pt x="119" y="594" on="0"/>
        <pt x="111" y="593" on="1"/>
        <pt x="102" y="592" on="0"/>
        <pt x="92" y="591" on="1"/>
        <pt x="92" y="594" on="1"/>
        <pt x="103" y="636" on="1"/>
        <pt x="206" y="636" on="1"/>
        <pt x="220" y="636" on="0"/>
        <pt x="259" y="638" on="0"/>
        <pt x="276" y="640" on="1"/>
        <pt x="296" y="642" on="0"/>
        <pt x="316" y="645" on="1"/>
        <pt x="308" y="603" on="1"/>
        <pt x="273" y="598" on="0"/>
        <pt x="250" y="577" on="0"/>
        <pt x="245" y="546" on="1"/>
        <pt x="241" y="524" on="0"/>
        <pt x="230" y="454" on="0"/>
        <pt x="218" y="372" on="0"/>
        <pt x="204" y="284" on="0"/>
        <pt x="192" y="204" on="0"/>
        <pt x="183" y="138" on="0"/>
        <pt x="180" y="118" on="1"/>
        <pt x="167" y="15" on="0"/>
        <pt x="79" y="-109" on="0"/>
        <pt x="-4" y="-143" on="1"/>
        <pt x="-16" y="-111" on="1"/>
        <pt x="-13" y="-103" on="1"/>
        <pt x="18" y="-85" on="0"/>
        <pt x="62" y="-46" on="0"/>
        <pt x="91" y="4" on="0"/>
        <pt x="109" y="69" on="0"/>
        <pt x="114" y="114" on="1"/>
      </contour>
    </TTGlyph>
    <TTGlyph name="Jcircumflex" xMin="-16" yMin="-143" xMax="380" yMax="846">
      <component glyphName="J" x="0" y="0" flags="0x4"/>
      <component glyphName="circumflex.cap" x="-15" y="0" flags="0x4"/>
    </TTGlyph>
    <TTGlyph name="K" xMin="28" yMin="-14" xMax="624" yMax="646">
      <contour>
        <pt x="178" y="542" on="1"/>
        <pt x="182" y="574" on="0"/>
        <pt x="171" y="596" on="0"/>
        <pt x="149" y="596" on="1"/>
        <pt x="144" y="596" on="0"/>
        <pt x="134" y="595" on="0"/>
        <pt x="129" y="595" on="1"/>
        <pt x="123" y="594" on="0"/>
        <pt x="117" y="594" on="1"/>
        <pt x="115" y="597" on="1"/>
        <pt x="127" y="640" on="1"/>
        <pt x="147" y="639" on="0"/>
        <pt x="166" y="638" on="1"/>
        <pt x="183" y="637" on="0"/>
        <pt x="218" y="636" on="0"/>
        <pt x="232" y="636" on="1"/>
        <pt x="247" y="636" on="0"/>
        <pt x="283" y="639" on="0"/>
        <pt x="298" y="641" on="1"/>
        <pt x="316" y="643" on="0"/>
        <pt x="333" y="646" on="1"/>
        <pt x="325" y="603" on="1"/>
        <pt x="288" y="598" on="0"/>
        <pt x="258" y="572" on="0"/>
        <pt x="253" y="543" on="1"/>
        <pt x="188" y="109" on="1"/>
        <pt x="182" y="69" on="0"/>
        <pt x="197" y="42" on="0"/>
        <pt x="223" y="42" on="1"/>
        <pt x="230" y="42" on="0"/>
        <pt x="245" y="42" on="0"/>
        <pt x="252" y="43" on="1"/>
        <pt x="260" y="44" on="0"/>
        <pt x="267" y="45" on="1"/>
        <pt x="269" y="41" on="1"/>
        <pt x="254" y="-3" on="1"/>
        <pt x="233" y="-3" on="0"/>
        <pt x="212" y="-2" on="1"/>
        <pt x="194" y="-1" on="0"/>
        <pt x="153" y="0" on="0"/>
        <pt x="137" y="0" on="1"/>
        <pt x="119" y="0" on="0"/>
        <pt x="81" y="-1" on="0"/>
        <pt x="65" y="-1" on="1"/>
        <pt x="28" y="-1" on="1"/>
        <pt x="43" y="42" on="1"/>
        <pt x="66" y="44" on="0"/>
        <pt x="96" y="53" on="0"/>
        <pt x="114" y="69" on="0"/>
        <pt x="123" y="97" on="0"/>
        <pt x="126" y="118" on="1"/>
      </contour>
      <contour>
        <pt x="244" y="328" on="1"/>
        <pt x="442" y="517" on="1"/>
        <pt x="478" y="552" on="0"/>
        <pt x="478" y="571" on="1"/>
        <pt x="478" y="595" on="0"/>
        <pt x="421" y="599" on="1"/>
        <pt x="419" y="603" on="1"/>
        <pt x="431" y="644" on="1"/>
        <pt x="450" y="642" on="0"/>
        <pt x="469" y="640" on="1"/>
        <pt x="485" y="638" on="0"/>
        <pt x="521" y="636" on="0"/>
        <pt x="535" y="636" on="1"/>
        <pt x="549" y="636" on="0"/>
        <pt x="579" y="637" on="0"/>
        <pt x="592" y="638" on="1"/>
        <pt x="607" y="639" on="0"/>
        <pt x="622" y="640" on="1"/>
        <pt x="624" y="634" on="1"/>
        <pt x="614" y="595" on="1"/>
        <pt x="601" y="593" on="0"/>
        <pt x="579" y="584" on="0"/>
        <pt x="552" y="566" on="0"/>
        <pt x="518" y="536" on="0"/>
        <pt x="493" y="513" on="1"/>
        <pt x="315" y="339" on="1"/>
        <pt x="451" y="118" on="1"/>
        <pt x="480" y="71" on="0"/>
        <pt x="530" y="33" on="0"/>
        <pt x="564" y="33" on="1"/>
        <pt x="567" y="30" on="1"/>
        <pt x="558" y="-2" on="1"/>
        <pt x="522" y="-8" on="1"/>
        <pt x="508" y="-10" on="0"/>
        <pt x="483" y="-14" on="0"/>
        <pt x="479" y="-14" on="1"/>
        <pt x="456" y="-14" on="0"/>
        <pt x="405" y="32" on="0"/>
        <pt x="382" y="72" on="1"/>
        <pt x="242" y="315" on="1"/>
      </contour>
    </TTGlyph>
    <TTGlyph name="Kcommaaccent" xMin="28" yMin="-293" xMax="624" yMax="646">
      <component glyphName="K" x="0" y="0" flags="0x4"/>
      <component glyphName="commaaccent" x="137" y="0" flags="0x4"/>
    </TTGlyph>
    <TTGlyph name="L" xMin="38" yMin="-10" xMax="478" yMax="646">
      <contour>
        <pt x="167" y="0" on="1"/>
        <pt x="140" y="0" on="0"/>
        <pt x="92" y="-3" on="0"/>
        <pt x="75" y="-5" on="1"/>
        <pt x="55" y="-8" on="0"/>
        <pt x="38" y="-10" on="1"/>
        <pt x="50" y="33" on="1"/>
        <pt x="88" y="39" on="0"/>
        <pt x="120" y="74" on="0"/>
        <pt x="125" y="117" on="1"/>
        <pt x="178" y="542" on="1"/>
        <pt x="182" y="575" on="0"/>
        <pt x="169" y="596" on="0"/>
        <pt x="149" y="596" on="1"/>
        <pt x="144" y="596" on="0"/>
        <pt x="133" y="595" on="0"/>
        <pt x="128" y="595" on="1"/>
        <pt x="122" y="594" on="0"/>
        <pt x="116" y="594" on="1"/>
        <pt x="116" y="595" on="0"/>
        <pt x="115" y="596" on="0"/>
        <pt x="115" y="597" on="1"/>
        <pt x="127" y="640" on="1"/>
        <pt x="127" y="640" on="0"/>
        <pt x="150" y="639" on="0"/>
        <pt x="183" y="637" on="0"/>
        <pt x="219" y="636" on="0"/>
        <pt x="233" y="636" on="1"/>
        <pt x="248" y="636" on="0"/>
        <pt x="283" y="639" on="0"/>
        <pt x="298" y="641" on="1"/>
        <pt x="316" y="643" on="0"/>
        <pt x="333" y="646" on="1"/>
        <pt x="325" y="604" on="1"/>
        <pt x="304" y="601" on="0"/>
        <pt x="280" y="593" on="0"/>
        <pt x="265" y="574" on="0"/>
        <pt x="256" y="539" on="0"/>
        <pt x="250" y="508" on="1"/>
        <pt x="245" y="480" on="0"/>
        <pt x="231" y="401" on="0"/>
        <pt x="218" y="314" on="0"/>
        <pt x="205" y="226" on="0"/>
        <pt x="194" y="152" on="0"/>
        <pt x="188" y="99" on="0"/>
        <pt x="188" y="91" on="1"/>
        <pt x="188" y="76" on="0"/>
        <pt x="194" y="56" on="0"/>
        <pt x="211" y="45" on="0"/>
        <pt x="241" y="41" on="0"/>
        <pt x="264" y="41" on="1"/>
        <pt x="306" y="41" on="0"/>
        <pt x="361" y="50" on="0"/>
        <pt x="397" y="80" on="0"/>
        <pt x="422" y="136" on="0"/>
        <pt x="435" y="182" on="1"/>
        <pt x="477" y="186" on="1"/>
        <pt x="477" y="185" on="0"/>
        <pt x="478" y="183" on="0"/>
        <pt x="478" y="182" on="1"/>
        <pt x="470" y="155" on="0"/>
        <pt x="461" y="125" on="1"/>
        <pt x="453" y="99" on="0"/>
        <pt x="435" y="32" on="0"/>
        <pt x="427" y="-4" on="1"/>
        <pt x="422" y="-9" on="1"/>
        <pt x="375" y="-7" on="0"/>
        <pt x="328" y="-5" on="1"/>
        <pt x="288" y="-3" on="0"/>
        <pt x="200" y="0" on="0"/>
      </contour>
    </TTGlyph>
    <TTGlyph name="Lacute" xMin="38" yMin="-10" xMax="478" yMax="841">
      <component glyphName="L" x="0" y="0" flags="0x4"/>
      <component glyphName="acute.cap" x="1" y="0" flags="0x4"/>
    </TTGlyph>
    <TTGlyph name="Lcaron" xMin="38" yMin="-10" xMax="512" yMax="646">
      <component glyphName="L" x="0" y="0" flags="0x4"/>
      <component glyphName="caron.alt" x="222" y="-74" flags="0x4"/>
    </TTGlyph>
    <TTGlyph name="Lcommaaccent" xMin="38" yMin="-293" xMax="478" yMax="646">
      <component glyphName="L" x="0" y="0" flags="0x4"/>
      <component glyphName="commaaccent" x="107" y="0" flags="0x4"/>
    </TTGlyph>
    <TTGlyph name="Ldot" xMin="38" yMin="-10" xMax="505" yMax="646">
      <component glyphName="L" x="0" y="0" flags="0x4"/>
      <component glyphName="period" x="352" y="425" flags="0x4"/>
    </TTGlyph>
    <TTGlyph name="Lslash" xMin="34" yMin="-10" xMax="478" yMax="646">
      <contour>
        <pt x="167" y="0" on="1"/>
        <pt x="140" y="0" on="0"/>
        <pt x="92" y="-3" on="0"/>
        <pt x="75" y="-5" on="1"/>
        <pt x="55" y="-8" on="0"/>
        <pt x="38" y="-10" on="1"/>
        <pt x="50" y="33" on="1"/>
        <pt x="88" y="39" on="0"/>
        <pt x="120" y="74" on="0"/>
        <pt x="125" y="117" on="1"/>
        <pt x="149" y="308" on="1"/>
        <pt x="48" y="258" on="1"/>
        <pt x="39" y="261" on="1"/>
        <pt x="34" y="293" on="1"/>
        <pt x="154" y="353" on="1"/>
        <pt x="178" y="542" on="1"/>
        <pt x="182" y="575" on="0"/>
        <pt x="169" y="596" on="0"/>
        <pt x="149" y="596" on="1"/>
        <pt x="144" y="596" on="0"/>
        <pt x="133" y="595" on="0"/>
        <pt x="128" y="595" on="1"/>
        <pt x="122" y="594" on="0"/>
        <pt x="116" y="594" on="1"/>
        <pt x="116" y="595" on="0"/>
        <pt x="115" y="596" on="0"/>
        <pt x="115" y="597" on="1"/>
        <pt x="127" y="640" on="1"/>
        <pt x="127" y="640" on="0"/>
        <pt x="150" y="639" on="0"/>
        <pt x="183" y="637" on="0"/>
        <pt x="219" y="636" on="0"/>
        <pt x="233" y="636" on="1"/>
        <pt x="248" y="636" on="0"/>
        <pt x="283" y="639" on="0"/>
        <pt x="298" y="641" on="1"/>
        <pt x="316" y="643" on="0"/>
        <pt x="333" y="646" on="1"/>
        <pt x="325" y="604" on="1"/>
        <pt x="304" y="601" on="0"/>
        <pt x="280" y="593" on="0"/>
        <pt x="265" y="574" on="0"/>
        <pt x="256" y="539" on="0"/>
        <pt x="250" y="508" on="1"/>
        <pt x="228" y="383" on="1"/>
        <pt x="371" y="454" on="1"/>
        <pt x="379" y="449" on="1"/>
        <pt x="384" y="418" on="1"/>
        <pt x="221" y="338" on="1"/>
        <pt x="215" y="296" on="0"/>
        <pt x="203" y="215" on="0"/>
        <pt x="194" y="147" on="0"/>
        <pt x="188" y="99" on="0"/>
        <pt x="188" y="91" on="1"/>
        <pt x="188" y="76" on="0"/>
        <pt x="194" y="56" on="0"/>
        <pt x="211" y="45" on="0"/>
        <pt x="241" y="41" on="0"/>
        <pt x="264" y="41" on="1"/>
        <pt x="306" y="41" on="0"/>
        <pt x="361" y="50" on="0"/>
        <pt x="397" y="80" on="0"/>
        <pt x="422" y="136" on="0"/>
        <pt x="435" y="182" on="1"/>
        <pt x="477" y="186" on="1"/>
        <pt x="477" y="185" on="0"/>
        <pt x="478" y="183" on="0"/>
        <pt x="478" y="182" on="1"/>
        <pt x="470" y="155" on="0"/>
        <pt x="461" y="125" on="1"/>
        <pt x="453" y="99" on="0"/>
        <pt x="435" y="32" on="0"/>
        <pt x="427" y="-4" on="1"/>
        <pt x="422" y="-9" on="1"/>
        <pt x="375" y="-7" on="0"/>
        <pt x="328" y="-5" on="1"/>
        <pt x="288" y="-3" on="0"/>
        <pt x="200" y="0" on="0"/>
      </contour>
    </TTGlyph>
    <TTGlyph name="M" xMin="17" yMin="-19" xMax="790" yMax="642">
      <contour>
        <pt x="353" y="-19" on="1"/>
        <pt x="323" y="115" on="0"/>
        <pt x="262" y="388" on="0"/>
        <pt x="231" y="529" on="1"/>
        <pt x="227" y="529" on="1"/>
        <pt x="201" y="404" on="0"/>
        <pt x="182" y="305" on="1"/>
        <pt x="174" y="263" on="0"/>
        <pt x="158" y="180" on="0"/>
        <pt x="146" y="114" on="0"/>
        <pt x="138" y="70" on="0"/>
        <pt x="138" y="66" on="1"/>
        <pt x="138" y="41" on="0"/>
        <pt x="164" y="41" on="1"/>
        <pt x="188" y="41" on="1"/>
        <pt x="196" y="41" on="0"/>
        <pt x="204" y="42" on="1"/>
        <pt x="204" y="41" on="0"/>
        <pt x="205" y="40" on="0"/>
        <pt x="205" y="39" on="1"/>
        <pt x="191" y="-4" on="1"/>
        <pt x="174" y="-3" on="0"/>
        <pt x="157" y="-2" on="1"/>
        <pt x="143" y="-1" on="0"/>
        <pt x="111" y="0" on="0"/>
        <pt x="99" y="0" on="1"/>
        <pt x="85" y="0" on="0"/>
        <pt x="56" y="-2" on="0"/>
        <pt x="44" y="-4" on="1"/>
        <pt x="30" y="-6" on="0"/>
        <pt x="17" y="-8" on="1"/>
        <pt x="28" y="35" on="1"/>
        <pt x="58" y="40" on="0"/>
        <pt x="89" y="72" on="0"/>
        <pt x="98" y="113" on="1"/>
        <pt x="102" y="132" on="0"/>
        <pt x="119" y="210" on="0"/>
        <pt x="139" y="304" on="0"/>
        <pt x="160" y="405" on="0"/>
        <pt x="178" y="490" on="0"/>
        <pt x="189" y="549" on="0"/>
        <pt x="189" y="555" on="1"/>
        <pt x="189" y="578" on="0"/>
        <pt x="152" y="602" on="0"/>
        <pt x="111" y="605" on="1"/>
        <pt x="109" y="609" on="1"/>
        <pt x="120" y="641" on="1"/>
        <pt x="141" y="639" on="0"/>
        <pt x="160" y="638" on="1"/>
        <pt x="177" y="637" on="0"/>
        <pt x="212" y="636" on="0"/>
        <pt x="223" y="636" on="1"/>
        <pt x="234" y="636" on="0"/>
        <pt x="256" y="637" on="0"/>
        <pt x="265" y="638" on="1"/>
        <pt x="276" y="639" on="0"/>
        <pt x="286" y="640" on="1"/>
        <pt x="306" y="527" on="0"/>
        <pt x="345" y="342" on="0"/>
        <pt x="361" y="275" on="1"/>
        <pt x="379" y="197" on="0"/>
        <pt x="396" y="134" on="1"/>
        <pt x="400" y="134" on="1"/>
        <pt x="430" y="197" on="0"/>
        <pt x="465" y="275" on="1"/>
        <pt x="495" y="342" on="0"/>
        <pt x="576" y="527" on="0"/>
        <pt x="624" y="639" on="1"/>
        <pt x="624" y="640" on="0"/>
        <pt x="637" y="639" on="0"/>
        <pt x="657" y="637" on="0"/>
        <pt x="677" y="636" on="0"/>
        <pt x="684" y="636" on="1"/>
        <pt x="695" y="636" on="0"/>
        <pt x="730" y="637" on="0"/>
        <pt x="747" y="639" on="1"/>
        <pt x="767" y="640" on="0"/>
        <pt x="789" y="642" on="1"/>
        <pt x="789" y="641" on="0"/>
        <pt x="790" y="639" on="0"/>
        <pt x="790" y="638" on="1"/>
        <pt x="781" y="604" on="1"/>
        <pt x="738" y="599" on="0"/>
        <pt x="701" y="574" on="0"/>
        <pt x="699" y="549" on="1"/>
        <pt x="698" y="539" on="0"/>
        <pt x="692" y="448" on="0"/>
        <pt x="685" y="325" on="0"/>
        <pt x="679" y="191" on="0"/>
        <pt x="678" y="137" on="1"/>
        <pt x="677" y="107" on="0"/>
        <pt x="680" y="70" on="0"/>
        <pt x="688" y="49" on="0"/>
        <pt x="702" y="41" on="0"/>
        <pt x="714" y="41" on="1"/>
        <pt x="718" y="41" on="0"/>
        <pt x="728" y="41" on="0"/>
        <pt x="732" y="42" on="1"/>
        <pt x="736" y="42" on="0"/>
        <pt x="741" y="43" on="1"/>
        <pt x="741" y="42" on="0"/>
        <pt x="742" y="41" on="0"/>
        <pt x="742" y="40" on="1"/>
        <pt x="728" y="-3" on="1"/>
        <pt x="712" y="-3" on="0"/>
        <pt x="696" y="-2" on="1"/>
        <pt x="682" y="-1" on="0"/>
        <pt x="651" y="0" on="0"/>
        <pt x="638" y="0" on="1"/>
        <pt x="622" y="0" on="0"/>
        <pt x="587" y="-2" on="0"/>
        <pt x="573" y="-4" on="1"/>
        <pt x="556" y="-6" on="0"/>
        <pt x="540" y="-8" on="1"/>
        <pt x="549" y="35" on="1"/>
        <pt x="579" y="39" on="0"/>
        <pt x="609" y="63" on="0"/>
        <pt x="612" y="85" on="1"/>
        <pt x="613" y="91" on="0"/>
        <pt x="615" y="136" on="0"/>
        <pt x="618" y="201" on="0"/>
        <pt x="622" y="280" on="0"/>
        <pt x="624" y="320" on="1"/>
        <pt x="628" y="414" on="0"/>
        <pt x="633" y="529" on="1"/>
        <pt x="628" y="529" on="1"/>
        <pt x="564" y="388" on="0"/>
        <pt x="437" y="120" on="0"/>
        <pt x="374" y="-13" on="1"/>
      </contour>
    </TTGlyph>
    <TTGlyph name="N" xMin="34" yMin="-42" xMax="709" yMax="645">
      <contour>
        <pt x="524" y="134" on="1"/>
        <pt x="576" y="552" on="1"/>
        <pt x="580" y="595" on="0"/>
        <pt x="549" y="595" on="1"/>
        <pt x="536" y="595" on="0"/>
        <pt x="512" y="594" on="0"/>
        <pt x="513" y="594" on="1"/>
        <pt x="511" y="598" on="1"/>
        <pt x="525" y="640" on="1"/>
        <pt x="541" y="639" on="0"/>
        <pt x="557" y="638" on="1"/>
        <pt x="571" y="637" on="0"/>
        <pt x="602" y="636" on="0"/>
        <pt x="614" y="636" on="1"/>
        <pt x="629" y="636" on="0"/>
        <pt x="662" y="638" on="0"/>
        <pt x="676" y="640" on="1"/>
        <pt x="693" y="642" on="0"/>
        <pt x="709" y="645" on="1"/>
        <pt x="699" y="601" on="1"/>
        <pt x="665" y="596" on="0"/>
        <pt x="630" y="567" on="0"/>
        <pt x="625" y="538" on="1"/>
        <pt x="543" y="-28" on="1"/>
        <pt x="518" y="-42" on="1"/>
        <pt x="461" y="75" on="0"/>
        <pt x="355" y="280" on="0"/>
        <pt x="314" y="357" on="1"/>
        <pt x="266" y="447" on="0"/>
        <pt x="225" y="522" on="1"/>
        <pt x="221" y="522" on="1"/>
        <pt x="161" y="81" on="1"/>
        <pt x="158" y="58" on="0"/>
        <pt x="169" y="42" on="0"/>
        <pt x="186" y="42" on="1"/>
        <pt x="235" y="42" on="1"/>
        <pt x="237" y="39" on="1"/>
        <pt x="223" y="-4" on="1"/>
        <pt x="207" y="-3" on="0"/>
        <pt x="189" y="-2" on="1"/>
        <pt x="174" y="-1" on="0"/>
        <pt x="139" y="0" on="0"/>
        <pt x="123" y="0" on="1"/>
        <pt x="109" y="0" on="0"/>
        <pt x="79" y="-2" on="0"/>
        <pt x="65" y="-4" on="1"/>
        <pt x="49" y="-6" on="0"/>
        <pt x="34" y="-8" on="1"/>
        <pt x="45" y="35" on="1"/>
        <pt x="75" y="39" on="0"/>
        <pt x="107" y="67" on="0"/>
        <pt x="112" y="98" on="1"/>
        <pt x="179" y="541" on="1"/>
        <pt x="183" y="571" on="0"/>
        <pt x="150" y="597" on="0"/>
        <pt x="102" y="602" on="1"/>
        <pt x="102" y="604" on="0"/>
        <pt x="101" y="605" on="0"/>
        <pt x="101" y="607" on="1"/>
        <pt x="112" y="641" on="1"/>
        <pt x="128" y="639" on="0"/>
        <pt x="143" y="638" on="1"/>
        <pt x="156" y="637" on="0"/>
        <pt x="183" y="636" on="0"/>
        <pt x="193" y="636" on="1"/>
        <pt x="204" y="636" on="0"/>
        <pt x="227" y="637" on="0"/>
        <pt x="236" y="638" on="1"/>
        <pt x="247" y="639" on="0"/>
        <pt x="255" y="640" on="1"/>
        <pt x="304" y="540" on="0"/>
        <pt x="398" y="359" on="0"/>
        <pt x="436" y="288" on="1"/>
        <pt x="480" y="205" on="0"/>
        <pt x="520" y="134" on="1"/>
      </contour>
    </TTGlyph>
    <TTGlyph name="Nacute" xMin="34" yMin="-42" xMax="709" yMax="841">
      <component glyphName="N" x="0" y="0" flags="0x4"/>
      <component glyphName="acute.cap" x="172" y="0" flags="0x4"/>
    </TTGlyph>
    <TTGlyph name="Ncaron" xMin="34" yMin="-42" xMax="709" yMax="838">
      <component glyphName="N" x="0" y="0" flags="0x4"/>
      <component glyphName="caron.cap" x="162" y="0" flags="0x4"/>
    </TTGlyph>
    <TTGlyph name="Ncommaaccent" xMin="34" yMin="-293" xMax="709" yMax="645">
      <component glyphName="N" x="0" y="0" flags="0x4"/>
      <component glyphName="commaaccent" x="173" y="0" flags="0x4"/>
    </TTGlyph>
    <TTGlyph name="Ntilde" xMin="34" yMin="-42" xMax="709" yMax="820">
      <component glyphName="N" x="0" y="0" flags="0x4"/>
      <component glyphName="tilde.cap" x="163" y="0" flags="0x4"/>
    </TTGlyph>
    <TTGlyph name="O" xMin="45" yMin="-12" xMax="644" yMax="648">
      <contour>
        <pt x="311" y="35" on="1"/>
        <pt x="364" y="35" on="0"/>
        <pt x="454" y="81" on="0"/>
        <pt x="520" y="164" on="0"/>
        <pt x="557" y="277" on="0"/>
        <pt x="557" y="343" on="1"/>
        <pt x="557" y="400" on="0"/>
        <pt x="530" y="492" on="0"/>
        <pt x="480" y="557" on="0"/>
        <pt x="411" y="593" on="0"/>
        <pt x="368" y="593" on="1"/>
        <pt x="316" y="593" on="0"/>
        <pt x="228" y="546" on="0"/>
        <pt x="163" y="463" on="0"/>
        <pt x="127" y="351" on="0"/>
        <pt x="127" y="285" on="1"/>
        <pt x="127" y="228" on="0"/>
        <pt x="153" y="136" on="0"/>
        <pt x="201" y="71" on="0"/>
        <pt x="269" y="35" on="0"/>
      </contour>
      <contour>
        <pt x="286" y="-12" on="1"/>
        <pt x="233" y="-12" on="0"/>
        <pt x="144" y="27" on="0"/>
        <pt x="80" y="97" on="0"/>
        <pt x="45" y="195" on="0"/>
        <pt x="45" y="254" on="1"/>
        <pt x="45" y="335" on="0"/>
        <pt x="101" y="478" on="0"/>
        <pt x="197" y="586" on="0"/>
        <pt x="325" y="648" on="0"/>
        <pt x="397" y="648" on="1"/>
        <pt x="452" y="648" on="0"/>
        <pt x="543" y="609" on="0"/>
        <pt x="608" y="538" on="0"/>
        <pt x="644" y="440" on="0"/>
        <pt x="644" y="382" on="1"/>
        <pt x="644" y="301" on="0"/>
        <pt x="587" y="157" on="0"/>
        <pt x="490" y="50" on="0"/>
        <pt x="359" y="-12" on="0"/>
      </contour>
    </TTGlyph>
    <TTGlyph name="OE" xMin="45" yMin="-12" xMax="906" yMax="649">
      <contour>
        <pt x="546" y="105" on="1"/>
        <pt x="543" y="85" on="0"/>
        <pt x="545" y="61" on="0"/>
        <pt x="558" y="49" on="0"/>
        <pt x="588" y="45" on="0"/>
        <pt x="614" y="45" on="1"/>
        <pt x="670" y="45" on="0"/>
        <pt x="738" y="52" on="0"/>
        <pt x="778" y="77" on="0"/>
        <pt x="801" y="126" on="0"/>
        <pt x="812" y="167" on="1"/>
        <pt x="857" y="172" on="1"/>
        <pt x="859" y="167" on="1"/>
        <pt x="851" y="142" on="0"/>
        <pt x="843" y="115" on="1"/>
        <pt x="836" y="92" on="0"/>
        <pt x="820" y="31" on="0"/>
        <pt x="813" y="-1" on="1"/>
        <pt x="807" y="-7" on="1"/>
        <pt x="750" y="-5" on="0"/>
        <pt x="696" y="-3" on="1"/>
        <pt x="650" y="-1" on="0"/>
        <pt x="550" y="1" on="0"/>
        <pt x="515" y="1" on="1"/>
        <pt x="478" y="1" on="0"/>
        <pt x="415" y="-3" on="0"/>
        <pt x="358" y="-8" on="0"/>
        <pt x="305" y="-12" on="0"/>
        <pt x="280" y="-12" on="1"/>
        <pt x="228" y="-12" on="0"/>
        <pt x="142" y="27" on="0"/>
        <pt x="80" y="97" on="0"/>
        <pt x="45" y="194" on="0"/>
        <pt x="45" y="253" on="1"/>
        <pt x="45" y="335" on="0"/>
        <pt x="99" y="480" on="0"/>
        <pt x="193" y="587" on="0"/>
        <pt x="319" y="649" on="0"/>
        <pt x="390" y="649" on="1"/>
        <pt x="440" y="649" on="0"/>
        <pt x="549" y="635" on="0"/>
        <pt x="609" y="635" on="1"/>
        <pt x="711" y="635" on="0"/>
        <pt x="850" y="641" on="0"/>
        <pt x="903" y="649" on="1"/>
        <pt x="906" y="643" on="1"/>
        <pt x="899" y="620" on="0"/>
        <pt x="891" y="594" on="1"/>
        <pt x="884" y="571" on="0"/>
        <pt x="869" y="512" on="0"/>
        <pt x="863" y="477" on="1"/>
        <pt x="814" y="473" on="1"/>
        <pt x="816" y="484" on="0"/>
        <pt x="818" y="495" on="1"/>
        <pt x="820" y="505" on="0"/>
        <pt x="823" y="526" on="0"/>
        <pt x="823" y="536" on="1"/>
        <pt x="823" y="553" on="0"/>
        <pt x="812" y="573" on="0"/>
        <pt x="781" y="584" on="0"/>
        <pt x="727" y="587" on="0"/>
        <pt x="684" y="587" on="1"/>
        <pt x="661" y="587" on="0"/>
        <pt x="634" y="585" on="0"/>
        <pt x="621" y="578" on="0"/>
        <pt x="615" y="562" on="0"/>
        <pt x="613" y="548" on="1"/>
        <pt x="581" y="354" on="1"/>
        <pt x="680" y="353" on="1"/>
        <pt x="693" y="353" on="0"/>
        <pt x="734" y="356" on="0"/>
        <pt x="753" y="358" on="1"/>
        <pt x="775" y="361" on="0"/>
        <pt x="799" y="364" on="1"/>
        <pt x="802" y="359" on="1"/>
        <pt x="781" y="300" on="1"/>
        <pt x="758" y="300" on="0"/>
        <pt x="734" y="301" on="1"/>
        <pt x="714" y="302" on="0"/>
        <pt x="667" y="303" on="0"/>
        <pt x="648" y="303" on="1"/>
        <pt x="572" y="296" on="1"/>
        <pt x="559" y="200" on="1"/>
      </contour>
      <contour>
        <pt x="306" y="40" on="1"/>
        <pt x="351" y="40" on="0"/>
        <pt x="417" y="58" on="0"/>
        <pt x="461" y="98" on="0"/>
        <pt x="488" y="162" on="0"/>
        <pt x="494" y="208" on="1"/>
        <pt x="527" y="467" on="1"/>
        <pt x="531" y="504" on="0"/>
        <pt x="522" y="552" on="0"/>
        <pt x="486" y="580" on="0"/>
        <pt x="422" y="591" on="0"/>
        <pt x="371" y="591" on="1"/>
        <pt x="321" y="591" on="0"/>
        <pt x="235" y="545" on="0"/>
        <pt x="171" y="463" on="0"/>
        <pt x="135" y="349" on="0"/>
        <pt x="135" y="280" on="1"/>
        <pt x="135" y="226" on="0"/>
        <pt x="159" y="138" on="0"/>
        <pt x="203" y="75" on="0"/>
        <pt x="266" y="40" on="0"/>
      </contour>
    </TTGlyph>
    <TTGlyph name="Oacute" xMin="45" yMin="-12" xMax="644" yMax="841">
      <component glyphName="O" x="0" y="0" flags="0x4"/>
      <component glyphName="acute.cap" x="123" y="0" flags="0x4"/>
    </TTGlyph>
    <TTGlyph name="Obreve" xMin="45" yMin="-12" xMax="644" yMax="818">
      <component glyphName="O" x="0" y="0" flags="0x4"/>
      <component glyphName="breve.cap" x="119" y="0" flags="0x4"/>
    </TTGlyph>
    <TTGlyph name="Ocircumflex" xMin="45" yMin="-12" xMax="644" yMax="846">
      <component glyphName="O" x="0" y="0" flags="0x4"/>
      <component glyphName="circumflex.cap" x="133" y="0" flags="0x4"/>
    </TTGlyph>
    <TTGlyph name="Odieresis" xMin="45" yMin="-12" xMax="644" yMax="818">
      <component glyphName="O" x="0" y="0" flags="0x4"/>
      <component glyphName="dieresis.cap" x="133" y="0" flags="0x4"/>
    </TTGlyph>
    <TTGlyph name="Ograve" xMin="45" yMin="-12" xMax="644" yMax="841">
      <component glyphName="O" x="0" y="0" flags="0x4"/>
      <component glyphName="grave.cap" x="140" y="0" flags="0x4"/>
    </TTGlyph>
    <TTGlyph name="Ohungarumlaut" xMin="45" yMin="-12" xMax="644" yMax="837">
      <component glyphName="O" x="0" y="0" flags="0x4"/>
      <component glyphName="hungarumlaut.cap" x="117" y="0" flags="0x4"/>
    </TTGlyph>
    <TTGlyph name="Omacron" xMin="45" yMin="-12" xMax="644" yMax="788">
      <component glyphName="O" x="0" y="0" flags="0x4"/>
      <component glyphName="macron.cap" x="142" y="0" flags="0x4"/>
    </TTGlyph>
    <TTGlyph name="Omega" xMin="31" yMin="-6" xMax="768" yMax="649">
      <contour>
        <pt x="711" y="-6" on="1"/>
        <pt x="467" y="8" on="1"/>
        <pt x="426" y="2" on="1"/>
        <pt x="422" y="23" on="1"/>
        <pt x="479" y="70" on="0"/>
        <pt x="557" y="156" on="0"/>
        <pt x="605" y="241" on="0"/>
        <pt x="626" y="328" on="0"/>
        <pt x="626" y="378" on="1"/>
        <pt x="626" y="425" on="0"/>
        <pt x="602" y="503" on="0"/>
        <pt x="556" y="558" on="0"/>
        <pt x="491" y="589" on="0"/>
        <pt x="451" y="589" on="1"/>
        <pt x="399" y="589" on="0"/>
        <pt x="311" y="550" on="0"/>
        <pt x="246" y="480" on="0"/>
        <pt x="210" y="380" on="0"/>
        <pt x="210" y="319" on="1"/>
        <pt x="210" y="235" on="0"/>
        <pt x="273" y="77" on="0"/>
        <pt x="332" y="24" on="1"/>
        <pt x="322" y="1" on="1"/>
        <pt x="282" y="8" on="1"/>
        <pt x="45" y="-6" on="1"/>
        <pt x="31" y="10" on="1"/>
        <pt x="33" y="37" on="0"/>
        <pt x="35" y="93" on="0"/>
        <pt x="35" y="116" on="1"/>
        <pt x="35" y="143" on="0"/>
        <pt x="33" y="169" on="1"/>
        <pt x="72" y="174" on="1"/>
        <pt x="73" y="140" on="0"/>
        <pt x="81" y="94" on="0"/>
        <pt x="101" y="67" on="0"/>
        <pt x="132" y="56" on="0"/>
        <pt x="155" y="56" on="1"/>
        <pt x="242" y="56" on="1"/>
        <pt x="185" y="108" on="0"/>
        <pt x="124" y="249" on="0"/>
        <pt x="124" y="321" on="1"/>
        <pt x="124" y="389" on="0"/>
        <pt x="177" y="509" on="0"/>
        <pt x="269" y="598" on="0"/>
        <pt x="390" y="649" on="0"/>
        <pt x="459" y="649" on="1"/>
        <pt x="516" y="649" on="0"/>
        <pt x="611" y="613" on="0"/>
        <pt x="680" y="548" on="0"/>
        <pt x="718" y="457" on="0"/>
        <pt x="718" y="403" on="1"/>
        <pt x="718" y="353" on="0"/>
        <pt x="689" y="254" on="0"/>
        <pt x="635" y="164" on="0"/>
        <pt x="560" y="86" on="0"/>
        <pt x="515" y="56" on="1"/>
        <pt x="616" y="56" on="1"/>
        <pt x="639" y="56" on="0"/>
        <pt x="672" y="67" on="0"/>
        <pt x="698" y="92" on="0"/>
        <pt x="718" y="136" on="0"/>
        <pt x="727" y="169" on="1"/>
        <pt x="768" y="174" on="1"/>
        <pt x="760" y="147" on="0"/>
        <pt x="752" y="119" on="1"/>
        <pt x="745" y="95" on="0"/>
        <pt x="732" y="37" on="0"/>
        <pt x="728" y="10" on="1"/>
      </contour>
    </TTGlyph>
    <TTGlyph name="Oslash" xMin="45" yMin="-98" xMax="644" yMax="708">
      <contour>
        <pt x="161" y="21" on="1"/>
        <pt x="107" y="54" on="0"/>
        <pt x="45" y="175" on="0"/>
        <pt x="45" y="254" on="1"/>
        <pt x="45" y="335" on="0"/>
        <pt x="101" y="478" on="0"/>
        <pt x="197" y="586" on="0"/>
        <pt x="325" y="648" on="0"/>
        <pt x="397" y="648" on="1"/>
        <pt x="442" y="648" on="0"/>
        <pt x="482" y="634" on="1"/>
        <pt x="521" y="708" on="1"/>
        <pt x="550" y="701" on="1"/>
        <pt x="553" y="689" on="1"/>
        <pt x="515" y="619" on="1"/>
        <pt x="575" y="587" on="0"/>
        <pt x="644" y="463" on="0"/>
        <pt x="644" y="382" on="1"/>
        <pt x="644" y="301" on="0"/>
        <pt x="587" y="157" on="0"/>
        <pt x="490" y="50" on="0"/>
        <pt x="359" y="-12" on="0"/>
        <pt x="286" y="-12" on="1"/>
        <pt x="260" y="-12" on="0"/>
        <pt x="214" y="-2" on="0"/>
        <pt x="192" y="6" on="1"/>
        <pt x="137" y="-98" on="1"/>
        <pt x="110" y="-92" on="1"/>
        <pt x="108" y="-82" on="1"/>
      </contour>
      <contour>
        <pt x="311" y="35" on="1"/>
        <pt x="364" y="35" on="0"/>
        <pt x="454" y="81" on="0"/>
        <pt x="520" y="164" on="0"/>
        <pt x="557" y="277" on="0"/>
        <pt x="557" y="343" on="1"/>
        <pt x="557" y="413" on="0"/>
        <pt x="516" y="520" on="0"/>
        <pt x="479" y="552" on="1"/>
        <pt x="221" y="61" on="1"/>
        <pt x="261" y="35" on="0"/>
      </contour>
      <contour>
        <pt x="127" y="285" on="1"/>
        <pt x="127" y="219" on="0"/>
        <pt x="162" y="116" on="0"/>
        <pt x="194" y="84" on="1"/>
        <pt x="450" y="572" on="1"/>
        <pt x="432" y="582" on="0"/>
        <pt x="391" y="593" on="0"/>
        <pt x="368" y="593" on="1"/>
        <pt x="316" y="593" on="0"/>
        <pt x="228" y="546" on="0"/>
        <pt x="163" y="463" on="0"/>
        <pt x="127" y="351" on="0"/>
      </contour>
    </TTGlyph>
    <TTGlyph name="Oslashacute" xMin="45" yMin="-98" xMax="644" yMax="841">
      <component glyphName="Oslash" x="0" y="0" flags="0x204"/>
      <component glyphName="acute.cap" x="120" y="0" flags="0x4"/>
    </TTGlyph>
    <TTGlyph name="Otilde" xMin="45" yMin="-12" xMax="644" yMax="820">
      <component glyphName="O" x="0" y="0" flags="0x4"/>
      <component glyphName="tilde.cap" x="144" y="0" flags="0x4"/>
    </TTGlyph>
    <TTGlyph name="P" xMin="34" yMin="-8" xMax="535" yMax="640">
      <contour>
        <pt x="127" y="640" on="1"/>
        <pt x="126" y="640" on="0"/>
        <pt x="149" y="639" on="0"/>
        <pt x="182" y="637" on="0"/>
        <pt x="218" y="636" on="0"/>
        <pt x="232" y="636" on="1"/>
        <pt x="242" y="636" on="0"/>
        <pt x="279" y="637" on="0"/>
        <pt x="297" y="638" on="1"/>
        <pt x="318" y="639" on="0"/>
        <pt x="342" y="640" on="1"/>
        <pt x="433" y="640" on="0"/>
        <pt x="535" y="563" on="0"/>
        <pt x="535" y="489" on="1"/>
        <pt x="535" y="442" on="0"/>
        <pt x="496" y="354" on="0"/>
        <pt x="430" y="287" on="0"/>
        <pt x="345" y="246" on="0"/>
        <pt x="299" y="246" on="1"/>
        <pt x="207" y="246" on="1"/>
        <pt x="184" y="92" on="1"/>
        <pt x="179" y="63" on="0"/>
        <pt x="197" y="41" on="0"/>
        <pt x="222" y="41" on="1"/>
        <pt x="229" y="41" on="0"/>
        <pt x="248" y="42" on="0"/>
        <pt x="256" y="43" on="1"/>
        <pt x="266" y="44" on="0"/>
        <pt x="275" y="45" on="1"/>
        <pt x="275" y="44" on="0"/>
        <pt x="276" y="42" on="0"/>
        <pt x="276" y="41" on="1"/>
        <pt x="262" y="-3" on="1"/>
        <pt x="262" y="-3" on="0"/>
        <pt x="244" y="-2" on="0"/>
        <pt x="218" y="-1" on="0"/>
        <pt x="188" y="0" on="0"/>
        <pt x="177" y="0" on="1"/>
        <pt x="157" y="0" on="0"/>
        <pt x="108" y="-2" on="0"/>
        <pt x="65" y="-4" on="0"/>
        <pt x="35" y="-7" on="0"/>
        <pt x="34" y="-8" on="1"/>
        <pt x="46" y="35" on="1"/>
        <pt x="68" y="39" on="0"/>
        <pt x="96" y="50" on="0"/>
        <pt x="114" y="68" on="0"/>
        <pt x="123" y="96" on="0"/>
        <pt x="126" y="117" on="1"/>
        <pt x="178" y="542" on="1"/>
        <pt x="182" y="574" on="0"/>
        <pt x="170" y="596" on="0"/>
        <pt x="149" y="596" on="1"/>
        <pt x="144" y="596" on="0"/>
        <pt x="134" y="595" on="0"/>
        <pt x="129" y="595" on="1"/>
        <pt x="123" y="594" on="0"/>
        <pt x="117" y="594" on="1"/>
        <pt x="115" y="598" on="1"/>
      </contour>
      <contour>
        <pt x="317" y="286" on="1"/>
        <pt x="385" y="297" on="0"/>
        <pt x="457" y="391" on="0"/>
        <pt x="457" y="469" on="1"/>
        <pt x="457" y="535" on="0"/>
        <pt x="376" y="596" on="0"/>
        <pt x="290" y="596" on="1"/>
        <pt x="270" y="596" on="0"/>
        <pt x="265" y="592" on="0"/>
        <pt x="263" y="582" on="1"/>
        <pt x="250" y="519" on="0"/>
        <pt x="227" y="373" on="0"/>
        <pt x="217" y="301" on="1"/>
      </contour>
    </TTGlyph>
    <TTGlyph name="Q" xMin="45" yMin="-214" xMax="736" yMax="648">
      <contour>
        <pt x="286" y="-12" on="1"/>
        <pt x="233" y="-12" on="0"/>
        <pt x="144" y="27" on="0"/>
        <pt x="80" y="97" on="0"/>
        <pt x="45" y="195" on="0"/>
        <pt x="45" y="254" on="1"/>
        <pt x="45" y="335" on="0"/>
        <pt x="101" y="478" on="0"/>
        <pt x="197" y="586" on="0"/>
        <pt x="325" y="648" on="0"/>
        <pt x="397" y="648" on="1"/>
        <pt x="452" y="648" on="0"/>
        <pt x="543" y="609" on="0"/>
        <pt x="608" y="538" on="0"/>
        <pt x="644" y="440" on="0"/>
        <pt x="644" y="382" on="1"/>
        <pt x="644" y="313" on="0"/>
        <pt x="603" y="188" on="0"/>
        <pt x="529" y="87" on="0"/>
        <pt x="429" y="16" on="0"/>
        <pt x="371" y="0" on="1"/>
        <pt x="371" y="-6" on="1"/>
        <pt x="418" y="-43" on="0"/>
        <pt x="496" y="-95" on="0"/>
        <pt x="563" y="-127" on="0"/>
        <pt x="622" y="-141" on="0"/>
        <pt x="651" y="-141" on="1"/>
        <pt x="684" y="-141" on="0"/>
        <pt x="707" y="-136" on="1"/>
        <pt x="719" y="-134" on="0"/>
        <pt x="729" y="-131" on="1"/>
        <pt x="733" y="-133" on="1"/>
        <pt x="736" y="-148" on="1"/>
        <pt x="714" y="-167" on="0"/>
        <pt x="695" y="-181" on="1"/>
        <pt x="678" y="-194" on="0"/>
        <pt x="647" y="-214" on="0"/>
        <pt x="640" y="-214" on="1"/>
        <pt x="605" y="-214" on="0"/>
        <pt x="544" y="-199" on="0"/>
        <pt x="468" y="-156" on="0"/>
        <pt x="364" y="-77" on="0"/>
        <pt x="287" y="-12" on="1"/>
      </contour>
      <contour>
        <pt x="311" y="35" on="1"/>
        <pt x="364" y="35" on="0"/>
        <pt x="454" y="81" on="0"/>
        <pt x="520" y="164" on="0"/>
        <pt x="557" y="277" on="0"/>
        <pt x="557" y="343" on="1"/>
        <pt x="557" y="400" on="0"/>
        <pt x="530" y="492" on="0"/>
        <pt x="480" y="557" on="0"/>
        <pt x="411" y="593" on="0"/>
        <pt x="368" y="593" on="1"/>
        <pt x="316" y="593" on="0"/>
        <pt x="228" y="546" on="0"/>
        <pt x="163" y="463" on="0"/>
        <pt x="127" y="351" on="0"/>
        <pt x="127" y="285" on="1"/>
        <pt x="127" y="228" on="0"/>
        <pt x="153" y="136" on="0"/>
        <pt x="201" y="71" on="0"/>
        <pt x="269" y="35" on="0"/>
      </contour>
    </TTGlyph>
    <TTGlyph name="R" xMin="28" yMin="-16" xMax="563" yMax="640">
      <contour>
        <pt x="212" y="276" on="1"/>
        <pt x="190" y="122" on="1"/>
        <pt x="186" y="95" on="0"/>
        <pt x="186" y="62" on="0"/>
        <pt x="199" y="44" on="0"/>
        <pt x="226" y="39" on="0"/>
        <pt x="249" y="39" on="1"/>
        <pt x="250" y="36" on="1"/>
        <pt x="237" y="-4" on="1"/>
        <pt x="221" y="-4" on="0"/>
        <pt x="204" y="-3" on="1"/>
        <pt x="190" y="-2" on="0"/>
        <pt x="154" y="-2" on="0"/>
        <pt x="137" y="-1" on="1"/>
        <pt x="119" y="-1" on="0"/>
        <pt x="81" y="-1" on="0"/>
        <pt x="65" y="-2" on="1"/>
        <pt x="47" y="-3" on="0"/>
        <pt x="28" y="-4" on="1"/>
        <pt x="42" y="39" on="1"/>
        <pt x="65" y="42" on="0"/>
        <pt x="95" y="50" on="0"/>
        <pt x="114" y="67" on="0"/>
        <pt x="123" y="95" on="0"/>
        <pt x="126" y="117" on="1"/>
        <pt x="178" y="541" on="1"/>
        <pt x="182" y="574" on="0"/>
        <pt x="170" y="596" on="0"/>
        <pt x="149" y="596" on="1"/>
        <pt x="144" y="596" on="0"/>
        <pt x="134" y="595" on="0"/>
        <pt x="129" y="595" on="1"/>
        <pt x="123" y="594" on="0"/>
        <pt x="117" y="594" on="1"/>
        <pt x="115" y="598" on="1"/>
        <pt x="127" y="640" on="1"/>
        <pt x="147" y="639" on="0"/>
        <pt x="166" y="638" on="1"/>
        <pt x="183" y="637" on="0"/>
        <pt x="218" y="636" on="0"/>
        <pt x="232" y="636" on="1"/>
        <pt x="244" y="636" on="0"/>
        <pt x="280" y="637" on="0"/>
        <pt x="297" y="638" on="1"/>
        <pt x="317" y="639" on="0"/>
        <pt x="339" y="640" on="1"/>
        <pt x="379" y="640" on="0"/>
        <pt x="447" y="621" on="0"/>
        <pt x="495" y="585" on="0"/>
        <pt x="522" y="534" on="0"/>
        <pt x="522" y="503" on="1"/>
        <pt x="522" y="437" on="0"/>
        <pt x="444" y="328" on="0"/>
        <pt x="365" y="293" on="1"/>
        <pt x="450" y="115" on="1"/>
        <pt x="473" y="67" on="0"/>
        <pt x="520" y="30" on="0"/>
        <pt x="560" y="30" on="1"/>
        <pt x="563" y="27" on="1"/>
        <pt x="554" y="-5" on="1"/>
        <pt x="473" y="-16" on="1"/>
        <pt x="449" y="-16" on="0"/>
        <pt x="401" y="36" on="0"/>
        <pt x="383" y="79" on="1"/>
        <pt x="303" y="276" on="1"/>
      </contour>
      <contour>
        <pt x="319" y="318" on="1"/>
        <pt x="318" y="318" on="0"/>
        <pt x="357" y="331" on="0"/>
        <pt x="404" y="369" on="0"/>
        <pt x="443" y="434" on="0"/>
        <pt x="443" y="486" on="1"/>
        <pt x="443" y="602" on="0"/>
        <pt x="281" y="602" on="1"/>
        <pt x="271" y="602" on="0"/>
        <pt x="264" y="593" on="0"/>
        <pt x="260" y="579" on="1"/>
        <pt x="244" y="499" on="0"/>
        <pt x="228" y="382" on="0"/>
        <pt x="221" y="328" on="1"/>
      </contour>
    </TTGlyph>
    <TTGlyph name="Racute" xMin="28" yMin="-16" xMax="563" yMax="841">
      <component glyphName="R" x="0" y="0" flags="0x4"/>
      <component glyphName="acute.cap" x="106" y="0" flags="0x4"/>
    </TTGlyph>
    <TTGlyph name="Rcaron" xMin="28" yMin="-16" xMax="563" yMax="838">
      <component glyphName="R" x="0" y="0" flags="0x4"/>
      <component glyphName="caron.cap" x="96" y="0" flags="0x4"/>
    </TTGlyph>
    <TTGlyph name="Rcommaaccent" xMin="28" yMin="-293" xMax="563" yMax="640">
      <component glyphName="R" x="0" y="0" flags="0x4"/>
      <component glyphName="commaaccent" x="127" y="0" flags="0x4"/>
    </TTGlyph>
    <TTGlyph name="S" xMin="32" yMin="-12" xMax="482" yMax="648">
      <contour>
        <pt x="192" y="-12" on="1"/>
        <pt x="158" y="-12" on="0"/>
        <pt x="101" y="-2" on="0"/>
        <pt x="80" y="4" on="1"/>
        <pt x="55" y="11" on="0"/>
        <pt x="36" y="21" on="1"/>
        <pt x="32" y="31" on="1"/>
        <pt x="38" y="54" on="0"/>
        <pt x="44" y="81" on="1"/>
        <pt x="49" y="104" on="0"/>
        <pt x="61" y="167" on="0"/>
        <pt x="66" y="205" on="1"/>
        <pt x="107" y="210" on="1"/>
        <pt x="100" y="154" on="0"/>
        <pt x="102" y="85" on="0"/>
        <pt x="124" y="46" on="0"/>
        <pt x="172" y="32" on="0"/>
        <pt x="211" y="32" on="1"/>
        <pt x="277" y="32" on="0"/>
        <pt x="361" y="99" on="0"/>
        <pt x="361" y="154" on="1"/>
        <pt x="361" y="174" on="0"/>
        <pt x="344" y="207" on="0"/>
        <pt x="315" y="237" on="0"/>
        <pt x="276" y="263" on="0"/>
        <pt x="255" y="276" on="1"/>
        <pt x="227" y="292" on="0"/>
        <pt x="171" y="327" on="0"/>
        <pt x="125" y="368" on="0"/>
        <pt x="96" y="418" on="0"/>
        <pt x="96" y="450" on="1"/>
        <pt x="96" y="491" on="0"/>
        <pt x="132" y="563" on="0"/>
        <pt x="194" y="617" on="0"/>
        <pt x="279" y="648" on="0"/>
        <pt x="328" y="648" on="1"/>
        <pt x="360" y="648" on="0"/>
        <pt x="416" y="641" on="0"/>
        <pt x="436" y="636" on="1"/>
        <pt x="460" y="631" on="0"/>
        <pt x="480" y="624" on="1"/>
        <pt x="482" y="619" on="1"/>
        <pt x="475" y="596" on="0"/>
        <pt x="468" y="569" on="1"/>
        <pt x="462" y="546" on="0"/>
        <pt x="447" y="485" on="0"/>
        <pt x="441" y="450" on="1"/>
        <pt x="405" y="446" on="1"/>
        <pt x="400" y="451" on="1"/>
        <pt x="402" y="464" on="0"/>
        <pt x="405" y="477" on="1"/>
        <pt x="407" y="488" on="0"/>
        <pt x="411" y="514" on="0"/>
        <pt x="411" y="525" on="1"/>
        <pt x="411" y="567" on="0"/>
        <pt x="364" y="599" on="0"/>
        <pt x="306" y="599" on="1"/>
        <pt x="277" y="599" on="0"/>
        <pt x="228" y="583" on="0"/>
        <pt x="191" y="554" on="0"/>
        <pt x="170" y="515" on="0"/>
        <pt x="170" y="492" on="1"/>
        <pt x="170" y="460" on="0"/>
        <pt x="212" y="412" on="0"/>
        <pt x="243" y="390" on="1"/>
        <pt x="273" y="370" on="0"/>
        <pt x="343" y="331" on="0"/>
        <pt x="402" y="286" on="0"/>
        <pt x="442" y="231" on="0"/>
        <pt x="442" y="195" on="1"/>
        <pt x="442" y="151" on="0"/>
        <pt x="405" y="75" on="0"/>
        <pt x="339" y="20" on="0"/>
        <pt x="247" y="-12" on="0"/>
      </contour>
    </TTGlyph>
    <TTGlyph name="Sacute" xMin="32" yMin="-12" xMax="482" yMax="841">
      <component glyphName="S" x="0" y="0" flags="0x4"/>
      <component glyphName="acute.cap" x="73" y="0" flags="0x4"/>
    </TTGlyph>
    <TTGlyph name="Scaron" xMin="32" yMin="-12" xMax="482" yMax="838">
      <component glyphName="S" x="0" y="0" flags="0x4"/>
      <component glyphName="caron.cap" x="73" y="0" flags="0x4"/>
    </TTGlyph>
    <TTGlyph name="Scedilla" xMin="32" yMin="-233" xMax="482" yMax="648">
      <contour>
        <pt x="191" y="-12" on="1"/>
        <pt x="157" y="-12" on="0"/>
        <pt x="101" y="-2" on="0"/>
        <pt x="80" y="4" on="1"/>
        <pt x="55" y="11" on="0"/>
        <pt x="36" y="21" on="1"/>
        <pt x="32" y="31" on="1"/>
        <pt x="38" y="54" on="0"/>
        <pt x="44" y="81" on="1"/>
        <pt x="49" y="104" on="0"/>
        <pt x="61" y="167" on="0"/>
        <pt x="66" y="205" on="1"/>
        <pt x="107" y="210" on="1"/>
        <pt x="100" y="154" on="0"/>
        <pt x="102" y="85" on="0"/>
        <pt x="124" y="46" on="0"/>
        <pt x="172" y="32" on="0"/>
        <pt x="211" y="32" on="1"/>
        <pt x="277" y="32" on="0"/>
        <pt x="361" y="99" on="0"/>
        <pt x="361" y="154" on="1"/>
        <pt x="361" y="174" on="0"/>
        <pt x="344" y="207" on="0"/>
        <pt x="315" y="237" on="0"/>
        <pt x="276" y="263" on="0"/>
        <pt x="255" y="276" on="1"/>
        <pt x="227" y="292" on="0"/>
        <pt x="171" y="327" on="0"/>
        <pt x="125" y="368" on="0"/>
        <pt x="96" y="418" on="0"/>
        <pt x="96" y="450" on="1"/>
        <pt x="96" y="491" on="0"/>
        <pt x="132" y="563" on="0"/>
        <pt x="194" y="617" on="0"/>
        <pt x="279" y="648" on="0"/>
        <pt x="328" y="648" on="1"/>
        <pt x="360" y="648" on="0"/>
        <pt x="416" y="641" on="0"/>
        <pt x="436" y="636" on="1"/>
        <pt x="460" y="631" on="0"/>
        <pt x="480" y="624" on="1"/>
        <pt x="482" y="619" on="1"/>
        <pt x="475" y="596" on="0"/>
        <pt x="468" y="569" on="1"/>
        <pt x="462" y="546" on="0"/>
        <pt x="447" y="485" on="0"/>
        <pt x="441" y="450" on="1"/>
        <pt x="405" y="446" on="1"/>
        <pt x="400" y="451" on="1"/>
        <pt x="402" y="464" on="0"/>
        <pt x="405" y="477" on="1"/>
        <pt x="407" y="488" on="0"/>
        <pt x="411" y="514" on="0"/>
        <pt x="411" y="525" on="1"/>
        <pt x="411" y="567" on="0"/>
        <pt x="364" y="599" on="0"/>
        <pt x="306" y="599" on="1"/>
        <pt x="277" y="599" on="0"/>
        <pt x="228" y="583" on="0"/>
        <pt x="191" y="554" on="0"/>
        <pt x="170" y="515" on="0"/>
        <pt x="170" y="492" on="1"/>
        <pt x="170" y="460" on="0"/>
        <pt x="212" y="412" on="0"/>
        <pt x="243" y="390" on="1"/>
        <pt x="273" y="370" on="0"/>
        <pt x="343" y="331" on="0"/>
        <pt x="402" y="286" on="0"/>
        <pt x="442" y="231" on="0"/>
        <pt x="442" y="195" on="1"/>
        <pt x="442" y="155" on="0"/>
        <pt x="412" y="85" on="0"/>
        <pt x="357" y="31" on="0"/>
        <pt x="280" y="-4" on="0"/>
        <pt x="233" y="-9" on="1"/>
        <pt x="215" y="-50" on="1"/>
        <pt x="225" y="-58" on="0"/>
        <pt x="251" y="-77" on="0"/>
        <pt x="272" y="-98" on="0"/>
        <pt x="287" y="-122" on="0"/>
        <pt x="287" y="-135" on="1"/>
        <pt x="287" y="-155" on="0"/>
        <pt x="263" y="-190" on="0"/>
        <pt x="225" y="-217" on="0"/>
        <pt x="180" y="-233" on="0"/>
        <pt x="159" y="-233" on="1"/>
        <pt x="138" y="-233" on="0"/>
        <pt x="97" y="-216" on="0"/>
        <pt x="97" y="-199" on="1"/>
        <pt x="97" y="-189" on="0"/>
        <pt x="119" y="-154" on="0"/>
        <pt x="129" y="-141" on="1"/>
        <pt x="137" y="-141" on="1"/>
        <pt x="135" y="-169" on="0"/>
        <pt x="160" y="-198" on="0"/>
        <pt x="183" y="-198" on="1"/>
        <pt x="203" y="-198" on="0"/>
        <pt x="234" y="-175" on="0"/>
        <pt x="234" y="-158" on="1"/>
        <pt x="234" y="-149" on="0"/>
        <pt x="221" y="-131" on="0"/>
        <pt x="200" y="-112" on="0"/>
        <pt x="174" y="-93" on="0"/>
        <pt x="161" y="-85" on="1"/>
      </contour>
    </TTGlyph>
    <TTGlyph name="Scircumflex" xMin="32" yMin="-12" xMax="482" yMax="846">
      <component glyphName="S" x="0" y="0" flags="0x4"/>
      <component glyphName="circumflex.cap" x="77" y="0" flags="0x4"/>
    </TTGlyph>
    <TTGlyph name="Scommaaccent" xMin="32" yMin="-293" xMax="482" yMax="648">
      <component glyphName="S" x="0" y="0" flags="0x4"/>
      <component glyphName="commaaccent" x="60" y="0" flags="0x4"/>
    </TTGlyph>
    <TTGlyph name="T" xMin="40" yMin="-4" xMax="549" yMax="648">
      <contour>
        <pt x="271" y="602" on="1"/>
        <pt x="213" y="599" on="0"/>
        <pt x="148" y="592" on="0"/>
        <pt x="113" y="568" on="0"/>
        <pt x="95" y="520" on="0"/>
        <pt x="84" y="477" on="1"/>
        <pt x="40" y="473" on="1"/>
        <pt x="47" y="498" on="0"/>
        <pt x="53" y="526" on="1"/>
        <pt x="58" y="550" on="0"/>
        <pt x="70" y="609" on="0"/>
        <pt x="75" y="641" on="1"/>
        <pt x="85" y="648" on="1"/>
        <pt x="161" y="637" on="1"/>
        <pt x="459" y="637" on="1"/>
        <pt x="541" y="648" on="1"/>
        <pt x="549" y="641" on="1"/>
        <pt x="546" y="609" on="0"/>
        <pt x="543" y="551" on="0"/>
        <pt x="543" y="528" on="1"/>
        <pt x="542" y="501" on="0"/>
        <pt x="543" y="477" on="1"/>
        <pt x="499" y="473" on="1"/>
        <pt x="498" y="518" on="0"/>
        <pt x="491" y="567" on="0"/>
        <pt x="463" y="592" on="0"/>
        <pt x="404" y="599" on="0"/>
        <pt x="351" y="602" on="1"/>
        <pt x="346" y="578" on="0"/>
        <pt x="331" y="490" on="0"/>
        <pt x="313" y="383" on="0"/>
        <pt x="296" y="269" on="0"/>
        <pt x="282" y="171" on="0"/>
        <pt x="273" y="101" on="0"/>
        <pt x="273" y="92" on="1"/>
        <pt x="273" y="65" on="0"/>
        <pt x="295" y="41" on="0"/>
        <pt x="320" y="41" on="1"/>
        <pt x="333" y="41" on="0"/>
        <pt x="354" y="41" on="0"/>
        <pt x="361" y="42" on="1"/>
        <pt x="369" y="43" on="0"/>
        <pt x="375" y="44" on="1"/>
        <pt x="377" y="40" on="1"/>
        <pt x="363" y="-3" on="1"/>
        <pt x="336" y="-3" on="0"/>
        <pt x="310" y="-2" on="1"/>
        <pt x="288" y="-1" on="0"/>
        <pt x="240" y="0" on="0"/>
        <pt x="223" y="0" on="1"/>
        <pt x="206" y="0" on="0"/>
        <pt x="161" y="-1" on="0"/>
        <pt x="141" y="-2" on="1"/>
        <pt x="117" y="-3" on="0"/>
        <pt x="94" y="-4" on="1"/>
        <pt x="106" y="36" on="1"/>
        <pt x="140" y="39" on="0"/>
        <pt x="179" y="49" on="0"/>
        <pt x="202" y="75" on="0"/>
        <pt x="213" y="121" on="0"/>
        <pt x="218" y="162" on="1"/>
      </contour>
    </TTGlyph>
    <TTGlyph name="Tbar" xMin="40" yMin="-4" xMax="549" yMax="648">
      <contour>
        <pt x="235" y="309" on="1"/>
        <pt x="146" y="308" on="1"/>
        <pt x="137" y="317" on="1"/>
        <pt x="144" y="356" on="1"/>
        <pt x="241" y="355" on="1"/>
        <pt x="271" y="602" on="1"/>
        <pt x="213" y="599" on="0"/>
        <pt x="148" y="592" on="0"/>
        <pt x="113" y="568" on="0"/>
        <pt x="95" y="520" on="0"/>
        <pt x="84" y="477" on="1"/>
        <pt x="40" y="473" on="1"/>
        <pt x="47" y="498" on="0"/>
        <pt x="53" y="526" on="1"/>
        <pt x="58" y="550" on="0"/>
        <pt x="70" y="609" on="0"/>
        <pt x="75" y="641" on="1"/>
        <pt x="85" y="648" on="1"/>
        <pt x="161" y="637" on="1"/>
        <pt x="459" y="637" on="1"/>
        <pt x="541" y="648" on="1"/>
        <pt x="549" y="641" on="1"/>
        <pt x="546" y="609" on="0"/>
        <pt x="543" y="551" on="0"/>
        <pt x="543" y="528" on="1"/>
        <pt x="542" y="501" on="0"/>
        <pt x="543" y="477" on="1"/>
        <pt x="499" y="473" on="1"/>
        <pt x="498" y="518" on="0"/>
        <pt x="491" y="567" on="0"/>
        <pt x="463" y="592" on="0"/>
        <pt x="404" y="599" on="0"/>
        <pt x="351" y="602" on="1"/>
        <pt x="348" y="586" on="0"/>
        <pt x="338" y="534" on="0"/>
        <pt x="327" y="469" on="0"/>
        <pt x="315" y="394" on="0"/>
        <pt x="309" y="356" on="1"/>
        <pt x="389" y="360" on="1"/>
        <pt x="402" y="347" on="1"/>
        <pt x="398" y="310" on="1"/>
        <pt x="302" y="309" on="1"/>
        <pt x="296" y="270" on="0"/>
        <pt x="285" y="197" on="0"/>
        <pt x="278" y="139" on="0"/>
        <pt x="273" y="99" on="0"/>
        <pt x="273" y="92" on="1"/>
        <pt x="273" y="65" on="0"/>
        <pt x="295" y="41" on="0"/>
        <pt x="320" y="41" on="1"/>
        <pt x="333" y="41" on="0"/>
        <pt x="354" y="41" on="0"/>
        <pt x="361" y="42" on="1"/>
        <pt x="369" y="43" on="0"/>
        <pt x="375" y="44" on="1"/>
        <pt x="377" y="40" on="1"/>
        <pt x="363" y="-3" on="1"/>
        <pt x="336" y="-3" on="0"/>
        <pt x="310" y="-2" on="1"/>
        <pt x="288" y="-1" on="0"/>
        <pt x="240" y="0" on="0"/>
        <pt x="223" y="0" on="1"/>
        <pt x="206" y="0" on="0"/>
        <pt x="161" y="-1" on="0"/>
        <pt x="141" y="-2" on="1"/>
        <pt x="117" y="-3" on="0"/>
        <pt x="94" y="-4" on="1"/>
        <pt x="106" y="36" on="1"/>
        <pt x="140" y="39" on="0"/>
        <pt x="179" y="49" on="0"/>
        <pt x="202" y="75" on="0"/>
        <pt x="213" y="121" on="0"/>
        <pt x="218" y="162" on="1"/>
      </contour>
    </TTGlyph>
    <TTGlyph name="Tcaron" xMin="40" yMin="-4" xMax="549" yMax="838">
      <component glyphName="T" x="0" y="0" flags="0x4"/>
      <component glyphName="caron.cap" x="77" y="0" flags="0x4"/>
    </TTGlyph>
    <TTGlyph name="Tcedilla" xMin="40" yMin="-233" xMax="549" yMax="648">
      <contour>
        <pt x="218" y="0" on="1"/>
        <pt x="201" y="0" on="0"/>
        <pt x="158" y="-1" on="0"/>
        <pt x="139" y="-2" on="1"/>
        <pt x="117" y="-3" on="0"/>
        <pt x="94" y="-4" on="1"/>
        <pt x="106" y="36" on="1"/>
        <pt x="140" y="39" on="0"/>
        <pt x="179" y="49" on="0"/>
        <pt x="202" y="75" on="0"/>
        <pt x="213" y="121" on="0"/>
        <pt x="218" y="162" on="1"/>
        <pt x="271" y="602" on="1"/>
        <pt x="213" y="599" on="0"/>
        <pt x="148" y="592" on="0"/>
        <pt x="113" y="568" on="0"/>
        <pt x="95" y="520" on="0"/>
        <pt x="84" y="477" on="1"/>
        <pt x="40" y="473" on="1"/>
        <pt x="47" y="498" on="0"/>
        <pt x="53" y="526" on="1"/>
        <pt x="58" y="550" on="0"/>
        <pt x="70" y="609" on="0"/>
        <pt x="75" y="641" on="1"/>
        <pt x="85" y="648" on="1"/>
        <pt x="161" y="637" on="1"/>
        <pt x="459" y="637" on="1"/>
        <pt x="541" y="648" on="1"/>
        <pt x="549" y="641" on="1"/>
        <pt x="546" y="609" on="0"/>
        <pt x="543" y="551" on="0"/>
        <pt x="543" y="528" on="1"/>
        <pt x="542" y="501" on="0"/>
        <pt x="543" y="477" on="1"/>
        <pt x="499" y="473" on="1"/>
        <pt x="498" y="518" on="0"/>
        <pt x="491" y="567" on="0"/>
        <pt x="463" y="592" on="0"/>
        <pt x="404" y="599" on="0"/>
        <pt x="351" y="602" on="1"/>
        <pt x="346" y="578" on="0"/>
        <pt x="331" y="490" on="0"/>
        <pt x="313" y="383" on="0"/>
        <pt x="296" y="269" on="0"/>
        <pt x="282" y="171" on="0"/>
        <pt x="273" y="101" on="0"/>
        <pt x="273" y="92" on="1"/>
        <pt x="273" y="65" on="0"/>
        <pt x="295" y="41" on="0"/>
        <pt x="320" y="41" on="1"/>
        <pt x="333" y="41" on="0"/>
        <pt x="354" y="41" on="0"/>
        <pt x="361" y="42" on="1"/>
        <pt x="369" y="43" on="0"/>
        <pt x="375" y="44" on="1"/>
        <pt x="377" y="40" on="1"/>
        <pt x="363" y="-3" on="1"/>
        <pt x="347" y="-3" on="0"/>
        <pt x="329" y="-2" on="1"/>
        <pt x="314" y="-1" on="0"/>
        <pt x="276" y="-1" on="0"/>
        <pt x="259" y="0" on="1"/>
        <pt x="237" y="-50" on="1"/>
        <pt x="247" y="-58" on="0"/>
        <pt x="273" y="-77" on="0"/>
        <pt x="294" y="-98" on="0"/>
        <pt x="309" y="-122" on="0"/>
        <pt x="309" y="-135" on="1"/>
        <pt x="309" y="-155" on="0"/>
        <pt x="285" y="-190" on="0"/>
        <pt x="247" y="-217" on="0"/>
        <pt x="202" y="-233" on="0"/>
        <pt x="181" y="-233" on="1"/>
        <pt x="160" y="-233" on="0"/>
        <pt x="119" y="-216" on="0"/>
        <pt x="119" y="-199" on="1"/>
        <pt x="119" y="-189" on="0"/>
        <pt x="141" y="-154" on="0"/>
        <pt x="151" y="-141" on="1"/>
        <pt x="159" y="-141" on="1"/>
        <pt x="157" y="-169" on="0"/>
        <pt x="182" y="-198" on="0"/>
        <pt x="205" y="-198" on="1"/>
        <pt x="225" y="-198" on="0"/>
        <pt x="256" y="-175" on="0"/>
        <pt x="256" y="-158" on="1"/>
        <pt x="256" y="-149" on="0"/>
        <pt x="243" y="-131" on="0"/>
        <pt x="222" y="-112" on="0"/>
        <pt x="196" y="-93" on="0"/>
        <pt x="183" y="-85" on="1"/>
      </contour>
    </TTGlyph>
    <TTGlyph name="Thorn" xMin="24" yMin="-12" xMax="519" yMax="646">
      <contour>
        <pt x="253" y="503" on="1"/>
        <pt x="331" y="503" on="1"/>
        <pt x="423" y="503" on="0"/>
        <pt x="519" y="429" on="0"/>
        <pt x="519" y="360" on="1"/>
        <pt x="519" y="317" on="0"/>
        <pt x="476" y="240" on="0"/>
        <pt x="406" y="182" on="0"/>
        <pt x="314" y="148" on="0"/>
        <pt x="266" y="148" on="1"/>
        <pt x="198" y="148" on="1"/>
        <pt x="193" y="112" on="1"/>
        <pt x="188" y="71" on="0"/>
        <pt x="201" y="44" on="0"/>
        <pt x="227" y="44" on="1"/>
        <pt x="235" y="44" on="0"/>
        <pt x="253" y="44" on="0"/>
        <pt x="261" y="45" on="1"/>
        <pt x="270" y="46" on="0"/>
        <pt x="278" y="47" on="1"/>
        <pt x="279" y="43" on="1"/>
        <pt x="265" y="-3" on="1"/>
        <pt x="241" y="-3" on="0"/>
        <pt x="218" y="-2" on="1"/>
        <pt x="198" y="-1" on="0"/>
        <pt x="155" y="0" on="0"/>
        <pt x="138" y="0" on="1"/>
        <pt x="119" y="0" on="0"/>
        <pt x="80" y="-4" on="0"/>
        <pt x="63" y="-6" on="1"/>
        <pt x="44" y="-9" on="0"/>
        <pt x="24" y="-12" on="1"/>
        <pt x="36" y="34" on="1"/>
        <pt x="59" y="38" on="0"/>
        <pt x="90" y="51" on="0"/>
        <pt x="110" y="70" on="0"/>
        <pt x="120" y="99" on="0"/>
        <pt x="123" y="120" on="1"/>
        <pt x="175" y="540" on="1"/>
        <pt x="179" y="572" on="0"/>
        <pt x="168" y="594" on="0"/>
        <pt x="146" y="594" on="1"/>
        <pt x="141" y="594" on="0"/>
        <pt x="127" y="593" on="0"/>
        <pt x="121" y="593" on="1"/>
        <pt x="114" y="592" on="0"/>
        <pt x="106" y="592" on="1"/>
        <pt x="104" y="596" on="1"/>
        <pt x="117" y="640" on="1"/>
        <pt x="117" y="640" on="0"/>
        <pt x="142" y="639" on="0"/>
        <pt x="178" y="638" on="0"/>
        <pt x="217" y="637" on="0"/>
        <pt x="232" y="637" on="1"/>
        <pt x="249" y="637" on="0"/>
        <pt x="288" y="639" on="0"/>
        <pt x="305" y="641" on="1"/>
        <pt x="325" y="643" on="0"/>
        <pt x="345" y="646" on="1"/>
        <pt x="335" y="601" on="1"/>
        <pt x="315" y="598" on="0"/>
        <pt x="288" y="591" on="0"/>
        <pt x="271" y="578" on="0"/>
        <pt x="262" y="558" on="0"/>
        <pt x="260" y="544" on="1"/>
      </contour>
      <contour>
        <pt x="243" y="446" on="1"/>
        <pt x="229" y="359" on="0"/>
        <pt x="211" y="247" on="0"/>
        <pt x="206" y="209" on="1"/>
        <pt x="214" y="206" on="0"/>
        <pt x="238" y="200" on="0"/>
        <pt x="265" y="196" on="0"/>
        <pt x="291" y="192" on="0"/>
        <pt x="301" y="192" on="1"/>
        <pt x="367" y="200" on="0"/>
        <pt x="432" y="276" on="0"/>
        <pt x="432" y="341" on="1"/>
        <pt x="432" y="399" on="0"/>
        <pt x="354" y="454" on="0"/>
        <pt x="269" y="454" on="1"/>
        <pt x="253" y="454" on="0"/>
        <pt x="245" y="451" on="0"/>
      </contour>
    </TTGlyph>
    <TTGlyph name="U" xMin="81" yMin="-12" xMax="675" yMax="646">
      <contour>
        <pt x="178" y="252" on="1"/>
        <pt x="175" y="225" on="0"/>
        <pt x="175" y="202" on="1"/>
        <pt x="175" y="124" on="0"/>
        <pt x="246" y="41" on="0"/>
        <pt x="315" y="41" on="1"/>
        <pt x="396" y="41" on="0"/>
        <pt x="490" y="130" on="0"/>
        <pt x="500" y="215" on="1"/>
        <pt x="501" y="228" on="0"/>
        <pt x="506" y="270" on="0"/>
        <pt x="512" y="321" on="0"/>
        <pt x="518" y="378" on="0"/>
        <pt x="521" y="405" on="1"/>
        <pt x="528" y="469" on="0"/>
        <pt x="535" y="542" on="1"/>
        <pt x="537" y="576" on="0"/>
        <pt x="527" y="596" on="0"/>
        <pt x="506" y="596" on="1"/>
        <pt x="501" y="596" on="0"/>
        <pt x="487" y="595" on="0"/>
        <pt x="480" y="595" on="1"/>
        <pt x="472" y="594" on="0"/>
        <pt x="463" y="594" on="1"/>
        <pt x="463" y="598" on="1"/>
        <pt x="474" y="639" on="1"/>
        <pt x="495" y="638" on="0"/>
        <pt x="514" y="637" on="1"/>
        <pt x="531" y="636" on="0"/>
        <pt x="567" y="636" on="0"/>
        <pt x="581" y="636" on="1"/>
        <pt x="596" y="636" on="0"/>
        <pt x="629" y="639" on="0"/>
        <pt x="643" y="641" on="1"/>
        <pt x="659" y="643" on="0"/>
        <pt x="675" y="646" on="1"/>
        <pt x="665" y="603" on="1"/>
        <pt x="644" y="600" on="0"/>
        <pt x="617" y="594" on="0"/>
        <pt x="601" y="582" on="0"/>
        <pt x="594" y="562" on="0"/>
        <pt x="592" y="546" on="1"/>
        <pt x="550" y="206" on="1"/>
        <pt x="537" y="102" on="0"/>
        <pt x="399" y="-12" on="0"/>
        <pt x="286" y="-12" on="1"/>
        <pt x="195" y="-12" on="0"/>
        <pt x="100" y="82" on="0"/>
        <pt x="101" y="170" on="1"/>
        <pt x="101" y="189" on="0"/>
        <pt x="104" y="210" on="1"/>
        <pt x="145" y="542" on="1"/>
        <pt x="149" y="574" on="0"/>
        <pt x="138" y="596" on="0"/>
        <pt x="115" y="596" on="1"/>
        <pt x="110" y="596" on="0"/>
        <pt x="99" y="595" on="0"/>
        <pt x="94" y="595" on="1"/>
        <pt x="88" y="594" on="0"/>
        <pt x="82" y="594" on="1"/>
        <pt x="81" y="598" on="1"/>
        <pt x="93" y="639" on="1"/>
        <pt x="113" y="638" on="0"/>
        <pt x="132" y="637" on="1"/>
        <pt x="149" y="636" on="0"/>
        <pt x="185" y="636" on="0"/>
        <pt x="199" y="636" on="1"/>
        <pt x="214" y="636" on="0"/>
        <pt x="250" y="639" on="0"/>
        <pt x="265" y="641" on="1"/>
        <pt x="283" y="643" on="0"/>
        <pt x="300" y="646" on="1"/>
        <pt x="291" y="603" on="1"/>
        <pt x="254" y="598" on="0"/>
        <pt x="227" y="575" on="0"/>
        <pt x="222" y="546" on="1"/>
      </contour>
    </TTGlyph>
    <TTGlyph name="Uacute" xMin="81" yMin="-12" xMax="675" yMax="841">
      <component glyphName="U" x="0" y="0" flags="0x4"/>
      <component glyphName="acute.cap" x="158" y="0" flags="0x4"/>
    </TTGlyph>
    <TTGlyph name="Ubreve" xMin="81" yMin="-12" xMax="675" yMax="818">
      <component glyphName="U" x="0" y="0" flags="0x4"/>
      <component glyphName="breve.cap" x="134" y="0" flags="0x4"/>
    </TTGlyph>
    <TTGlyph name="Ucircumflex" xMin="81" yMin="-12" xMax="675" yMax="846">
      <component glyphName="U" x="0" y="0" flags="0x4"/>
      <component glyphName="circumflex.cap" x="148" y="0" flags="0x4"/>
    </TTGlyph>
    <TTGlyph name="Udieresis" xMin="81" yMin="-12" xMax="675" yMax="818">
      <component glyphName="U" x="0" y="0" flags="0x4"/>
      <component glyphName="dieresis.cap" x="148" y="0" flags="0x4"/>
    </TTGlyph>
    <TTGlyph name="Ugrave" xMin="81" yMin="-12" xMax="675" yMax="841">
      <component glyphName="U" x="0" y="0" flags="0x4"/>
      <component glyphName="grave.cap" x="145" y="0" flags="0x4"/>
    </TTGlyph>
    <TTGlyph name="Uhungarumlaut" xMin="81" yMin="-12" xMax="675" yMax="837">
      <component glyphName="U" x="0" y="0" flags="0x4"/>
      <component glyphName="hungarumlaut.cap" x="152" y="0" flags="0x4"/>
    </TTGlyph>
    <TTGlyph name="Umacron" xMin="81" yMin="-12" xMax="675" yMax="788">
      <component glyphName="U" x="0" y="0" flags="0x4"/>
      <component glyphName="macron.cap" x="147" y="0" flags="0x4"/>
    </TTGlyph>
    <TTGlyph name="Uogonek" xMin="81" yMin="-241" xMax="675" yMax="646">
      <contour>
        <pt x="477" y="-178" on="1"/>
        <pt x="462" y="-191" on="0"/>
        <pt x="444" y="-203" on="1"/>
        <pt x="429" y="-214" on="0"/>
        <pt x="392" y="-235" on="0"/>
        <pt x="373" y="-241" on="1"/>
        <pt x="328" y="-241" on="0"/>
        <pt x="277" y="-196" on="0"/>
        <pt x="277" y="-158" on="1"/>
        <pt x="277" y="-128" on="0"/>
        <pt x="325" y="-54" on="0"/>
        <pt x="379" y="0" on="1"/>
        <pt x="337" y="-12" on="0"/>
        <pt x="286" y="-12" on="1"/>
        <pt x="195" y="-12" on="0"/>
        <pt x="100" y="82" on="0"/>
        <pt x="101" y="170" on="1"/>
        <pt x="101" y="189" on="0"/>
        <pt x="104" y="210" on="1"/>
        <pt x="145" y="542" on="1"/>
        <pt x="149" y="575" on="0"/>
        <pt x="137" y="596" on="0"/>
        <pt x="115" y="596" on="1"/>
        <pt x="110" y="596" on="0"/>
        <pt x="99" y="595" on="0"/>
        <pt x="94" y="595" on="1"/>
        <pt x="88" y="594" on="0"/>
        <pt x="82" y="594" on="1"/>
        <pt x="81" y="598" on="1"/>
        <pt x="93" y="639" on="1"/>
        <pt x="113" y="638" on="0"/>
        <pt x="132" y="637" on="1"/>
        <pt x="149" y="636" on="0"/>
        <pt x="185" y="636" on="0"/>
        <pt x="199" y="636" on="1"/>
        <pt x="214" y="636" on="0"/>
        <pt x="250" y="639" on="0"/>
        <pt x="265" y="641" on="1"/>
        <pt x="283" y="643" on="0"/>
        <pt x="300" y="646" on="1"/>
        <pt x="291" y="603" on="1"/>
        <pt x="254" y="598" on="0"/>
        <pt x="226" y="574" on="0"/>
        <pt x="222" y="546" on="1"/>
        <pt x="178" y="252" on="1"/>
        <pt x="175" y="225" on="0"/>
        <pt x="175" y="202" on="1"/>
        <pt x="175" y="123" on="0"/>
        <pt x="246" y="41" on="0"/>
        <pt x="315" y="41" on="1"/>
        <pt x="395" y="41" on="0"/>
        <pt x="489" y="129" on="0"/>
        <pt x="500" y="215" on="1"/>
        <pt x="501" y="228" on="0"/>
        <pt x="506" y="270" on="0"/>
        <pt x="512" y="321" on="0"/>
        <pt x="518" y="378" on="0"/>
        <pt x="521" y="405" on="1"/>
        <pt x="528" y="469" on="0"/>
        <pt x="535" y="542" on="1"/>
        <pt x="537" y="577" on="0"/>
        <pt x="527" y="596" on="0"/>
        <pt x="506" y="596" on="1"/>
        <pt x="501" y="596" on="0"/>
        <pt x="487" y="595" on="0"/>
        <pt x="480" y="595" on="1"/>
        <pt x="472" y="594" on="0"/>
        <pt x="463" y="594" on="1"/>
        <pt x="463" y="598" on="1"/>
        <pt x="474" y="639" on="1"/>
        <pt x="495" y="638" on="0"/>
        <pt x="514" y="637" on="1"/>
        <pt x="531" y="636" on="0"/>
        <pt x="567" y="636" on="0"/>
        <pt x="581" y="636" on="1"/>
        <pt x="596" y="636" on="0"/>
        <pt x="629" y="639" on="0"/>
        <pt x="643" y="641" on="1"/>
        <pt x="659" y="643" on="0"/>
        <pt x="675" y="646" on="1"/>
        <pt x="665" y="603" on="1"/>
        <pt x="642" y="600" on="0"/>
        <pt x="615" y="592" on="0"/>
        <pt x="599" y="580" on="0"/>
        <pt x="593" y="561" on="0"/>
        <pt x="592" y="546" on="1"/>
        <pt x="550" y="206" on="1"/>
        <pt x="544" y="158" on="0"/>
        <pt x="504" y="76" on="0"/>
        <pt x="473" y="45" on="1"/>
        <pt x="431" y="3" on="0"/>
        <pt x="380" y="-54" on="0"/>
        <pt x="351" y="-93" on="0"/>
        <pt x="341" y="-120" on="0"/>
        <pt x="341" y="-134" on="1"/>
        <pt x="341" y="-156" on="0"/>
        <pt x="368" y="-182" on="0"/>
        <pt x="390" y="-182" on="1"/>
        <pt x="404" y="-182" on="0"/>
        <pt x="431" y="-176" on="0"/>
        <pt x="442" y="-171" on="1"/>
        <pt x="455" y="-166" on="0"/>
        <pt x="467" y="-159" on="1"/>
      </contour>
    </TTGlyph>
    <TTGlyph name="Uring" xMin="81" yMin="-12" xMax="675" yMax="838">
      <component glyphName="U" x="0" y="0" flags="0x4"/>
      <component glyphName="ring.cap" x="148" y="0" flags="0x4"/>
    </TTGlyph>
    <TTGlyph name="Utilde" xMin="81" yMin="-12" xMax="675" yMax="820">
      <component glyphName="U" x="0" y="0" flags="0x4"/>
      <component glyphName="tilde.cap" x="137" y="0" flags="0x4"/>
    </TTGlyph>
    <TTGlyph name="V" xMin="38" yMin="-17" xMax="637" yMax="648">
      <contour>
        <pt x="122" y="538" on="1"/>
        <pt x="112" y="594" on="0"/>
        <pt x="39" y="595" on="1"/>
        <pt x="38" y="599" on="1"/>
        <pt x="50" y="639" on="1"/>
        <pt x="72" y="638" on="0"/>
        <pt x="92" y="637" on="1"/>
        <pt x="109" y="636" on="0"/>
        <pt x="147" y="636" on="0"/>
        <pt x="159" y="636" on="1"/>
        <pt x="178" y="636" on="0"/>
        <pt x="227" y="640" on="0"/>
        <pt x="250" y="642" on="1"/>
        <pt x="276" y="645" on="0"/>
        <pt x="304" y="648" on="1"/>
        <pt x="306" y="641" on="1"/>
        <pt x="297" y="604" on="1"/>
        <pt x="267" y="602" on="0"/>
        <pt x="231" y="596" on="0"/>
        <pt x="212" y="586" on="0"/>
        <pt x="206" y="571" on="0"/>
        <pt x="206" y="560" on="1"/>
        <pt x="206" y="551" on="0"/>
        <pt x="212" y="502" on="0"/>
        <pt x="221" y="433" on="0"/>
        <pt x="233" y="351" on="0"/>
        <pt x="239" y="309" on="1"/>
        <pt x="253" y="211" on="0"/>
        <pt x="272" y="93" on="1"/>
        <pt x="280" y="93" on="1"/>
        <pt x="297" y="128" on="0"/>
        <pt x="343" y="221" on="0"/>
        <pt x="391" y="321" on="0"/>
        <pt x="439" y="420" on="0"/>
        <pt x="476" y="501" on="0"/>
        <pt x="499" y="556" on="0"/>
        <pt x="499" y="563" on="1"/>
        <pt x="499" y="599" on="0"/>
        <pt x="437" y="599" on="1"/>
        <pt x="386" y="599" on="1"/>
        <pt x="384" y="603" on="1"/>
        <pt x="395" y="644" on="1"/>
        <pt x="416" y="642" on="0"/>
        <pt x="439" y="640" on="1"/>
        <pt x="459" y="638" on="0"/>
        <pt x="507" y="636" on="0"/>
        <pt x="531" y="636" on="1"/>
        <pt x="548" y="636" on="0"/>
        <pt x="585" y="637" on="0"/>
        <pt x="601" y="638" on="1"/>
        <pt x="619" y="639" on="0"/>
        <pt x="637" y="640" on="1"/>
        <pt x="624" y="595" on="1"/>
        <pt x="609" y="594" on="0"/>
        <pt x="589" y="590" on="0"/>
        <pt x="573" y="579" on="0"/>
        <pt x="560" y="561" on="0"/>
        <pt x="553" y="547" on="1"/>
        <pt x="285" y="5" on="1"/>
        <pt x="227" y="-17" on="1"/>
        <pt x="212" y="68" on="0"/>
        <pt x="194" y="160" on="1"/>
        <pt x="179" y="239" on="0"/>
        <pt x="141" y="436" on="0"/>
      </contour>
    </TTGlyph>
    <TTGlyph name="W" xMin="40" yMin="-17" xMax="942" yMax="648">
      <contour>
        <pt x="535" y="-17" on="1"/>
        <pt x="467" y="415" on="1"/>
        <pt x="461" y="415" on="1"/>
        <pt x="272" y="5" on="1"/>
        <pt x="213" y="-17" on="1"/>
        <pt x="200" y="68" on="0"/>
        <pt x="185" y="160" on="1"/>
        <pt x="172" y="239" on="0"/>
        <pt x="139" y="437" on="0"/>
        <pt x="121" y="538" on="1"/>
        <pt x="116" y="567" on="0"/>
        <pt x="78" y="594" on="0"/>
        <pt x="42" y="595" on="1"/>
        <pt x="40" y="599" on="1"/>
        <pt x="51" y="639" on="1"/>
        <pt x="73" y="638" on="0"/>
        <pt x="93" y="637" on="1"/>
        <pt x="110" y="636" on="0"/>
        <pt x="146" y="636" on="0"/>
        <pt x="157" y="636" on="1"/>
        <pt x="183" y="636" on="0"/>
        <pt x="232" y="640" on="0"/>
        <pt x="252" y="642" on="1"/>
        <pt x="275" y="645" on="0"/>
        <pt x="297" y="648" on="1"/>
        <pt x="299" y="641" on="1"/>
        <pt x="292" y="604" on="1"/>
        <pt x="263" y="602" on="0"/>
        <pt x="227" y="596" on="0"/>
        <pt x="208" y="586" on="0"/>
        <pt x="202" y="571" on="0"/>
        <pt x="202" y="559" on="1"/>
        <pt x="202" y="548" on="0"/>
        <pt x="207" y="497" on="0"/>
        <pt x="216" y="428" on="0"/>
        <pt x="227" y="346" on="0"/>
        <pt x="233" y="305" on="1"/>
        <pt x="247" y="208" on="0"/>
        <pt x="265" y="93" on="1"/>
        <pt x="271" y="93" on="1"/>
        <pt x="316" y="191" on="0"/>
        <pt x="408" y="380" on="0"/>
        <pt x="456" y="480" on="1"/>
        <pt x="451" y="492" on="0"/>
        <pt x="447" y="522" on="0"/>
        <pt x="445" y="536" on="1"/>
        <pt x="438" y="567" on="0"/>
        <pt x="399" y="593" on="0"/>
        <pt x="364" y="595" on="1"/>
        <pt x="363" y="599" on="1"/>
        <pt x="375" y="639" on="1"/>
        <pt x="396" y="638" on="0"/>
        <pt x="416" y="637" on="1"/>
        <pt x="433" y="636" on="0"/>
        <pt x="469" y="636" on="0"/>
        <pt x="481" y="636" on="1"/>
        <pt x="502" y="636" on="0"/>
        <pt x="551" y="640" on="0"/>
        <pt x="572" y="642" on="1"/>
        <pt x="597" y="645" on="0"/>
        <pt x="621" y="648" on="1"/>
        <pt x="622" y="641" on="1"/>
        <pt x="614" y="604" on="1"/>
        <pt x="584" y="602" on="0"/>
        <pt x="549" y="596" on="0"/>
        <pt x="530" y="586" on="0"/>
        <pt x="524" y="571" on="0"/>
        <pt x="524" y="560" on="1"/>
        <pt x="524" y="551" on="0"/>
        <pt x="529" y="501" on="0"/>
        <pt x="538" y="432" on="0"/>
        <pt x="550" y="350" on="0"/>
        <pt x="556" y="308" on="1"/>
        <pt x="570" y="210" on="0"/>
        <pt x="588" y="93" on="1"/>
        <pt x="594" y="93" on="1"/>
        <pt x="610" y="127" on="0"/>
        <pt x="655" y="221" on="0"/>
        <pt x="703" y="321" on="0"/>
        <pt x="749" y="421" on="0"/>
        <pt x="786" y="504" on="0"/>
        <pt x="809" y="561" on="0"/>
        <pt x="809" y="568" on="1"/>
        <pt x="809" y="599" on="0"/>
        <pt x="747" y="599" on="1"/>
        <pt x="699" y="599" on="1"/>
        <pt x="697" y="603" on="1"/>
        <pt x="709" y="644" on="1"/>
        <pt x="730" y="642" on="0"/>
        <pt x="752" y="640" on="1"/>
        <pt x="771" y="638" on="0"/>
        <pt x="818" y="636" on="0"/>
        <pt x="841" y="636" on="1"/>
        <pt x="857" y="636" on="0"/>
        <pt x="893" y="637" on="0"/>
        <pt x="908" y="638" on="1"/>
        <pt x="926" y="639" on="0"/>
        <pt x="942" y="640" on="1"/>
        <pt x="930" y="595" on="1"/>
        <pt x="916" y="594" on="0"/>
        <pt x="897" y="590" on="0"/>
        <pt x="882" y="580" on="0"/>
        <pt x="869" y="562" on="0"/>
        <pt x="862" y="547" on="1"/>
        <pt x="592" y="5" on="1"/>
      </contour>
    </TTGlyph>
    <TTGlyph name="Wacute" xMin="40" yMin="-17" xMax="942" yMax="841">
      <component glyphName="W" x="0" y="0" flags="0x4"/>
      <component glyphName="acute.cap" x="277" y="0" flags="0x4"/>
    </TTGlyph>
    <TTGlyph name="Wcircumflex" xMin="40" yMin="-17" xMax="942" yMax="846">
      <component glyphName="W" x="0" y="0" flags="0x4"/>
      <component glyphName="circumflex.cap" x="267" y="0" flags="0x4"/>
    </TTGlyph>
    <TTGlyph name="Wdieresis" xMin="40" yMin="-17" xMax="942" yMax="818">
      <component glyphName="W" x="0" y="0" flags="0x4"/>
      <component glyphName="dieresis.cap" x="267" y="0" flags="0x4"/>
    </TTGlyph>
    <TTGlyph name="Wgrave" xMin="40" yMin="-17" xMax="942" yMax="841">
      <component glyphName="W" x="0" y="0" flags="0x4"/>
      <component glyphName="grave.cap" x="264" y="0" flags="0x4"/>
    </TTGlyph>
    <TTGlyph name="X" xMin="-14" yMin="-8" xMax="652" yMax="645">
      <contour>
        <pt x="293" y="316" on="1"/>
        <pt x="190" y="517" on="1"/>
        <pt x="171" y="553" on="0"/>
        <pt x="113" y="594" on="0"/>
        <pt x="68" y="600" on="1"/>
        <pt x="68" y="604" on="1"/>
        <pt x="77" y="640" on="1"/>
        <pt x="104" y="639" on="0"/>
        <pt x="130" y="638" on="1"/>
        <pt x="152" y="637" on="0"/>
        <pt x="198" y="636" on="0"/>
        <pt x="214" y="636" on="1"/>
        <pt x="243" y="636" on="0"/>
        <pt x="291" y="638" on="0"/>
        <pt x="308" y="640" on="1"/>
        <pt x="328" y="642" on="0"/>
        <pt x="344" y="645" on="1"/>
        <pt x="346" y="638" on="1"/>
        <pt x="339" y="605" on="1"/>
        <pt x="296" y="602" on="0"/>
        <pt x="258" y="585" on="0"/>
        <pt x="258" y="568" on="1"/>
        <pt x="258" y="554" on="0"/>
        <pt x="304" y="451" on="0"/>
        <pt x="342" y="374" on="1"/>
        <pt x="361" y="398" on="0"/>
        <pt x="415" y="459" on="0"/>
        <pt x="463" y="517" on="0"/>
        <pt x="497" y="565" on="0"/>
        <pt x="497" y="576" on="1"/>
        <pt x="497" y="588" on="0"/>
        <pt x="471" y="600" on="0"/>
        <pt x="444" y="603" on="1"/>
        <pt x="444" y="604" on="0"/>
        <pt x="443" y="606" on="0"/>
        <pt x="443" y="607" on="1"/>
        <pt x="452" y="644" on="1"/>
        <pt x="452" y="644" on="0"/>
        <pt x="474" y="641" on="0"/>
        <pt x="507" y="638" on="0"/>
        <pt x="544" y="636" on="0"/>
        <pt x="557" y="636" on="1"/>
        <pt x="571" y="636" on="0"/>
        <pt x="603" y="637" on="0"/>
        <pt x="617" y="638" on="1"/>
        <pt x="633" y="639" on="0"/>
        <pt x="649" y="640" on="1"/>
        <pt x="652" y="634" on="1"/>
        <pt x="642" y="599" on="1"/>
        <pt x="620" y="595" on="0"/>
        <pt x="587" y="582" on="0"/>
        <pt x="556" y="558" on="0"/>
        <pt x="522" y="522" on="0"/>
        <pt x="499" y="496" on="1"/>
        <pt x="362" y="342" on="1"/>
        <pt x="478" y="124" on="1"/>
        <pt x="499" y="85" on="0"/>
        <pt x="554" y="46" on="0"/>
        <pt x="600" y="41" on="1"/>
        <pt x="589" y="-3" on="1"/>
        <pt x="567" y="-3" on="0"/>
        <pt x="546" y="-2" on="1"/>
        <pt x="528" y="-1" on="0"/>
        <pt x="488" y="0" on="0"/>
        <pt x="471" y="0" on="1"/>
        <pt x="451" y="0" on="0"/>
        <pt x="400" y="-2" on="0"/>
        <pt x="377" y="-4" on="1"/>
        <pt x="351" y="-6" on="0"/>
        <pt x="323" y="-8" on="1"/>
        <pt x="321" y="-1" on="1"/>
        <pt x="329" y="35" on="1"/>
        <pt x="410" y="39" on="0"/>
        <pt x="410" y="74" on="1"/>
        <pt x="410" y="82" on="0"/>
        <pt x="402" y="103" on="0"/>
        <pt x="396" y="116" on="1"/>
        <pt x="313" y="284" on="1"/>
        <pt x="205" y="159" on="1"/>
        <pt x="186" y="137" on="0"/>
        <pt x="162" y="107" on="0"/>
        <pt x="149" y="86" on="0"/>
        <pt x="144" y="71" on="0"/>
        <pt x="144" y="64" on="1"/>
        <pt x="144" y="41" on="0"/>
        <pt x="196" y="37" on="1"/>
        <pt x="198" y="34" on="1"/>
        <pt x="186" y="-7" on="1"/>
        <pt x="165" y="-6" on="0"/>
        <pt x="147" y="-4" on="1"/>
        <pt x="130" y="-2" on="0"/>
        <pt x="96" y="0" on="0"/>
        <pt x="82" y="0" on="1"/>
        <pt x="68" y="0" on="0"/>
        <pt x="36" y="-1" on="0"/>
        <pt x="22" y="-2" on="1"/>
        <pt x="5" y="-3" on="0"/>
        <pt x="-11" y="-4" on="1"/>
        <pt x="-14" y="3" on="1"/>
        <pt x="-4" y="41" on="1"/>
        <pt x="41" y="55" on="0"/>
        <pt x="119" y="123" on="0"/>
        <pt x="170" y="180" on="1"/>
      </contour>
    </TTGlyph>
    <TTGlyph name="Y" xMin="28" yMin="-12" xMax="584" yMax="645">
      <contour>
        <pt x="195" y="567" on="1"/>
        <pt x="195" y="558" on="0"/>
        <pt x="206" y="512" on="0"/>
        <pt x="224" y="453" on="0"/>
        <pt x="243" y="390" on="0"/>
        <pt x="261" y="337" on="0"/>
        <pt x="272" y="303" on="0"/>
        <pt x="272" y="304" on="1"/>
        <pt x="276" y="304" on="1"/>
        <pt x="415" y="522" on="1"/>
        <pt x="436" y="554" on="0"/>
        <pt x="436" y="575" on="1"/>
        <pt x="436" y="599" on="0"/>
        <pt x="379" y="603" on="1"/>
        <pt x="377" y="607" on="1"/>
        <pt x="388" y="644" on="1"/>
        <pt x="388" y="644" on="0"/>
        <pt x="410" y="641" on="0"/>
        <pt x="443" y="638" on="0"/>
        <pt x="479" y="636" on="0"/>
        <pt x="492" y="636" on="1"/>
        <pt x="506" y="636" on="0"/>
        <pt x="536" y="637" on="0"/>
        <pt x="550" y="638" on="1"/>
        <pt x="566" y="639" on="0"/>
        <pt x="581" y="640" on="1"/>
        <pt x="584" y="634" on="1"/>
        <pt x="573" y="599" on="1"/>
        <pt x="547" y="594" on="0"/>
        <pt x="515" y="580" on="0"/>
        <pt x="487" y="552" on="0"/>
        <pt x="455" y="505" on="0"/>
        <pt x="431" y="469" on="1"/>
        <pt x="314" y="294" on="1"/>
        <pt x="304" y="280" on="0"/>
        <pt x="292" y="251" on="0"/>
        <pt x="284" y="210" on="0"/>
        <pt x="276" y="152" on="0"/>
        <pt x="270" y="110" on="1"/>
        <pt x="265" y="71" on="0"/>
        <pt x="277" y="41" on="0"/>
        <pt x="303" y="41" on="1"/>
        <pt x="310" y="41" on="0"/>
        <pt x="327" y="41" on="0"/>
        <pt x="334" y="42" on="1"/>
        <pt x="342" y="43" on="0"/>
        <pt x="350" y="44" on="1"/>
        <pt x="352" y="40" on="1"/>
        <pt x="338" y="-3" on="1"/>
        <pt x="316" y="-3" on="0"/>
        <pt x="294" y="-2" on="1"/>
        <pt x="275" y="-1" on="0"/>
        <pt x="234" y="0" on="0"/>
        <pt x="219" y="0" on="1"/>
        <pt x="201" y="0" on="0"/>
        <pt x="162" y="-4" on="0"/>
        <pt x="146" y="-6" on="1"/>
        <pt x="128" y="-9" on="0"/>
        <pt x="110" y="-12" on="1"/>
        <pt x="121" y="31" on="1"/>
        <pt x="147" y="37" on="0"/>
        <pt x="179" y="51" on="0"/>
        <pt x="197" y="76" on="0"/>
        <pt x="206" y="113" on="0"/>
        <pt x="209" y="141" on="1"/>
        <pt x="214" y="186" on="1"/>
        <pt x="217" y="216" on="0"/>
        <pt x="213" y="264" on="0"/>
        <pt x="200" y="301" on="1"/>
        <pt x="137" y="483" on="1"/>
        <pt x="126" y="514" on="0"/>
        <pt x="111" y="557" on="0"/>
        <pt x="91" y="584" on="0"/>
        <pt x="58" y="597" on="0"/>
        <pt x="30" y="600" on="1"/>
        <pt x="28" y="604" on="1"/>
        <pt x="39" y="640" on="1"/>
        <pt x="56" y="639" on="0"/>
        <pt x="74" y="638" on="1"/>
        <pt x="89" y="637" on="0"/>
        <pt x="125" y="636" on="0"/>
        <pt x="142" y="636" on="1"/>
        <pt x="162" y="636" on="0"/>
        <pt x="211" y="638" on="0"/>
        <pt x="231" y="640" on="1"/>
        <pt x="255" y="642" on="0"/>
        <pt x="279" y="645" on="1"/>
        <pt x="281" y="638" on="1"/>
        <pt x="273" y="605" on="1"/>
        <pt x="248" y="603" on="0"/>
        <pt x="218" y="597" on="0"/>
        <pt x="201" y="588" on="0"/>
        <pt x="195" y="576" on="0"/>
      </contour>
    </TTGlyph>
    <TTGlyph name="Yacute" xMin="28" yMin="-12" xMax="584" yMax="841">
      <component glyphName="Y" x="0" y="0" flags="0x4"/>
      <component glyphName="acute.cap" x="96" y="0" flags="0x4"/>
    </TTGlyph>
    <TTGlyph name="Ycircumflex" xMin="28" yMin="-12" xMax="584" yMax="846">
      <component glyphName="Y" x="0" y="0" flags="0x4"/>
      <component glyphName="circumflex.cap" x="86" y="0" flags="0x4"/>
    </TTGlyph>
    <TTGlyph name="Ydieresis" xMin="28" yMin="-12" xMax="584" yMax="818">
      <component glyphName="Y" x="0" y="0" flags="0x4"/>
      <component glyphName="dieresis.cap" x="86" y="0" flags="0x4"/>
    </TTGlyph>
    <TTGlyph name="Ygrave" xMin="28" yMin="-12" xMax="584" yMax="841">
      <component glyphName="Y" x="0" y="0" flags="0x4"/>
      <component glyphName="grave.cap" x="83" y="0" flags="0x4"/>
    </TTGlyph>
    <TTGlyph name="Z" xMin="10" yMin="-3" xMax="548" yMax="648">
      <contour>
        <pt x="431" y="-3" on="1"/>
        <pt x="87" y="3" on="1"/>
        <pt x="18" y="-3" on="1"/>
        <pt x="10" y="28" on="1"/>
        <pt x="439" y="596" on="1"/>
        <pt x="269" y="590" on="1"/>
        <pt x="236" y="589" on="0"/>
        <pt x="188" y="574" on="0"/>
        <pt x="154" y="542" on="0"/>
        <pt x="131" y="489" on="0"/>
        <pt x="122" y="451" on="1"/>
        <pt x="78" y="447" on="1"/>
        <pt x="86" y="476" on="0"/>
        <pt x="94" y="509" on="1"/>
        <pt x="101" y="537" on="0"/>
        <pt x="114" y="604" on="0"/>
        <pt x="119" y="639" on="1"/>
        <pt x="130" y="648" on="1"/>
        <pt x="297" y="637" on="1"/>
        <pt x="541" y="630" on="1"/>
        <pt x="548" y="602" on="1"/>
        <pt x="468" y="507" on="0"/>
        <pt x="323" y="325" on="0"/>
        <pt x="207" y="173" on="0"/>
        <pt x="124" y="61" on="0"/>
        <pt x="106" y="36" on="1"/>
        <pt x="305" y="43" on="1"/>
        <pt x="355" y="44" on="0"/>
        <pt x="426" y="123" on="0"/>
        <pt x="453" y="210" on="1"/>
        <pt x="496" y="215" on="1"/>
        <pt x="486" y="184" on="0"/>
        <pt x="477" y="150" on="1"/>
        <pt x="469" y="121" on="0"/>
        <pt x="453" y="48" on="0"/>
        <pt x="447" y="13" on="1"/>
      </contour>
    </TTGlyph>
    <TTGlyph name="Zacute" xMin="10" yMin="-3" xMax="548" yMax="841">
      <component glyphName="Z" x="0" y="0" flags="0x4"/>
      <component glyphName="acute.cap" x="103" y="0" flags="0x4"/>
    </TTGlyph>
    <TTGlyph name="Zcaron" xMin="10" yMin="-3" xMax="548" yMax="838">
      <component glyphName="Z" x="0" y="0" flags="0x4"/>
      <component glyphName="caron.cap" x="93" y="0" flags="0x4"/>
    </TTGlyph>
    <TTGlyph name="Zdotaccent" xMin="10" yMin="-3" xMax="548" yMax="829">
      <component glyphName="Z" x="0" y="0" flags="0x4"/>
      <component glyphName="dotaccent.cap" x="93" y="0" flags="0x4"/>
    </TTGlyph>
    <TTGlyph name="a" xMin="32" yMin="-12" xMax="438" yMax="470">
      <contour>
        <pt x="334" y="60" on="1"/>
        <pt x="338" y="60" on="0"/>
        <pt x="346" y="64" on="0"/>
        <pt x="363" y="76" on="0"/>
        <pt x="390" y="99" on="0"/>
        <pt x="413" y="119" on="1"/>
        <pt x="425" y="118" on="1"/>
        <pt x="438" y="94" on="1"/>
        <pt x="377" y="36" on="0"/>
        <pt x="314" y="-12" on="0"/>
        <pt x="298" y="-12" on="1"/>
        <pt x="262" y="-12" on="0"/>
        <pt x="262" y="17" on="1"/>
        <pt x="262" y="21" on="0"/>
        <pt x="265" y="44" on="0"/>
        <pt x="271" y="75" on="0"/>
        <pt x="279" y="112" on="0"/>
        <pt x="283" y="130" on="1"/>
        <pt x="293" y="173" on="0"/>
        <pt x="305" y="225" on="1"/>
        <pt x="299" y="227" on="1"/>
        <pt x="250" y="136" on="0"/>
        <pt x="160" y="22" on="0"/>
        <pt x="112" y="-12" on="1"/>
        <pt x="74" y="-12" on="0"/>
        <pt x="32" y="59" on="0"/>
        <pt x="32" y="124" on="1"/>
        <pt x="32" y="185" on="0"/>
        <pt x="72" y="306" on="0"/>
        <pt x="137" y="401" on="0"/>
        <pt x="219" y="460" on="0"/>
        <pt x="261" y="460" on="1"/>
        <pt x="361" y="444" on="1"/>
        <pt x="370" y="469" on="1"/>
        <pt x="375" y="470" on="1"/>
        <pt x="406" y="455" on="1"/>
        <pt x="414" y="443" on="1"/>
        <pt x="397" y="385" on="0"/>
        <pt x="382" y="323" on="1"/>
        <pt x="368" y="269" on="0"/>
        <pt x="341" y="134" on="0"/>
        <pt x="331" y="64" on="1"/>
      </contour>
      <contour>
        <pt x="131" y="69" on="1"/>
        <pt x="145" y="69" on="0"/>
        <pt x="190" y="117" on="0"/>
        <pt x="245" y="200" on="0"/>
        <pt x="304" y="310" on="0"/>
        <pt x="331" y="373" on="1"/>
        <pt x="306" y="388" on="0"/>
        <pt x="250" y="406" on="0"/>
        <pt x="230" y="406" on="1"/>
        <pt x="206" y="406" on="0"/>
        <pt x="160" y="367" on="0"/>
        <pt x="124" y="302" on="0"/>
        <pt x="102" y="218" on="0"/>
        <pt x="102" y="173" on="1"/>
        <pt x="102" y="129" on="0"/>
        <pt x="119" y="69" on="0"/>
      </contour>
    </TTGlyph>
    <TTGlyph name="a.sups" xMin="30" yMin="343" xMax="311" yMax="650">
      <contour>
        <pt x="246" y="405" on="1"/>
        <pt x="251" y="405" on="0"/>
        <pt x="266" y="417" on="0"/>
        <pt x="292" y="439" on="1"/>
        <pt x="302" y="438" on="1"/>
        <pt x="311" y="419" on="1"/>
        <pt x="269" y="376" on="0"/>
        <pt x="224" y="343" on="0"/>
        <pt x="210" y="343" on="1"/>
        <pt x="184" y="343" on="0"/>
        <pt x="184" y="365" on="1"/>
        <pt x="184" y="370" on="0"/>
        <pt x="191" y="403" on="0"/>
        <pt x="199" y="442" on="0"/>
        <pt x="207" y="476" on="0"/>
        <pt x="208" y="481" on="1"/>
        <pt x="204" y="482" on="1"/>
        <pt x="174" y="428" on="0"/>
        <pt x="122" y="363" on="0"/>
        <pt x="94" y="343" on="1"/>
        <pt x="64" y="343" on="0"/>
        <pt x="30" y="390" on="0"/>
        <pt x="30" y="433" on="1"/>
        <pt x="30" y="471" on="0"/>
        <pt x="56" y="546" on="0"/>
        <pt x="99" y="606" on="0"/>
        <pt x="153" y="643" on="0"/>
        <pt x="181" y="643" on="1"/>
        <pt x="240" y="632" on="1"/>
        <pt x="245" y="647" on="1"/>
        <pt x="251" y="650" on="1"/>
        <pt x="288" y="641" on="1"/>
        <pt x="293" y="631" on="1"/>
        <pt x="283" y="596" on="0"/>
        <pt x="274" y="559" on="1"/>
        <pt x="266" y="527" on="0"/>
        <pt x="250" y="448" on="0"/>
        <pt x="244" y="407" on="1"/>
      </contour>
      <contour>
        <pt x="110" y="407" on="1"/>
        <pt x="118" y="407" on="0"/>
        <pt x="144" y="435" on="0"/>
        <pt x="174" y="482" on="0"/>
        <pt x="206" y="545" on="0"/>
        <pt x="221" y="580" on="1"/>
        <pt x="206" y="590" on="0"/>
        <pt x="173" y="600" on="0"/>
        <pt x="161" y="600" on="1"/>
        <pt x="148" y="600" on="0"/>
        <pt x="124" y="577" on="0"/>
        <pt x="105" y="539" on="0"/>
        <pt x="94" y="492" on="0"/>
        <pt x="94" y="467" on="1"/>
        <pt x="94" y="441" on="0"/>
        <pt x="103" y="407" on="0"/>
      </contour>
    </TTGlyph>
    <TTGlyph name="aacute" xMin="32" yMin="-12" xMax="438" yMax="715">
      <component glyphName="a" x="0" y="0" flags="0x204"/>
      <component glyphName="acute" x="36" y="0" flags="0x4"/>
    </TTGlyph>
    <TTGlyph name="abreve" xMin="32" yMin="-12" xMax="438" yMax="682">
      <component glyphName="a" x="0" y="0" flags="0x204"/>
      <component glyphName="breve" x="41" y="0" flags="0x4"/>
    </TTGlyph>
    <TTGlyph name="acircumflex" xMin="32" yMin="-12" xMax="438" yMax="703">
      <component glyphName="a" x="0" y="0" flags="0x204"/>
      <component glyphName="circumflex" x="39" y="0" flags="0x4"/>
    </TTGlyph>
    <TTGlyph name="acute" xMin="168" yMin="521" xMax="366" yMax="715">
      <contour>
        <pt x="365" y="661" on="1"/>
        <pt x="339" y="641" on="0"/>
        <pt x="312" y="619" on="1"/>
        <pt x="288" y="599" on="0"/>
        <pt x="229" y="550" on="0"/>
        <pt x="197" y="521" on="1"/>
        <pt x="188" y="523" on="1"/>
        <pt x="168" y="542" on="1"/>
        <pt x="195" y="571" on="0"/>
        <pt x="248" y="632" on="0"/>
        <pt x="270" y="658" on="1"/>
        <pt x="295" y="687" on="0"/>
        <pt x="318" y="715" on="1"/>
        <pt x="328" y="713" on="1"/>
        <pt x="366" y="672" on="1"/>
      </contour>
    </TTGlyph>
    <TTGlyph name="acute.cap" xMin="182" yMin="703" xMax="406" yMax="841">
      <contour>
        <pt x="402" y="777" on="1"/>
        <pt x="371" y="766" on="0"/>
        <pt x="338" y="755" on="1"/>
        <pt x="309" y="744" on="0"/>
        <pt x="235" y="718" on="0"/>
        <pt x="196" y="703" on="1"/>
        <pt x="188" y="708" on="1"/>
        <pt x="182" y="732" on="1"/>
        <pt x="217" y="750" on="0"/>
        <pt x="288" y="789" on="0"/>
        <pt x="317" y="805" on="1"/>
        <pt x="350" y="823" on="0"/>
        <pt x="381" y="841" on="1"/>
        <pt x="390" y="835" on="1"/>
        <pt x="406" y="787" on="1"/>
      </contour>
    </TTGlyph>
    <TTGlyph name="adieresis" xMin="32" yMin="-12" xMax="438" yMax="659">
      <component glyphName="a" x="0" y="0" flags="0x204"/>
      <component glyphName="dieresis" x="48" y="0" flags="0x4"/>
    </TTGlyph>
    <TTGlyph name="ae" xMin="32" yMin="-12" xMax="568" yMax="464">
      <contour>
        <pt x="568" y="386" on="1"/>
        <pt x="568" y="354" on="0"/>
        <pt x="542" y="301" on="0"/>
        <pt x="485" y="254" on="0"/>
        <pt x="394" y="211" on="0"/>
        <pt x="330" y="190" on="1"/>
        <pt x="326" y="126" on="0"/>
        <pt x="365" y="48" on="0"/>
        <pt x="400" y="48" on="1"/>
        <pt x="430" y="48" on="0"/>
        <pt x="490" y="95" on="0"/>
        <pt x="510" y="134" on="1"/>
        <pt x="524" y="133" on="1"/>
        <pt x="539" y="109" on="1"/>
        <pt x="510" y="56" on="0"/>
        <pt x="421" y="-12" on="0"/>
        <pt x="378" y="-12" on="1"/>
        <pt x="324" y="-12" on="0"/>
        <pt x="262" y="76" on="0"/>
        <pt x="262" y="153" on="1"/>
        <pt x="262" y="162" on="1"/>
        <pt x="224" y="99" on="0"/>
        <pt x="150" y="15" on="0"/>
        <pt x="112" y="-12" on="1"/>
        <pt x="74" y="-12" on="0"/>
        <pt x="32" y="59" on="0"/>
        <pt x="32" y="124" on="1"/>
        <pt x="32" y="185" on="0"/>
        <pt x="72" y="306" on="0"/>
        <pt x="137" y="401" on="0"/>
        <pt x="219" y="460" on="0"/>
        <pt x="261" y="460" on="1"/>
        <pt x="417" y="443" on="1"/>
        <pt x="434" y="453" on="0"/>
        <pt x="470" y="464" on="0"/>
        <pt x="489" y="464" on="1"/>
        <pt x="527" y="464" on="0"/>
        <pt x="568" y="424" on="0"/>
      </contour>
      <contour>
        <pt x="131" y="69" on="1"/>
        <pt x="145" y="69" on="0"/>
        <pt x="190" y="119" on="0"/>
        <pt x="245" y="204" on="0"/>
        <pt x="304" y="318" on="0"/>
        <pt x="331" y="383" on="1"/>
        <pt x="306" y="394" on="0"/>
        <pt x="250" y="406" on="0"/>
        <pt x="230" y="406" on="1"/>
        <pt x="206" y="406" on="0"/>
        <pt x="160" y="367" on="0"/>
        <pt x="124" y="302" on="0"/>
        <pt x="102" y="218" on="0"/>
        <pt x="102" y="173" on="1"/>
        <pt x="102" y="129" on="0"/>
        <pt x="119" y="69" on="0"/>
      </contour>
      <contour>
        <pt x="457" y="406" on="1"/>
        <pt x="437" y="406" on="0"/>
        <pt x="398" y="378" on="0"/>
        <pt x="365" y="331" on="0"/>
        <pt x="340" y="268" on="0"/>
        <pt x="334" y="232" on="1"/>
        <pt x="421" y="259" on="0"/>
        <pt x="497" y="319" on="0"/>
        <pt x="497" y="360" on="1"/>
        <pt x="497" y="406" on="0"/>
      </contour>
    </TTGlyph>
    <TTGlyph name="aeacute" xMin="32" yMin="-12" xMax="568" yMax="715">
      <component glyphName="ae" x="0" y="0" flags="0x204"/>
      <component glyphName="acute" x="142" y="0" flags="0x4"/>
    </TTGlyph>
    <TTGlyph name="agrave" xMin="32" yMin="-12" xMax="438" yMax="714">
      <component glyphName="a" x="0" y="0" flags="0x204"/>
      <component glyphName="grave" x="41" y="0" flags="0x4"/>
    </TTGlyph>
    <TTGlyph name="amacron" xMin="32" yMin="-12" xMax="438" yMax="653">
      <component glyphName="a" x="0" y="0" flags="0x204"/>
      <component glyphName="macron" x="38" y="0" flags="0x4"/>
    </TTGlyph>
    <TTGlyph name="ampersand" xMin="47" yMin="-12" xMax="679" yMax="649">
      <contour>
        <pt x="174" y="479" on="1"/>
        <pt x="174" y="452" on="0"/>
        <pt x="193" y="408" on="0"/>
        <pt x="229" y="375" on="0"/>
        <pt x="278" y="357" on="0"/>
        <pt x="308" y="357" on="1"/>
        <pt x="569" y="374" on="1"/>
        <pt x="597" y="376" on="0"/>
        <pt x="640" y="398" on="0"/>
        <pt x="661" y="421" on="1"/>
        <pt x="679" y="411" on="1"/>
        <pt x="651" y="355" on="1"/>
        <pt x="639" y="331" on="0"/>
        <pt x="609" y="314" on="0"/>
        <pt x="580" y="314" on="1"/>
        <pt x="482" y="314" on="1"/>
        <pt x="477" y="306" on="1"/>
        <pt x="488" y="292" on="0"/>
        <pt x="502" y="249" on="0"/>
        <pt x="502" y="226" on="1"/>
        <pt x="502" y="178" on="0"/>
        <pt x="459" y="91" on="0"/>
        <pt x="386" y="26" on="0"/>
        <pt x="289" y="-12" on="0"/>
        <pt x="235" y="-12" on="1"/>
        <pt x="196" y="-12" on="0"/>
        <pt x="127" y="10" on="0"/>
        <pt x="76" y="50" on="0"/>
        <pt x="47" y="105" on="0"/>
        <pt x="47" y="137" on="1"/>
        <pt x="47" y="199" on="0"/>
        <pt x="135" y="296" on="0"/>
        <pt x="209" y="319" on="1"/>
        <pt x="158" y="339" on="0"/>
        <pt x="103" y="414" on="0"/>
        <pt x="103" y="462" on="1"/>
        <pt x="103" y="501" on="0"/>
        <pt x="139" y="570" on="0"/>
        <pt x="200" y="620" on="0"/>
        <pt x="281" y="649" on="0"/>
        <pt x="326" y="649" on="1"/>
        <pt x="360" y="649" on="0"/>
        <pt x="444" y="636" on="0"/>
        <pt x="479" y="625" on="1"/>
        <pt x="481" y="621" on="1"/>
        <pt x="475" y="606" on="0"/>
        <pt x="464" y="570" on="0"/>
        <pt x="453" y="531" on="0"/>
        <pt x="444" y="492" on="0"/>
        <pt x="441" y="475" on="1"/>
        <pt x="395" y="471" on="1"/>
        <pt x="397" y="481" on="0"/>
        <pt x="399" y="491" on="1"/>
        <pt x="401" y="499" on="0"/>
        <pt x="404" y="517" on="0"/>
        <pt x="404" y="524" on="1"/>
        <pt x="404" y="557" on="0"/>
        <pt x="357" y="594" on="0"/>
        <pt x="311" y="594" on="1"/>
        <pt x="247" y="594" on="0"/>
        <pt x="174" y="533" on="0"/>
      </contour>
      <contour>
        <pt x="443" y="213" on="1"/>
        <pt x="443" y="256" on="0"/>
        <pt x="405" y="314" on="0"/>
        <pt x="375" y="314" on="1"/>
        <pt x="259" y="314" on="1"/>
        <pt x="221" y="296" on="0"/>
        <pt x="169" y="263" on="0"/>
        <pt x="137" y="228" on="0"/>
        <pt x="124" y="190" on="0"/>
        <pt x="124" y="167" on="1"/>
        <pt x="124" y="141" on="0"/>
        <pt x="144" y="97" on="0"/>
        <pt x="179" y="64" on="0"/>
        <pt x="228" y="46" on="0"/>
        <pt x="257" y="46" on="1"/>
        <pt x="296" y="46" on="0"/>
        <pt x="364" y="71" on="0"/>
        <pt x="414" y="115" on="0"/>
        <pt x="443" y="176" on="0"/>
      </contour>
    </TTGlyph>
    <TTGlyph name="aogonek" xMin="32" yMin="-241" xMax="441" yMax="470">
      <contour>
        <pt x="385" y="-178" on="1"/>
        <pt x="370" y="-191" on="0"/>
        <pt x="352" y="-203" on="1"/>
        <pt x="337" y="-214" on="0"/>
        <pt x="300" y="-235" on="0"/>
        <pt x="281" y="-241" on="1"/>
        <pt x="238" y="-241" on="0"/>
        <pt x="185" y="-198" on="0"/>
        <pt x="185" y="-158" on="1"/>
        <pt x="185" y="-121" on="0"/>
        <pt x="241" y="-50" on="0"/>
        <pt x="283" y="-10" on="1"/>
        <pt x="262" y="-6" on="0"/>
        <pt x="262" y="17" on="1"/>
        <pt x="262" y="21" on="0"/>
        <pt x="265" y="44" on="0"/>
        <pt x="271" y="75" on="0"/>
        <pt x="279" y="112" on="0"/>
        <pt x="283" y="130" on="1"/>
        <pt x="293" y="173" on="0"/>
        <pt x="305" y="225" on="1"/>
        <pt x="299" y="227" on="1"/>
        <pt x="250" y="136" on="0"/>
        <pt x="160" y="22" on="0"/>
        <pt x="112" y="-12" on="1"/>
        <pt x="74" y="-12" on="0"/>
        <pt x="32" y="59" on="0"/>
        <pt x="32" y="124" on="1"/>
        <pt x="32" y="185" on="0"/>
        <pt x="72" y="306" on="0"/>
        <pt x="137" y="401" on="0"/>
        <pt x="219" y="460" on="0"/>
        <pt x="261" y="460" on="1"/>
        <pt x="361" y="444" on="1"/>
        <pt x="370" y="469" on="1"/>
        <pt x="375" y="470" on="1"/>
        <pt x="406" y="455" on="1"/>
        <pt x="414" y="443" on="1"/>
        <pt x="397" y="385" on="0"/>
        <pt x="382" y="323" on="1"/>
        <pt x="368" y="269" on="0"/>
        <pt x="341" y="134" on="0"/>
        <pt x="331" y="64" on="1"/>
        <pt x="334" y="60" on="1"/>
        <pt x="338" y="60" on="0"/>
        <pt x="346" y="64" on="0"/>
        <pt x="363" y="76" on="0"/>
        <pt x="390" y="99" on="0"/>
        <pt x="413" y="119" on="1"/>
        <pt x="425" y="118" on="1"/>
        <pt x="441" y="90" on="1"/>
        <pt x="388" y="46" on="0"/>
        <pt x="315" y="-19" on="0"/>
        <pt x="270" y="-70" on="0"/>
        <pt x="249" y="-112" on="0"/>
        <pt x="249" y="-134" on="1"/>
        <pt x="249" y="-155" on="0"/>
        <pt x="275" y="-182" on="0"/>
        <pt x="298" y="-182" on="1"/>
        <pt x="312" y="-182" on="0"/>
        <pt x="339" y="-176" on="0"/>
        <pt x="350" y="-171" on="1"/>
        <pt x="363" y="-166" on="0"/>
        <pt x="375" y="-159" on="1"/>
      </contour>
      <contour>
        <pt x="131" y="69" on="1"/>
        <pt x="145" y="69" on="0"/>
        <pt x="190" y="117" on="0"/>
        <pt x="245" y="200" on="0"/>
        <pt x="304" y="310" on="0"/>
        <pt x="331" y="373" on="1"/>
        <pt x="306" y="388" on="0"/>
        <pt x="250" y="406" on="0"/>
        <pt x="230" y="406" on="1"/>
        <pt x="206" y="406" on="0"/>
        <pt x="160" y="367" on="0"/>
        <pt x="124" y="302" on="0"/>
        <pt x="102" y="218" on="0"/>
        <pt x="102" y="173" on="1"/>
        <pt x="102" y="129" on="0"/>
        <pt x="119" y="69" on="0"/>
      </contour>
    </TTGlyph>
    <TTGlyph name="approxequal" xMin="33" yMin="122" xMax="468" yMax="415">
      <contour>
        <pt x="72" y="284" on="1"/>
        <pt x="53" y="305" on="1"/>
        <pt x="53" y="310" on="1"/>
        <pt x="138" y="399" on="1"/>
        <pt x="154" y="403" on="1"/>
        <pt x="173" y="403" on="0"/>
        <pt x="235" y="390" on="0"/>
        <pt x="299" y="373" on="0"/>
        <pt x="358" y="360" on="0"/>
        <pt x="374" y="360" on="1"/>
        <pt x="382" y="360" on="0"/>
        <pt x="406" y="376" on="0"/>
        <pt x="417" y="387" on="1"/>
        <pt x="429" y="399" on="0"/>
        <pt x="442" y="415" on="1"/>
        <pt x="448" y="415" on="1"/>
        <pt x="468" y="394" on="1"/>
        <pt x="467" y="389" on="1"/>
        <pt x="382" y="300" on="1"/>
        <pt x="366" y="296" on="1"/>
        <pt x="347" y="296" on="0"/>
        <pt x="286" y="309" on="0"/>
        <pt x="221" y="326" on="0"/>
        <pt x="162" y="339" on="0"/>
        <pt x="146" y="339" on="1"/>
        <pt x="137" y="339" on="0"/>
        <pt x="114" y="322" on="0"/>
        <pt x="103" y="311" on="1"/>
        <pt x="91" y="299" on="0"/>
        <pt x="78" y="284" on="1"/>
      </contour>
      <contour>
        <pt x="52" y="122" on="1"/>
        <pt x="33" y="143" on="1"/>
        <pt x="33" y="148" on="1"/>
        <pt x="118" y="237" on="1"/>
        <pt x="134" y="241" on="1"/>
        <pt x="153" y="241" on="0"/>
        <pt x="215" y="228" on="0"/>
        <pt x="280" y="211" on="0"/>
        <pt x="338" y="198" on="0"/>
        <pt x="355" y="198" on="1"/>
        <pt x="363" y="198" on="0"/>
        <pt x="386" y="214" on="0"/>
        <pt x="397" y="225" on="1"/>
        <pt x="409" y="237" on="0"/>
        <pt x="422" y="253" on="1"/>
        <pt x="428" y="253" on="1"/>
        <pt x="448" y="232" on="1"/>
        <pt x="447" y="227" on="1"/>
        <pt x="362" y="138" on="1"/>
        <pt x="346" y="134" on="1"/>
        <pt x="327" y="134" on="0"/>
        <pt x="266" y="147" on="0"/>
        <pt x="201" y="164" on="0"/>
        <pt x="142" y="177" on="0"/>
        <pt x="126" y="177" on="1"/>
        <pt x="117" y="177" on="0"/>
        <pt x="94" y="160" on="0"/>
        <pt x="83" y="149" on="1"/>
        <pt x="71" y="137" on="0"/>
        <pt x="58" y="122" on="1"/>
      </contour>
    </TTGlyph>
    <TTGlyph name="aring" xMin="32" yMin="-12" xMax="438" yMax="708">
      <component glyphName="a" x="0" y="0" flags="0x204"/>
      <component glyphName="ring" x="19" y="0" flags="0x4"/>
    </TTGlyph>
    <TTGlyph name="aringacute" xMin="32" yMin="-12" xMax="438" yMax="751">
      <contour>
        <pt x="334" y="60" on="1"/>
        <pt x="338" y="60" on="0"/>
        <pt x="346" y="64" on="0"/>
        <pt x="363" y="76" on="0"/>
        <pt x="390" y="99" on="0"/>
        <pt x="413" y="119" on="1"/>
        <pt x="425" y="118" on="1"/>
        <pt x="438" y="94" on="1"/>
        <pt x="377" y="36" on="0"/>
        <pt x="314" y="-12" on="0"/>
        <pt x="298" y="-12" on="1"/>
        <pt x="262" y="-12" on="0"/>
        <pt x="262" y="17" on="1"/>
        <pt x="262" y="21" on="0"/>
        <pt x="265" y="44" on="0"/>
        <pt x="271" y="75" on="0"/>
        <pt x="279" y="112" on="0"/>
        <pt x="283" y="130" on="1"/>
        <pt x="293" y="173" on="0"/>
        <pt x="305" y="225" on="1"/>
        <pt x="299" y="227" on="1"/>
        <pt x="250" y="136" on="0"/>
        <pt x="160" y="22" on="0"/>
        <pt x="112" y="-12" on="1"/>
        <pt x="74" y="-12" on="0"/>
        <pt x="32" y="59" on="0"/>
        <pt x="32" y="124" on="1"/>
        <pt x="32" y="185" on="0"/>
        <pt x="72" y="306" on="0"/>
        <pt x="137" y="401" on="0"/>
        <pt x="219" y="460" on="0"/>
        <pt x="261" y="460" on="1"/>
        <pt x="361" y="444" on="1"/>
        <pt x="370" y="469" on="1"/>
        <pt x="375" y="470" on="1"/>
        <pt x="406" y="455" on="1"/>
        <pt x="414" y="443" on="1"/>
        <pt x="397" y="385" on="0"/>
        <pt x="382" y="323" on="1"/>
        <pt x="368" y="269" on="0"/>
        <pt x="341" y="134" on="0"/>
        <pt x="331" y="64" on="1"/>
      </contour>
      <contour>
        <pt x="131" y="69" on="1"/>
        <pt x="145" y="69" on="0"/>
        <pt x="190" y="117" on="0"/>
        <pt x="245" y="200" on="0"/>
        <pt x="304" y="310" on="0"/>
        <pt x="331" y="373" on="1"/>
        <pt x="306" y="388" on="0"/>
        <pt x="250" y="406" on="0"/>
        <pt x="230" y="406" on="1"/>
        <pt x="206" y="406" on="0"/>
        <pt x="160" y="367" on="0"/>
        <pt x="124" y="302" on="0"/>
        <pt x="102" y="218" on="0"/>
        <pt x="102" y="173" on="1"/>
        <pt x="102" y="129" on="0"/>
        <pt x="119" y="69" on="0"/>
      </contour>
      <contour>
        <pt x="284" y="516" on="1"/>
        <pt x="290" y="516" on="0"/>
        <pt x="304" y="518" on="0"/>
        <pt x="318" y="527" on="0"/>
        <pt x="327" y="542" on="0"/>
        <pt x="327" y="556" on="1"/>
        <pt x="327" y="573" on="0"/>
        <pt x="307" y="594" on="0"/>
        <pt x="287" y="594" on="1"/>
        <pt x="267" y="594" on="0"/>
        <pt x="245" y="572" on="0"/>
        <pt x="245" y="553" on="1"/>
        <pt x="245" y="533" on="0"/>
        <pt x="272" y="516" on="0"/>
      </contour>
      <contour>
        <pt x="274" y="481" on="1"/>
        <pt x="245" y="481" on="0"/>
        <pt x="215" y="516" on="0"/>
        <pt x="215" y="543" on="1"/>
        <pt x="215" y="580" on="0"/>
        <pt x="263" y="629" on="0"/>
        <pt x="299" y="629" on="1"/>
        <pt x="331" y="629" on="0"/>
        <pt x="359" y="593" on="0"/>
        <pt x="359" y="570" on="1"/>
        <pt x="359" y="553" on="0"/>
        <pt x="347" y="521" on="0"/>
        <pt x="324" y="496" on="0"/>
        <pt x="293" y="481" on="0"/>
      </contour>
      <contour>
        <pt x="398" y="693" on="1"/>
        <pt x="372" y="684" on="0"/>
        <pt x="341" y="673" on="1"/>
        <pt x="315" y="664" on="0"/>
        <pt x="247" y="641" on="0"/>
        <pt x="212" y="627" on="1"/>
        <pt x="205" y="631" on="1"/>
        <pt x="200" y="653" on="1"/>
        <pt x="232" y="670" on="0"/>
        <pt x="295" y="704" on="0"/>
        <pt x="321" y="718" on="1"/>
        <pt x="351" y="735" on="0"/>
        <pt x="379" y="751" on="1"/>
        <pt x="387" y="745" on="1"/>
        <pt x="401" y="702" on="1"/>
      </contour>
    </TTGlyph>
    <TTGlyph name="asciicircum" xMin="35" yMin="57" xMax="416" yMax="481">
      <contour>
        <pt x="302" y="473" on="1"/>
        <pt x="312" y="436" on="0"/>
        <pt x="322" y="401" on="1"/>
        <pt x="330" y="371" on="0"/>
        <pt x="350" y="302" on="0"/>
        <pt x="358" y="275" on="1"/>
        <pt x="367" y="244" on="0"/>
        <pt x="387" y="178" on="0"/>
        <pt x="396" y="150" on="1"/>
        <pt x="406" y="117" on="0"/>
        <pt x="416" y="87" on="1"/>
        <pt x="373" y="57" on="1"/>
        <pt x="362" y="58" on="1"/>
        <pt x="353" y="87" on="0"/>
        <pt x="344" y="118" on="1"/>
        <pt x="336" y="144" on="0"/>
        <pt x="318" y="208" on="0"/>
        <pt x="309" y="239" on="1"/>
        <pt x="263" y="407" on="1"/>
        <pt x="257" y="407" on="1"/>
        <pt x="181" y="253" on="1"/>
        <pt x="164" y="222" on="0"/>
        <pt x="132" y="154" on="0"/>
        <pt x="118" y="125" on="1"/>
        <pt x="102" y="92" on="0"/>
        <pt x="87" y="59" on="1"/>
        <pt x="38" y="66" on="1"/>
        <pt x="35" y="75" on="1"/>
        <pt x="51" y="107" on="0"/>
        <pt x="68" y="141" on="1"/>
        <pt x="82" y="170" on="0"/>
        <pt x="118" y="241" on="0"/>
        <pt x="137" y="276" on="1"/>
        <pt x="244" y="479" on="1"/>
        <pt x="292" y="481" on="1"/>
      </contour>
    </TTGlyph>
    <TTGlyph name="asciitilde" xMin="41" yMin="202" xMax="459" yMax="333">
      <contour>
        <pt x="60" y="202" on="1"/>
        <pt x="41" y="223" on="1"/>
        <pt x="41" y="228" on="1"/>
        <pt x="126" y="317" on="1"/>
        <pt x="142" y="321" on="1"/>
        <pt x="161" y="321" on="0"/>
        <pt x="224" y="308" on="0"/>
        <pt x="290" y="291" on="0"/>
        <pt x="349" y="278" on="0"/>
        <pt x="366" y="278" on="1"/>
        <pt x="374" y="278" on="0"/>
        <pt x="398" y="294" on="0"/>
        <pt x="409" y="305" on="1"/>
        <pt x="421" y="317" on="0"/>
        <pt x="434" y="333" on="1"/>
        <pt x="440" y="333" on="1"/>
        <pt x="459" y="312" on="1"/>
        <pt x="459" y="307" on="1"/>
        <pt x="374" y="218" on="1"/>
        <pt x="358" y="214" on="1"/>
        <pt x="338" y="214" on="0"/>
        <pt x="276" y="227" on="0"/>
        <pt x="210" y="244" on="0"/>
        <pt x="150" y="257" on="0"/>
        <pt x="134" y="257" on="1"/>
        <pt x="125" y="257" on="0"/>
        <pt x="102" y="240" on="0"/>
        <pt x="91" y="229" on="1"/>
        <pt x="79" y="217" on="0"/>
        <pt x="66" y="202" on="1"/>
      </contour>
    </TTGlyph>
    <TTGlyph name="asterisk" xMin="106" yMin="417" xMax="427" yMax="737">
      <contour>
        <pt x="124" y="666" on="1"/>
        <pt x="140" y="657" on="0"/>
        <pt x="157" y="647" on="1"/>
        <pt x="171" y="638" on="0"/>
        <pt x="207" y="616" on="0"/>
        <pt x="224" y="603" on="1"/>
        <pt x="218" y="570" on="1"/>
        <pt x="212" y="565" on="1"/>
        <pt x="192" y="571" on="0"/>
        <pt x="155" y="582" on="0"/>
        <pt x="140" y="586" on="1"/>
        <pt x="122" y="590" on="0"/>
        <pt x="106" y="594" on="1"/>
        <pt x="106" y="606" on="0"/>
        <pt x="107" y="617" on="1"/>
        <pt x="108" y="627" on="0"/>
        <pt x="111" y="651" on="0"/>
        <pt x="115" y="662" on="1"/>
      </contour>
      <contour>
        <pt x="129" y="473" on="1"/>
        <pt x="142" y="486" on="0"/>
        <pt x="157" y="499" on="1"/>
        <pt x="170" y="510" on="0"/>
        <pt x="202" y="537" on="0"/>
        <pt x="220" y="549" on="1"/>
        <pt x="249" y="533" on="1"/>
        <pt x="252" y="526" on="1"/>
        <pt x="240" y="509" on="0"/>
        <pt x="218" y="478" on="0"/>
        <pt x="210" y="464" on="1"/>
        <pt x="200" y="448" on="0"/>
        <pt x="192" y="434" on="1"/>
        <pt x="182" y="438" on="0"/>
        <pt x="171" y="442" on="1"/>
        <pt x="162" y="446" on="0"/>
        <pt x="140" y="457" on="0"/>
        <pt x="130" y="464" on="1"/>
      </contour>
      <contour>
        <pt x="314" y="418" on="1"/>
        <pt x="306" y="435" on="0"/>
        <pt x="298" y="453" on="1"/>
        <pt x="291" y="469" on="0"/>
        <pt x="276" y="508" on="0"/>
        <pt x="270" y="528" on="1"/>
        <pt x="294" y="551" on="1"/>
        <pt x="302" y="552" on="1"/>
        <pt x="313" y="535" on="0"/>
        <pt x="338" y="504" on="0"/>
        <pt x="348" y="492" on="1"/>
        <pt x="359" y="478" on="0"/>
        <pt x="370" y="466" on="1"/>
        <pt x="364" y="458" on="0"/>
        <pt x="356" y="449" on="1"/>
        <pt x="349" y="441" on="0"/>
        <pt x="332" y="424" on="0"/>
        <pt x="323" y="417" on="1"/>
      </contour>
      <contour>
        <pt x="423" y="577" on="1"/>
        <pt x="404" y="575" on="0"/>
        <pt x="385" y="573" on="1"/>
        <pt x="368" y="571" on="0"/>
        <pt x="326" y="569" on="0"/>
        <pt x="305" y="570" on="1"/>
        <pt x="291" y="599" on="1"/>
        <pt x="292" y="607" on="1"/>
        <pt x="312" y="613" on="0"/>
        <pt x="349" y="626" on="0"/>
        <pt x="363" y="632" on="1"/>
        <pt x="380" y="639" on="0"/>
        <pt x="395" y="646" on="1"/>
        <pt x="401" y="637" on="0"/>
        <pt x="407" y="627" on="1"/>
        <pt x="412" y="619" on="0"/>
        <pt x="423" y="597" on="0"/>
        <pt x="427" y="586" on="1"/>
      </contour>
      <contour>
        <pt x="306" y="730" on="1"/>
        <pt x="302" y="712" on="0"/>
        <pt x="298" y="693" on="1"/>
        <pt x="294" y="676" on="0"/>
        <pt x="284" y="636" on="0"/>
        <pt x="277" y="616" on="1"/>
        <pt x="243" y="611" on="1"/>
        <pt x="237" y="615" on="1"/>
        <pt x="237" y="635" on="0"/>
        <pt x="235" y="674" on="0"/>
        <pt x="234" y="690" on="1"/>
        <pt x="233" y="708" on="0"/>
        <pt x="232" y="725" on="1"/>
        <pt x="243" y="728" on="0"/>
        <pt x="254" y="731" on="1"/>
        <pt x="264" y="733" on="0"/>
        <pt x="287" y="737" on="0"/>
        <pt x="299" y="737" on="1"/>
      </contour>
    </TTGlyph>
    <TTGlyph name="at" xMin="24" yMin="-209" xMax="790" yMax="613">
      <contour>
        <pt x="468" y="-12" on="1"/>
        <pt x="432" y="-12" on="0"/>
        <pt x="432" y="17" on="1"/>
        <pt x="432" y="24" on="0"/>
        <pt x="445" y="90" on="0"/>
        <pt x="453" y="128" on="1"/>
        <pt x="463" y="172" on="0"/>
        <pt x="475" y="225" on="1"/>
        <pt x="469" y="227" on="1"/>
        <pt x="419" y="133" on="0"/>
        <pt x="328" y="20" on="0"/>
        <pt x="282" y="-12" on="1"/>
        <pt x="241" y="-12" on="0"/>
        <pt x="202" y="64" on="0"/>
        <pt x="202" y="124" on="1"/>
        <pt x="202" y="188" on="0"/>
        <pt x="243" y="309" on="0"/>
        <pt x="309" y="403" on="0"/>
        <pt x="391" y="460" on="0"/>
        <pt x="431" y="460" on="1"/>
        <pt x="531" y="444" on="1"/>
        <pt x="540" y="469" on="1"/>
        <pt x="545" y="470" on="1"/>
        <pt x="576" y="455" on="1"/>
        <pt x="584" y="443" on="1"/>
        <pt x="568" y="384" on="0"/>
        <pt x="552" y="320" on="1"/>
        <pt x="538" y="265" on="0"/>
        <pt x="510" y="128" on="0"/>
        <pt x="500" y="58" on="1"/>
        <pt x="504" y="54" on="1"/>
        <pt x="559" y="54" on="0"/>
        <pt x="640" y="87" on="0"/>
        <pt x="694" y="147" on="0"/>
        <pt x="721" y="230" on="0"/>
        <pt x="721" y="280" on="1"/>
        <pt x="721" y="346" on="0"/>
        <pt x="679" y="449" on="0"/>
        <pt x="601" y="520" on="0"/>
        <pt x="492" y="557" on="0"/>
        <pt x="426" y="557" on="1"/>
        <pt x="350" y="557" on="0"/>
        <pt x="227" y="500" on="0"/>
        <pt x="141" y="404" on="0"/>
        <pt x="95" y="276" on="0"/>
        <pt x="95" y="206" on="1"/>
        <pt x="95" y="134" on="0"/>
        <pt x="136" y="3" on="0"/>
        <pt x="222" y="-97" on="0"/>
        <pt x="355" y="-161" on="0"/>
        <pt x="448" y="-166" on="1"/>
        <pt x="448" y="-173" on="1"/>
        <pt x="422" y="-209" on="1"/>
        <pt x="324" y="-205" on="0"/>
        <pt x="175" y="-138" on="0"/>
        <pt x="75" y="-30" on="0"/>
        <pt x="24" y="110" on="0"/>
        <pt x="24" y="188" on="1"/>
        <pt x="24" y="270" on="0"/>
        <pt x="84" y="423" on="0"/>
        <pt x="195" y="541" on="0"/>
        <pt x="353" y="613" on="0"/>
        <pt x="451" y="613" on="1"/>
        <pt x="526" y="613" on="0"/>
        <pt x="651" y="565" on="0"/>
        <pt x="741" y="482" on="0"/>
        <pt x="790" y="369" on="0"/>
        <pt x="790" y="304" on="1"/>
        <pt x="790" y="243" on="0"/>
        <pt x="749" y="129" on="0"/>
        <pt x="668" y="41" on="0"/>
        <pt x="547" y="-12" on="0"/>
      </contour>
      <contour>
        <pt x="301" y="69" on="1"/>
        <pt x="314" y="69" on="0"/>
        <pt x="358" y="114" on="0"/>
        <pt x="412" y="195" on="0"/>
        <pt x="472" y="306" on="0"/>
        <pt x="501" y="373" on="1"/>
        <pt x="496" y="376" on="0"/>
        <pt x="475" y="387" on="0"/>
        <pt x="447" y="398" on="0"/>
        <pt x="415" y="406" on="0"/>
        <pt x="400" y="406" on="1"/>
        <pt x="376" y="406" on="0"/>
        <pt x="330" y="368" on="0"/>
        <pt x="294" y="303" on="0"/>
        <pt x="272" y="219" on="0"/>
        <pt x="272" y="173" on="1"/>
        <pt x="272" y="152" on="0"/>
        <pt x="276" y="115" on="0"/>
        <pt x="284" y="86" on="0"/>
        <pt x="295" y="69" on="0"/>
      </contour>
    </TTGlyph>
    <TTGlyph name="atilde" xMin="32" yMin="-12" xMax="454" yMax="692">
      <component glyphName="a" x="0" y="0" flags="0x204"/>
      <component glyphName="tilde" x="48" y="0" flags="0x4"/>
    </TTGlyph>
    <TTGlyph name="b" xMin="57" yMin="-8" xMax="420" yMax="733">
      <contour>
        <pt x="57" y="35" on="1"/>
        <pt x="83" y="196" on="0"/>
        <pt x="103" y="327" on="1"/>
        <pt x="112" y="383" on="0"/>
        <pt x="128" y="492" on="0"/>
        <pt x="141" y="581" on="0"/>
        <pt x="149" y="642" on="0"/>
        <pt x="149" y="650" on="1"/>
        <pt x="149" y="670" on="0"/>
        <pt x="130" y="689" on="0"/>
        <pt x="107" y="689" on="1"/>
        <pt x="66" y="689" on="1"/>
        <pt x="72" y="727" on="1"/>
        <pt x="95" y="727" on="0"/>
        <pt x="150" y="728" on="0"/>
        <pt x="175" y="730" on="1"/>
        <pt x="204" y="731" on="0"/>
        <pt x="233" y="733" on="1"/>
        <pt x="242" y="721" on="1"/>
        <pt x="223" y="641" on="0"/>
        <pt x="205" y="555" on="1"/>
        <pt x="189" y="480" on="0"/>
        <pt x="155" y="296" on="0"/>
        <pt x="141" y="202" on="1"/>
        <pt x="144" y="200" on="1"/>
        <pt x="168" y="252" on="0"/>
        <pt x="212" y="334" on="0"/>
        <pt x="254" y="398" on="0"/>
        <pt x="295" y="446" on="0"/>
        <pt x="318" y="464" on="1"/>
        <pt x="363" y="464" on="0"/>
        <pt x="420" y="377" on="0"/>
        <pt x="420" y="307" on="1"/>
        <pt x="420" y="246" on="0"/>
        <pt x="382" y="132" on="0"/>
        <pt x="320" y="45" on="0"/>
        <pt x="238" y="-8" on="0"/>
        <pt x="195" y="-8" on="1"/>
        <pt x="169" y="-8" on="0"/>
        <pt x="122" y="-1" on="0"/>
        <pt x="105" y="4" on="1"/>
        <pt x="85" y="9" on="0"/>
        <pt x="67" y="16" on="1"/>
      </contour>
      <contour>
        <pt x="305" y="381" on="1"/>
        <pt x="293" y="381" on="0"/>
        <pt x="256" y="338" on="0"/>
        <pt x="209" y="257" on="0"/>
        <pt x="152" y="141" on="0"/>
        <pt x="121" y="69" on="1"/>
        <pt x="133" y="64" on="0"/>
        <pt x="164" y="56" on="0"/>
        <pt x="195" y="50" on="0"/>
        <pt x="223" y="46" on="0"/>
        <pt x="233" y="46" on="1"/>
        <pt x="255" y="46" on="0"/>
        <pt x="298" y="82" on="0"/>
        <pt x="331" y="141" on="0"/>
        <pt x="351" y="218" on="0"/>
        <pt x="351" y="259" on="1"/>
        <pt x="351" y="283" on="0"/>
        <pt x="343" y="327" on="0"/>
        <pt x="331" y="361" on="0"/>
        <pt x="314" y="381" on="0"/>
      </contour>
    </TTGlyph>
</ttFont>
